ISO-10303-21;
HEADER;
/* Generated by software containing ST-Developer
 * from STEP Tools, Inc. (www.steptools.com) 
 */

FILE_DESCRIPTION(
/* description */ (''),
/* implementation_level */ '2;1');

FILE_NAME(
/* name */ '',
/* time_stamp */ '2026-05-27T15:59:43+09:00',
/* author */ ('Yagis'),
/* organization */ (''),
/* preprocessor_version */ 'ST-DEVELOPER v20.1',
/* originating_system */ 'Autodesk Inventor 2026',
/* authorisation */ '');

FILE_SCHEMA (('AUTOMOTIVE_DESIGN { 1 0 10303 214 3 1 1 }'));
ENDSEC;

DATA;
#10=MECHANICAL_DESIGN_GEOMETRIC_PRESENTATION_REPRESENTATION('',(#13),#519);
#11=SHAPE_REPRESENTATION_RELATIONSHIP('SRR','None',#526,#12);
#12=ADVANCED_BREP_SHAPE_REPRESENTATION('',(#14),#518);
#13=STYLED_ITEM('',(#535),#14);
#14=MANIFOLD_SOLID_BREP('\X2\30BD30EA30C330C9\X0\1',#306);
#15=FACE_BOUND('',#58,.T.);
#16=FACE_BOUND('',#59,.T.);
#17=FACE_BOUND('',#60,.T.);
#18=FACE_BOUND('',#61,.T.);
#19=FACE_BOUND('',#65,.T.);
#20=FACE_BOUND('',#68,.T.);
#21=FACE_BOUND('',#69,.T.);
#22=FACE_BOUND('',#70,.T.);
#23=FACE_BOUND('',#71,.T.);
#24=FACE_BOUND('',#74,.T.);
#25=PLANE('',#344);
#26=PLANE('',#345);
#27=PLANE('',#346);
#28=PLANE('',#347);
#29=PLANE('',#348);
#30=PLANE('',#349);
#31=PLANE('',#350);
#32=PLANE('',#351);
#33=PLANE('',#352);
#34=PLANE('',#353);
#35=FACE_OUTER_BOUND('',#50,.T.);
#36=FACE_OUTER_BOUND('',#51,.T.);
#37=FACE_OUTER_BOUND('',#52,.T.);
#38=FACE_OUTER_BOUND('',#53,.T.);
#39=FACE_OUTER_BOUND('',#54,.T.);
#40=FACE_OUTER_BOUND('',#55,.T.);
#41=FACE_OUTER_BOUND('',#56,.T.);
#42=FACE_OUTER_BOUND('',#57,.T.);
#43=FACE_OUTER_BOUND('',#62,.T.);
#44=FACE_OUTER_BOUND('',#63,.T.);
#45=FACE_OUTER_BOUND('',#64,.T.);
#46=FACE_OUTER_BOUND('',#66,.T.);
#47=FACE_OUTER_BOUND('',#67,.T.);
#48=FACE_OUTER_BOUND('',#72,.T.);
#49=FACE_OUTER_BOUND('',#73,.T.);
#50=EDGE_LOOP('',(#208,#209,#210,#211));
#51=EDGE_LOOP('',(#212,#213,#214,#215));
#52=EDGE_LOOP('',(#216,#217,#218,#219));
#53=EDGE_LOOP('',(#220,#221,#222,#223));
#54=EDGE_LOOP('',(#224,#225,#226,#227));
#55=EDGE_LOOP('',(#228,#229,#230,#231));
#56=EDGE_LOOP('',(#232,#233,#234,#235));
#57=EDGE_LOOP('',(#236,#237,#238,#239));
#58=EDGE_LOOP('',(#240));
#59=EDGE_LOOP('',(#241));
#60=EDGE_LOOP('',(#242));
#61=EDGE_LOOP('',(#243));
#62=EDGE_LOOP('',(#244,#245,#246,#247));
#63=EDGE_LOOP('',(#248,#249,#250,#251,#252,#253,#254,#255));
#64=EDGE_LOOP('',(#256,#257,#258,#259));
#65=EDGE_LOOP('',(#260));
#66=EDGE_LOOP('',(#261,#262,#263,#264,#265,#266,#267,#268));
#67=EDGE_LOOP('',(#269,#270,#271,#272));
#68=EDGE_LOOP('',(#273));
#69=EDGE_LOOP('',(#274));
#70=EDGE_LOOP('',(#275));
#71=EDGE_LOOP('',(#276));
#72=EDGE_LOOP('',(#277,#278,#279,#280));
#73=EDGE_LOOP('',(#281,#282,#283,#284));
#74=EDGE_LOOP('',(#285));
#75=LINE('',#440,#104);
#76=LINE('',#446,#105);
#77=LINE('',#452,#106);
#78=LINE('',#458,#107);
#79=LINE('',#464,#108);
#80=LINE('',#469,#109);
#81=LINE('',#471,#110);
#82=LINE('',#473,#111);
#83=LINE('',#474,#112);
#84=LINE('',#477,#113);
#85=LINE('',#479,#114);
#86=LINE('',#480,#115);
#87=LINE('',#484,#116);
#88=LINE('',#486,#117);
#89=LINE('',#488,#118);
#90=LINE('',#489,#119);
#91=LINE('',#492,#120);
#92=LINE('',#494,#121);
#93=LINE('',#495,#122);
#94=LINE('',#497,#123);
#95=LINE('',#499,#124);
#96=LINE('',#501,#125);
#97=LINE('',#502,#126);
#98=LINE('',#505,#127);
#99=LINE('',#507,#128);
#100=LINE('',#508,#129);
#101=LINE('',#510,#130);
#102=LINE('',#511,#131);
#103=LINE('',#512,#132);
#104=VECTOR('',#360,1.6);
#105=VECTOR('',#367,1.6);
#106=VECTOR('',#374,1.6);
#107=VECTOR('',#381,1.6);
#108=VECTOR('',#388,6.);
#109=VECTOR('',#393,10.);
#110=VECTOR('',#394,10.);
#111=VECTOR('',#395,10.);
#112=VECTOR('',#396,10.);
#113=VECTOR('',#399,10.);
#114=VECTOR('',#400,10.);
#115=VECTOR('',#401,10.);
#116=VECTOR('',#404,10.);
#117=VECTOR('',#405,10.);
#118=VECTOR('',#406,10.);
#119=VECTOR('',#407,10.);
#120=VECTOR('',#410,10.);
#121=VECTOR('',#411,10.);
#122=VECTOR('',#412,10.);
#123=VECTOR('',#415,10.);
#124=VECTOR('',#416,10.);
#125=VECTOR('',#417,10.);
#126=VECTOR('',#418,10.);
#127=VECTOR('',#421,10.);
#128=VECTOR('',#422,10.);
#129=VECTOR('',#423,10.);
#130=VECTOR('',#426,10.);
#131=VECTOR('',#427,10.);
#132=VECTOR('',#428,10.);
#133=CIRCLE('',#330,1.6);
#134=CIRCLE('',#331,1.6);
#135=CIRCLE('',#333,1.6);
#136=CIRCLE('',#334,1.6);
#137=CIRCLE('',#336,1.6);
#138=CIRCLE('',#337,1.6);
#139=CIRCLE('',#339,1.6);
#140=CIRCLE('',#340,1.6);
#141=CIRCLE('',#342,6.);
#142=CIRCLE('',#343,6.);
#143=VERTEX_POINT('',#437);
#144=VERTEX_POINT('',#439);
#145=VERTEX_POINT('',#443);
#146=VERTEX_POINT('',#445);
#147=VERTEX_POINT('',#449);
#148=VERTEX_POINT('',#451);
#149=VERTEX_POINT('',#455);
#150=VERTEX_POINT('',#457);
#151=VERTEX_POINT('',#461);
#152=VERTEX_POINT('',#463);
#153=VERTEX_POINT('',#467);
#154=VERTEX_POINT('',#468);
#155=VERTEX_POINT('',#470);
#156=VERTEX_POINT('',#472);
#157=VERTEX_POINT('',#476);
#158=VERTEX_POINT('',#478);
#159=VERTEX_POINT('',#482);
#160=VERTEX_POINT('',#483);
#161=VERTEX_POINT('',#485);
#162=VERTEX_POINT('',#487);
#163=VERTEX_POINT('',#491);
#164=VERTEX_POINT('',#493);
#165=VERTEX_POINT('',#498);
#166=VERTEX_POINT('',#500);
#167=VERTEX_POINT('',#504);
#168=VERTEX_POINT('',#506);
#169=EDGE_CURVE('',#143,#143,#133,.T.);
#170=EDGE_CURVE('',#143,#144,#75,.T.);
#171=EDGE_CURVE('',#144,#144,#134,.T.);
#172=EDGE_CURVE('',#145,#145,#135,.T.);
#173=EDGE_CURVE('',#145,#146,#76,.T.);
#174=EDGE_CURVE('',#146,#146,#136,.T.);
#175=EDGE_CURVE('',#147,#147,#137,.T.);
#176=EDGE_CURVE('',#147,#148,#77,.T.);
#177=EDGE_CURVE('',#148,#148,#138,.T.);
#178=EDGE_CURVE('',#149,#149,#139,.T.);
#179=EDGE_CURVE('',#149,#150,#78,.T.);
#180=EDGE_CURVE('',#150,#150,#140,.T.);
#181=EDGE_CURVE('',#151,#151,#141,.T.);
#182=EDGE_CURVE('',#151,#152,#79,.T.);
#183=EDGE_CURVE('',#152,#152,#142,.T.);
#184=EDGE_CURVE('',#153,#154,#80,.T.);
#185=EDGE_CURVE('',#153,#155,#81,.T.);
#186=EDGE_CURVE('',#156,#155,#82,.T.);
#187=EDGE_CURVE('',#154,#156,#83,.T.);
#188=EDGE_CURVE('',#155,#157,#84,.T.);
#189=EDGE_CURVE('',#157,#158,#85,.T.);
#190=EDGE_CURVE('',#158,#156,#86,.T.);
#191=EDGE_CURVE('',#159,#160,#87,.T.);
#192=EDGE_CURVE('',#159,#161,#88,.T.);
#193=EDGE_CURVE('',#162,#161,#89,.T.);
#194=EDGE_CURVE('',#160,#162,#90,.T.);
#195=EDGE_CURVE('',#161,#163,#91,.T.);
#196=EDGE_CURVE('',#163,#164,#92,.T.);
#197=EDGE_CURVE('',#164,#162,#93,.T.);
#198=EDGE_CURVE('',#160,#153,#94,.T.);
#199=EDGE_CURVE('',#165,#164,#95,.T.);
#200=EDGE_CURVE('',#166,#165,#96,.T.);
#201=EDGE_CURVE('',#166,#157,#97,.T.);
#202=EDGE_CURVE('',#165,#167,#98,.T.);
#203=EDGE_CURVE('',#167,#168,#99,.T.);
#204=EDGE_CURVE('',#168,#166,#100,.T.);
#205=EDGE_CURVE('',#167,#163,#101,.T.);
#206=EDGE_CURVE('',#154,#159,#102,.T.);
#207=EDGE_CURVE('',#168,#158,#103,.T.);
#208=ORIENTED_EDGE('',*,*,#169,.F.);
#209=ORIENTED_EDGE('',*,*,#170,.T.);
#210=ORIENTED_EDGE('',*,*,#171,.F.);
#211=ORIENTED_EDGE('',*,*,#170,.F.);
#212=ORIENTED_EDGE('',*,*,#172,.F.);
#213=ORIENTED_EDGE('',*,*,#173,.T.);
#214=ORIENTED_EDGE('',*,*,#174,.F.);
#215=ORIENTED_EDGE('',*,*,#173,.F.);
#216=ORIENTED_EDGE('',*,*,#175,.F.);
#217=ORIENTED_EDGE('',*,*,#176,.T.);
#218=ORIENTED_EDGE('',*,*,#177,.F.);
#219=ORIENTED_EDGE('',*,*,#176,.F.);
#220=ORIENTED_EDGE('',*,*,#178,.F.);
#221=ORIENTED_EDGE('',*,*,#179,.T.);
#222=ORIENTED_EDGE('',*,*,#180,.F.);
#223=ORIENTED_EDGE('',*,*,#179,.F.);
#224=ORIENTED_EDGE('',*,*,#181,.F.);
#225=ORIENTED_EDGE('',*,*,#182,.T.);
#226=ORIENTED_EDGE('',*,*,#183,.F.);
#227=ORIENTED_EDGE('',*,*,#182,.F.);
#228=ORIENTED_EDGE('',*,*,#184,.F.);
#229=ORIENTED_EDGE('',*,*,#185,.T.);
#230=ORIENTED_EDGE('',*,*,#186,.F.);
#231=ORIENTED_EDGE('',*,*,#187,.F.);
#232=ORIENTED_EDGE('',*,*,#186,.T.);
#233=ORIENTED_EDGE('',*,*,#188,.T.);
#234=ORIENTED_EDGE('',*,*,#189,.T.);
#235=ORIENTED_EDGE('',*,*,#190,.T.);
#236=ORIENTED_EDGE('',*,*,#191,.F.);
#237=ORIENTED_EDGE('',*,*,#192,.T.);
#238=ORIENTED_EDGE('',*,*,#193,.F.);
#239=ORIENTED_EDGE('',*,*,#194,.F.);
#240=ORIENTED_EDGE('',*,*,#169,.T.);
#241=ORIENTED_EDGE('',*,*,#172,.T.);
#242=ORIENTED_EDGE('',*,*,#175,.T.);
#243=ORIENTED_EDGE('',*,*,#178,.T.);
#244=ORIENTED_EDGE('',*,*,#195,.T.);
#245=ORIENTED_EDGE('',*,*,#196,.T.);
#246=ORIENTED_EDGE('',*,*,#197,.T.);
#247=ORIENTED_EDGE('',*,*,#193,.T.);
#248=ORIENTED_EDGE('',*,*,#198,.F.);
#249=ORIENTED_EDGE('',*,*,#194,.T.);
#250=ORIENTED_EDGE('',*,*,#197,.F.);
#251=ORIENTED_EDGE('',*,*,#199,.F.);
#252=ORIENTED_EDGE('',*,*,#200,.F.);
#253=ORIENTED_EDGE('',*,*,#201,.T.);
#254=ORIENTED_EDGE('',*,*,#188,.F.);
#255=ORIENTED_EDGE('',*,*,#185,.F.);
#256=ORIENTED_EDGE('',*,*,#200,.T.);
#257=ORIENTED_EDGE('',*,*,#202,.T.);
#258=ORIENTED_EDGE('',*,*,#203,.T.);
#259=ORIENTED_EDGE('',*,*,#204,.T.);
#260=ORIENTED_EDGE('',*,*,#181,.T.);
#261=ORIENTED_EDGE('',*,*,#203,.F.);
#262=ORIENTED_EDGE('',*,*,#205,.T.);
#263=ORIENTED_EDGE('',*,*,#195,.F.);
#264=ORIENTED_EDGE('',*,*,#192,.F.);
#265=ORIENTED_EDGE('',*,*,#206,.F.);
#266=ORIENTED_EDGE('',*,*,#187,.T.);
#267=ORIENTED_EDGE('',*,*,#190,.F.);
#268=ORIENTED_EDGE('',*,*,#207,.F.);
#269=ORIENTED_EDGE('',*,*,#202,.F.);
#270=ORIENTED_EDGE('',*,*,#199,.T.);
#271=ORIENTED_EDGE('',*,*,#196,.F.);
#272=ORIENTED_EDGE('',*,*,#205,.F.);
#273=ORIENTED_EDGE('',*,*,#171,.T.);
#274=ORIENTED_EDGE('',*,*,#174,.T.);
#275=ORIENTED_EDGE('',*,*,#177,.T.);
#276=ORIENTED_EDGE('',*,*,#180,.T.);
#277=ORIENTED_EDGE('',*,*,#204,.F.);
#278=ORIENTED_EDGE('',*,*,#207,.T.);
#279=ORIENTED_EDGE('',*,*,#189,.F.);
#280=ORIENTED_EDGE('',*,*,#201,.F.);
#281=ORIENTED_EDGE('',*,*,#184,.T.);
#282=ORIENTED_EDGE('',*,*,#206,.T.);
#283=ORIENTED_EDGE('',*,*,#191,.T.);
#284=ORIENTED_EDGE('',*,*,#198,.T.);
#285=ORIENTED_EDGE('',*,*,#183,.T.);
#286=CYLINDRICAL_SURFACE('',#329,1.6);
#287=CYLINDRICAL_SURFACE('',#332,1.6);
#288=CYLINDRICAL_SURFACE('',#335,1.6);
#289=CYLINDRICAL_SURFACE('',#338,1.6);
#290=CYLINDRICAL_SURFACE('',#341,6.);
#291=ADVANCED_FACE('',(#35),#286,.F.);
#292=ADVANCED_FACE('',(#36),#287,.F.);
#293=ADVANCED_FACE('',(#37),#288,.F.);
#294=ADVANCED_FACE('',(#38),#289,.F.);
#295=ADVANCED_FACE('',(#39),#290,.F.);
#296=ADVANCED_FACE('',(#40),#25,.T.);
#297=ADVANCED_FACE('',(#41),#26,.T.);
#298=ADVANCED_FACE('',(#42,#15,#16,#17,#18),#27,.T.);
#299=ADVANCED_FACE('',(#43),#28,.T.);
#300=ADVANCED_FACE('',(#44),#29,.T.);
#301=ADVANCED_FACE('',(#45,#19),#30,.T.);
#302=ADVANCED_FACE('',(#46),#31,.T.);
#303=ADVANCED_FACE('',(#47,#20,#21,#22,#23),#32,.T.);
#304=ADVANCED_FACE('',(#48),#33,.T.);
#305=ADVANCED_FACE('',(#49,#24),#34,.T.);
#306=CLOSED_SHELL('',(#291,#292,#293,#294,#295,#296,#297,#298,#299,#300,
#301,#302,#303,#304,#305));
#307=DERIVED_UNIT_ELEMENT(#310,1.);
#308=DERIVED_UNIT_ELEMENT(#521,-3.);
#309=DIMENSIONAL_EXPONENTS(0.,1.,0.,0.,0.,0.,0.);
#310=(
CONVERSION_BASED_UNIT('gram',#312)
MASS_UNIT()
NAMED_UNIT(#309)
);
#311=(
MASS_UNIT()
NAMED_UNIT(*)
SI_UNIT(.KILO.,.GRAM.)
);
#312=MASS_MEASURE_WITH_UNIT(MASS_MEASURE(0.001),#311);
#313=DERIVED_UNIT((#307,#308));
#314=MEASURE_REPRESENTATION_ITEM('density measure',
POSITIVE_RATIO_MEASURE(1.),#313);
#315=PROPERTY_DEFINITION_REPRESENTATION(#320,#317);
#316=PROPERTY_DEFINITION_REPRESENTATION(#321,#318);
#317=REPRESENTATION('material name',(#319),#518);
#318=REPRESENTATION('density',(#314),#518);
#319=DESCRIPTIVE_REPRESENTATION_ITEM('\X2\4E00822C\X0\','\X2\4E00822C\X0\');
#320=PROPERTY_DEFINITION('material property','material name',#528);
#321=PROPERTY_DEFINITION('material property','density of part',#528);
#322=DATE_TIME_ROLE('creation_date');
#323=APPLIED_DATE_AND_TIME_ASSIGNMENT(#324,#322,(#528));
#324=DATE_AND_TIME(#325,#326);
#325=CALENDAR_DATE(2026,6,5);
#326=LOCAL_TIME(0,0,0.,#327);
#327=COORDINATED_UNIVERSAL_TIME_OFFSET(0,0,.BEHIND.);
#328=AXIS2_PLACEMENT_3D('',#435,#354,#355);
#329=AXIS2_PLACEMENT_3D('',#436,#356,#357);
#330=AXIS2_PLACEMENT_3D('',#438,#358,#359);
#331=AXIS2_PLACEMENT_3D('',#441,#361,#362);
#332=AXIS2_PLACEMENT_3D('',#442,#363,#364);
#333=AXIS2_PLACEMENT_3D('',#444,#365,#366);
#334=AXIS2_PLACEMENT_3D('',#447,#368,#369);
#335=AXIS2_PLACEMENT_3D('',#448,#370,#371);
#336=AXIS2_PLACEMENT_3D('',#450,#372,#373);
#337=AXIS2_PLACEMENT_3D('',#453,#375,#376);
#338=AXIS2_PLACEMENT_3D('',#454,#377,#378);
#339=AXIS2_PLACEMENT_3D('',#456,#379,#380);
#340=AXIS2_PLACEMENT_3D('',#459,#382,#383);
#341=AXIS2_PLACEMENT_3D('',#460,#384,#385);
#342=AXIS2_PLACEMENT_3D('',#462,#386,#387);
#343=AXIS2_PLACEMENT_3D('',#465,#389,#390);
#344=AXIS2_PLACEMENT_3D('',#466,#391,#392);
#345=AXIS2_PLACEMENT_3D('',#475,#397,#398);
#346=AXIS2_PLACEMENT_3D('',#481,#402,#403);
#347=AXIS2_PLACEMENT_3D('',#490,#408,#409);
#348=AXIS2_PLACEMENT_3D('',#496,#413,#414);
#349=AXIS2_PLACEMENT_3D('',#503,#419,#420);
#350=AXIS2_PLACEMENT_3D('',#509,#424,#425);
#351=AXIS2_PLACEMENT_3D('',#513,#429,#430);
#352=AXIS2_PLACEMENT_3D('',#514,#431,#432);
#353=AXIS2_PLACEMENT_3D('',#515,#433,#434);
#354=DIRECTION('axis',(0.,0.,1.));
#355=DIRECTION('refdir',(1.,0.,0.));
#356=DIRECTION('center_axis',(-4.23637733080652E-16,1.,0.));
#357=DIRECTION('ref_axis',(1.,4.23637733080652E-16,0.));
#358=DIRECTION('center_axis',(4.23637733080652E-16,-1.,0.));
#359=DIRECTION('ref_axis',(1.,4.23637733080652E-16,0.));
#360=DIRECTION('',(4.23637733080652E-16,-1.,0.));
#361=DIRECTION('center_axis',(0.,1.,0.));
#362=DIRECTION('ref_axis',(1.,4.23637733080652E-16,0.));
#363=DIRECTION('center_axis',(-4.23637733080652E-16,1.,0.));
#364=DIRECTION('ref_axis',(1.,4.23637733080652E-16,0.));
#365=DIRECTION('center_axis',(4.23637733080652E-16,-1.,0.));
#366=DIRECTION('ref_axis',(1.,4.23637733080652E-16,0.));
#367=DIRECTION('',(4.23637733080652E-16,-1.,0.));
#368=DIRECTION('center_axis',(0.,1.,0.));
#369=DIRECTION('ref_axis',(1.,4.23637733080652E-16,0.));
#370=DIRECTION('center_axis',(-4.23637733080652E-16,1.,0.));
#371=DIRECTION('ref_axis',(1.,4.23637733080652E-16,0.));
#372=DIRECTION('center_axis',(4.23637733080652E-16,-1.,0.));
#373=DIRECTION('ref_axis',(1.,4.23637733080652E-16,0.));
#374=DIRECTION('',(4.23637733080652E-16,-1.,0.));
#375=DIRECTION('center_axis',(0.,1.,0.));
#376=DIRECTION('ref_axis',(1.,4.23637733080652E-16,0.));
#377=DIRECTION('center_axis',(-4.23637733080652E-16,1.,0.));
#378=DIRECTION('ref_axis',(1.,4.23637733080652E-16,0.));
#379=DIRECTION('center_axis',(4.23637733080652E-16,-1.,0.));
#380=DIRECTION('ref_axis',(1.,4.23637733080652E-16,0.));
#381=DIRECTION('',(4.23637733080652E-16,-1.,0.));
#382=DIRECTION('center_axis',(0.,1.,0.));
#383=DIRECTION('ref_axis',(1.,4.23637733080652E-16,0.));
#384=DIRECTION('center_axis',(0.,0.,1.));
#385=DIRECTION('ref_axis',(1.,0.,0.));
#386=DIRECTION('center_axis',(0.,0.,-1.));
#387=DIRECTION('ref_axis',(1.,0.,0.));
#388=DIRECTION('',(0.,0.,-1.));
#389=DIRECTION('center_axis',(0.,0.,1.));
#390=DIRECTION('ref_axis',(1.,0.,0.));
#391=DIRECTION('center_axis',(0.,-1.,0.));
#392=DIRECTION('ref_axis',(-1.,0.,0.));
#393=DIRECTION('',(1.,0.,0.));
#394=DIRECTION('',(0.,0.,-1.));
#395=DIRECTION('',(-1.,0.,0.));
#396=DIRECTION('',(0.,0.,-1.));
#397=DIRECTION('center_axis',(0.,0.,-1.));
#398=DIRECTION('ref_axis',(-1.,0.,0.));
#399=DIRECTION('',(-3.70074341541719E-16,1.,0.));
#400=DIRECTION('',(1.,0.,0.));
#401=DIRECTION('',(0.,-1.,0.));
#402=DIRECTION('center_axis',(-4.23637733080652E-16,1.,0.));
#403=DIRECTION('ref_axis',(1.,4.23637733080652E-16,0.));
#404=DIRECTION('',(-1.,-4.23637733080652E-16,0.));
#405=DIRECTION('',(0.,0.,-1.));
#406=DIRECTION('',(1.,4.23637733080652E-16,0.));
#407=DIRECTION('',(0.,0.,-1.));
#408=DIRECTION('center_axis',(0.,0.,-1.));
#409=DIRECTION('ref_axis',(-1.,0.,0.));
#410=DIRECTION('',(5.55111512312578E-16,-1.,0.));
#411=DIRECTION('',(-1.,0.,0.));
#412=DIRECTION('',(-3.06161699786838E-16,1.,0.));
#413=DIRECTION('center_axis',(-1.,-3.06161699786838E-16,0.));
#414=DIRECTION('ref_axis',(-3.06161699786838E-16,1.,0.));
#415=DIRECTION('',(-3.06161699786838E-16,1.,0.));
#416=DIRECTION('',(0.,0.,-1.));
#417=DIRECTION('',(3.06161699786838E-16,-1.,0.));
#418=DIRECTION('',(0.,0.,-1.));
#419=DIRECTION('center_axis',(0.,0.,1.));
#420=DIRECTION('ref_axis',(1.,0.,0.));
#421=DIRECTION('',(1.,0.,0.));
#422=DIRECTION('',(0.,1.,0.));
#423=DIRECTION('',(-1.,0.,0.));
#424=DIRECTION('center_axis',(1.,0.,0.));
#425=DIRECTION('ref_axis',(0.,-1.,0.));
#426=DIRECTION('',(0.,0.,-1.));
#427=DIRECTION('',(0.,-1.,0.));
#428=DIRECTION('',(0.,0.,-1.));
#429=DIRECTION('center_axis',(0.,-1.,0.));
#430=DIRECTION('ref_axis',(-1.,0.,0.));
#431=DIRECTION('center_axis',(0.,1.,0.));
#432=DIRECTION('ref_axis',(1.,0.,0.));
#433=DIRECTION('center_axis',(0.,0.,-1.));
#434=DIRECTION('ref_axis',(-1.,0.,0.));
#435=CARTESIAN_POINT('',(0.,0.,0.));
#436=CARTESIAN_POINT('Origin',(3.15306931716171,-0.0500000000000034,-34.3811656943278));
#437=CARTESIAN_POINT('',(1.55306931716171,4.,-34.3811656943278));
#438=CARTESIAN_POINT('Origin',(3.15306931716171,4.,-34.3811656943278));
#439=CARTESIAN_POINT('',(1.55306931716171,-1.54403171534917E-14,-34.3811656943278));
#440=CARTESIAN_POINT('',(1.55306931716171,-0.0500000000000041,-34.3811656943278));
#441=CARTESIAN_POINT('Origin',(3.15306931716171,-1.47624967805626E-14,-34.3811656943278));
#442=CARTESIAN_POINT('Origin',(35.1530693171617,-0.0499999999999895,-34.3811656943278));
#443=CARTESIAN_POINT('',(33.5530693171617,4.00000000000001,-34.3811656943278));
#444=CARTESIAN_POINT('Origin',(35.1530693171617,4.00000000000001,-34.3811656943278));
#445=CARTESIAN_POINT('',(33.5530693171617,-1.88345318873292E-15,-34.3811656943278));
#446=CARTESIAN_POINT('',(33.5530693171617,-0.0499999999999902,-34.3811656943278));
#447=CARTESIAN_POINT('Origin',(35.1530693171617,-1.20563281580388E-15,-34.3811656943278));
#448=CARTESIAN_POINT('Origin',(35.1530693171617,-0.0499999999999895,-8.38116569432782));
#449=CARTESIAN_POINT('',(33.5530693171617,4.00000000000001,-8.38116569432782));
#450=CARTESIAN_POINT('Origin',(35.1530693171617,4.00000000000001,-8.38116569432782));
#451=CARTESIAN_POINT('',(33.5530693171617,-1.88345318873292E-15,-8.38116569432782));
#452=CARTESIAN_POINT('',(33.5530693171617,-0.0499999999999902,-8.38116569432782));
#453=CARTESIAN_POINT('Origin',(35.1530693171617,-1.20563281580388E-15,-8.38116569432782));
#454=CARTESIAN_POINT('Origin',(3.15306931716171,-0.0500000000000034,-8.38116569432782));
#455=CARTESIAN_POINT('',(1.55306931716171,4.,-8.38116569432782));
#456=CARTESIAN_POINT('Origin',(3.15306931716171,4.,-8.38116569432782));
#457=CARTESIAN_POINT('',(1.55306931716171,-1.54403171534917E-14,-8.38116569432782));
#458=CARTESIAN_POINT('',(1.55306931716171,-0.0500000000000041,-8.38116569432782));
#459=CARTESIAN_POINT('Origin',(3.15306931716171,-1.47624967805626E-14,-8.38116569432782));
#460=CARTESIAN_POINT('Origin',(19.,18.,-4.05));
#461=CARTESIAN_POINT('',(13.,18.,0.));
#462=CARTESIAN_POINT('Origin',(19.,18.,0.));
#463=CARTESIAN_POINT('',(13.,18.,-6.));
#464=CARTESIAN_POINT('',(13.,18.,-4.05));
#465=CARTESIAN_POINT('Origin',(19.,18.,-6.));
#466=CARTESIAN_POINT('Origin',(38.,44.,0.));
#467=CARTESIAN_POINT('',(-1.33226762955019E-14,44.,-6.));
#468=CARTESIAN_POINT('',(38.,44.,-6.));
#469=CARTESIAN_POINT('',(28.5,44.,-6.));
#470=CARTESIAN_POINT('',(-1.33226762955019E-14,44.,-50.));
#471=CARTESIAN_POINT('',(-1.33226762955019E-14,44.,0.));
#472=CARTESIAN_POINT('',(38.,44.,-50.));
#473=CARTESIAN_POINT('',(-1.33226762955019E-14,44.,-50.));
#474=CARTESIAN_POINT('',(38.,44.,0.));
#475=CARTESIAN_POINT('Origin',(19.,47.,-50.));
#476=CARTESIAN_POINT('',(-1.55431223447522E-14,50.,-50.));
#477=CARTESIAN_POINT('',(-1.55431223447522E-14,50.,-50.));
#478=CARTESIAN_POINT('',(38.,50.,-50.));
#479=CARTESIAN_POINT('',(38.,50.,-50.));
#480=CARTESIAN_POINT('',(38.,44.,-50.));
#481=CARTESIAN_POINT('Origin',(0.,4.,0.));
#482=CARTESIAN_POINT('',(38.,4.00000000000001,-6.));
#483=CARTESIAN_POINT('',(-1.22464679914735E-15,3.99999999999999,-6.));
#484=CARTESIAN_POINT('',(9.5,4.,-6.));
#485=CARTESIAN_POINT('',(38.,4.00000000000001,-50.));
#486=CARTESIAN_POINT('',(38.,4.00000000000001,0.));
#487=CARTESIAN_POINT('',(0.,4.,-50.));
#488=CARTESIAN_POINT('',(38.,4.00000000000001,-50.));
#489=CARTESIAN_POINT('',(-1.22464679914735E-15,4.,0.));
#490=CARTESIAN_POINT('Origin',(19.,2.00000000000001,-50.));
#491=CARTESIAN_POINT('',(38.,0.,-50.));
#492=CARTESIAN_POINT('',(38.,0.,-50.));
#493=CARTESIAN_POINT('',(0.,0.,-50.));
#494=CARTESIAN_POINT('',(0.,0.,-50.));
#495=CARTESIAN_POINT('',(-7.34788079488412E-15,24.,-50.));
#496=CARTESIAN_POINT('Origin',(9.86076131526265E-31,0.,0.));
#497=CARTESIAN_POINT('',(-7.34788079488412E-15,24.,-6.));
#498=CARTESIAN_POINT('',(0.,0.,0.));
#499=CARTESIAN_POINT('',(0.,0.,0.));
#500=CARTESIAN_POINT('',(-1.55431223447522E-14,50.,0.));
#501=CARTESIAN_POINT('',(-7.34788079488412E-15,24.,0.));
#502=CARTESIAN_POINT('',(-1.55431223447522E-14,50.,0.));
#503=CARTESIAN_POINT('Origin',(19.,12.,0.));
#504=CARTESIAN_POINT('',(38.,0.,0.));
#505=CARTESIAN_POINT('',(0.,0.,0.));
#506=CARTESIAN_POINT('',(38.,50.,0.));
#507=CARTESIAN_POINT('',(38.,44.,0.));
#508=CARTESIAN_POINT('',(38.,50.,0.));
#509=CARTESIAN_POINT('Origin',(38.,50.,0.));
#510=CARTESIAN_POINT('',(38.,0.,0.));
#511=CARTESIAN_POINT('',(38.,44.,-6.));
#512=CARTESIAN_POINT('',(38.,50.,0.));
#513=CARTESIAN_POINT('Origin',(38.,0.,0.));
#514=CARTESIAN_POINT('Origin',(-1.77635683940025E-14,50.,0.));
#515=CARTESIAN_POINT('Origin',(19.,12.,-6.));
#516=UNCERTAINTY_MEASURE_WITH_UNIT(LENGTH_MEASURE(0.01),#520,
'DISTANCE_ACCURACY_VALUE',
'Maximum model space distance between geometric entities at asserted c
onnectivities');
#517=UNCERTAINTY_MEASURE_WITH_UNIT(LENGTH_MEASURE(0.01),#520,
'DISTANCE_ACCURACY_VALUE',
'Maximum model space distance between geometric entities at asserted c
onnectivities');
#518=(
GEOMETRIC_REPRESENTATION_CONTEXT(3)
GLOBAL_UNCERTAINTY_ASSIGNED_CONTEXT((#516))
GLOBAL_UNIT_ASSIGNED_CONTEXT((#520,#522,#523))
REPRESENTATION_CONTEXT('','3D')
);
#519=(
GEOMETRIC_REPRESENTATION_CONTEXT(3)
GLOBAL_UNCERTAINTY_ASSIGNED_CONTEXT((#517))
GLOBAL_UNIT_ASSIGNED_CONTEXT((#520,#522,#523))
REPRESENTATION_CONTEXT('','3D')
);
#520=(
LENGTH_UNIT()
NAMED_UNIT(*)
SI_UNIT(.MILLI.,.METRE.)
);
#521=(
LENGTH_UNIT()
NAMED_UNIT(*)
SI_UNIT(.CENTI.,.METRE.)
);
#522=(
NAMED_UNIT(*)
PLANE_ANGLE_UNIT()
SI_UNIT($,.RADIAN.)
);
#523=(
NAMED_UNIT(*)
SI_UNIT($,.STERADIAN.)
SOLID_ANGLE_UNIT()
);
#524=SHAPE_DEFINITION_REPRESENTATION(#525,#526);
#525=PRODUCT_DEFINITION_SHAPE('',$,#528);
#526=SHAPE_REPRESENTATION('',(#328),#518);
#527=PRODUCT_DEFINITION_CONTEXT('part definition',#532,'design');
#528=PRODUCT_DEFINITION('\X2\30AE30A230DC30C330AF30B9\X0\2',
'\X2\30AE30A230DC30C330AF30B9\X0\2',#529,#527);
#529=PRODUCT_DEFINITION_FORMATION('',$,#534);
#530=PRODUCT_RELATED_PRODUCT_CATEGORY('\X2\30AE30A230DC30C330AF30B9\X0\2',
'\X2\30AE30A230DC30C330AF30B9\X0\2',(#534));
#531=APPLICATION_PROTOCOL_DEFINITION('international standard',
'automotive_design',2009,#532);
#532=APPLICATION_CONTEXT(
'Core Data for Automotive Mechanical Design Process');
#533=PRODUCT_CONTEXT('part definition',#532,'mechanical');
#534=PRODUCT('\X2\30AE30A230DC30C330AF30B9\X0\2','\X2\30AE30A230DC30C330AF30B9\X0\2',
$,(#533));
#535=PRESENTATION_STYLE_ASSIGNMENT((#536));
#536=SURFACE_STYLE_USAGE(.BOTH.,#539);
#537=SURFACE_STYLE_RENDERING_WITH_PROPERTIES($,#543,(#538));
#538=SURFACE_STYLE_TRANSPARENT(0.);
#539=SURFACE_SIDE_STYLE('',(#540,#537));
#540=SURFACE_STYLE_FILL_AREA(#541);
#541=FILL_AREA_STYLE('',(#542));
#542=FILL_AREA_STYLE_COLOUR('',#543);
#543=COLOUR_RGB('',0.749019607843137,0.749019607843137,0.749019607843137);
ENDSEC;
END-ISO-10303-21;
