ISO-10303-21;
HEADER;
/* Generated by software containing ST-Developer
 * from STEP Tools, Inc. (www.steptools.com) 
 */

FILE_DESCRIPTION(
/* description */ (''),
/* implementation_level */ '2;1');

FILE_NAME(
/* name */ '',
/* time_stamp */ '2026-05-27T15:59:27+09:00',
/* author */ ('Yagis'),
/* organization */ (''),
/* preprocessor_version */ 'ST-DEVELOPER v20.1',
/* originating_system */ 'Autodesk Inventor 2026',
/* authorisation */ '');

FILE_SCHEMA (('AUTOMOTIVE_DESIGN { 1 0 10303 214 3 1 1 }'));
ENDSEC;

DATA;
#10=MECHANICAL_DESIGN_GEOMETRIC_PRESENTATION_REPRESENTATION('',(#13),#854);
#11=SHAPE_REPRESENTATION_RELATIONSHIP('SRR','None',#861,#12);
#12=ADVANCED_BREP_SHAPE_REPRESENTATION('',(#14),#853);
#13=STYLED_ITEM('',(#870),#14);
#14=MANIFOLD_SOLID_BREP('\X2\30BD30EA30C330C9\X0\1',#505);
#15=FACE_BOUND('',#84,.T.);
#16=FACE_BOUND('',#85,.T.);
#17=FACE_BOUND('',#86,.T.);
#18=FACE_BOUND('',#87,.T.);
#19=FACE_BOUND('',#93,.T.);
#20=FACE_BOUND('',#94,.T.);
#21=FACE_BOUND('',#95,.T.);
#22=FACE_BOUND('',#96,.T.);
#23=FACE_BOUND('',#97,.T.);
#24=FACE_BOUND('',#98,.T.);
#25=FACE_BOUND('',#99,.T.);
#26=FACE_BOUND('',#107,.T.);
#27=FACE_BOUND('',#108,.T.);
#28=FACE_BOUND('',#109,.T.);
#29=FACE_BOUND('',#110,.T.);
#30=FACE_BOUND('',#112,.T.);
#31=FACE_BOUND('',#113,.T.);
#32=FACE_BOUND('',#114,.T.);
#33=FACE_BOUND('',#115,.T.);
#34=FACE_BOUND('',#116,.T.);
#35=FACE_BOUND('',#117,.T.);
#36=FACE_BOUND('',#118,.T.);
#37=PLANE('',#558);
#38=PLANE('',#559);
#39=PLANE('',#560);
#40=PLANE('',#561);
#41=PLANE('',#562);
#42=PLANE('',#563);
#43=PLANE('',#566);
#44=PLANE('',#569);
#45=PLANE('',#572);
#46=PLANE('',#573);
#47=PLANE('',#574);
#48=PLANE('',#575);
#49=FACE_OUTER_BOUND('',#73,.T.);
#50=FACE_OUTER_BOUND('',#74,.T.);
#51=FACE_OUTER_BOUND('',#75,.T.);
#52=FACE_OUTER_BOUND('',#76,.T.);
#53=FACE_OUTER_BOUND('',#77,.T.);
#54=FACE_OUTER_BOUND('',#78,.T.);
#55=FACE_OUTER_BOUND('',#79,.T.);
#56=FACE_OUTER_BOUND('',#80,.T.);
#57=FACE_OUTER_BOUND('',#81,.T.);
#58=FACE_OUTER_BOUND('',#82,.T.);
#59=FACE_OUTER_BOUND('',#83,.T.);
#60=FACE_OUTER_BOUND('',#88,.T.);
#61=FACE_OUTER_BOUND('',#89,.T.);
#62=FACE_OUTER_BOUND('',#90,.T.);
#63=FACE_OUTER_BOUND('',#91,.T.);
#64=FACE_OUTER_BOUND('',#92,.T.);
#65=FACE_OUTER_BOUND('',#100,.T.);
#66=FACE_OUTER_BOUND('',#101,.T.);
#67=FACE_OUTER_BOUND('',#102,.T.);
#68=FACE_OUTER_BOUND('',#103,.T.);
#69=FACE_OUTER_BOUND('',#104,.T.);
#70=FACE_OUTER_BOUND('',#105,.T.);
#71=FACE_OUTER_BOUND('',#106,.T.);
#72=FACE_OUTER_BOUND('',#111,.T.);
#73=EDGE_LOOP('',(#337,#338,#339,#340));
#74=EDGE_LOOP('',(#341,#342,#343,#344));
#75=EDGE_LOOP('',(#345,#346,#347,#348));
#76=EDGE_LOOP('',(#349,#350,#351,#352));
#77=EDGE_LOOP('',(#353,#354,#355,#356));
#78=EDGE_LOOP('',(#357,#358,#359,#360));
#79=EDGE_LOOP('',(#361,#362,#363,#364));
#80=EDGE_LOOP('',(#365,#366,#367,#368));
#81=EDGE_LOOP('',(#369,#370,#371,#372));
#82=EDGE_LOOP('',(#373,#374,#375,#376));
#83=EDGE_LOOP('',(#377,#378,#379,#380));
#84=EDGE_LOOP('',(#381));
#85=EDGE_LOOP('',(#382));
#86=EDGE_LOOP('',(#383));
#87=EDGE_LOOP('',(#384));
#88=EDGE_LOOP('',(#385,#386,#387,#388));
#89=EDGE_LOOP('',(#389,#390,#391,#392));
#90=EDGE_LOOP('',(#393,#394,#395,#396));
#91=EDGE_LOOP('',(#397,#398,#399,#400,#401,#402,#403,#404));
#92=EDGE_LOOP('',(#405,#406,#407,#408));
#93=EDGE_LOOP('',(#409));
#94=EDGE_LOOP('',(#410));
#95=EDGE_LOOP('',(#411));
#96=EDGE_LOOP('',(#412));
#97=EDGE_LOOP('',(#413));
#98=EDGE_LOOP('',(#414));
#99=EDGE_LOOP('',(#415,#416,#417,#418));
#100=EDGE_LOOP('',(#419,#420,#421,#422,#423,#424,#425,#426));
#101=EDGE_LOOP('',(#427,#428,#429,#430));
#102=EDGE_LOOP('',(#431,#432,#433,#434));
#103=EDGE_LOOP('',(#435,#436,#437,#438));
#104=EDGE_LOOP('',(#439,#440,#441,#442));
#105=EDGE_LOOP('',(#443,#444,#445,#446));
#106=EDGE_LOOP('',(#447,#448,#449,#450));
#107=EDGE_LOOP('',(#451));
#108=EDGE_LOOP('',(#452));
#109=EDGE_LOOP('',(#453));
#110=EDGE_LOOP('',(#454));
#111=EDGE_LOOP('',(#455,#456,#457,#458));
#112=EDGE_LOOP('',(#459));
#113=EDGE_LOOP('',(#460));
#114=EDGE_LOOP('',(#461));
#115=EDGE_LOOP('',(#462));
#116=EDGE_LOOP('',(#463));
#117=EDGE_LOOP('',(#464));
#118=EDGE_LOOP('',(#465,#466,#467,#468));
#119=LINE('',#721,#161);
#120=LINE('',#727,#162);
#121=LINE('',#733,#163);
#122=LINE('',#739,#164);
#123=LINE('',#745,#165);
#124=LINE('',#751,#166);
#125=LINE('',#757,#167);
#126=LINE('',#763,#168);
#127=LINE('',#769,#169);
#128=LINE('',#775,#170);
#129=LINE('',#780,#171);
#130=LINE('',#782,#172);
#131=LINE('',#784,#173);
#132=LINE('',#785,#174);
#133=LINE('',#788,#175);
#134=LINE('',#790,#176);
#135=LINE('',#791,#177);
#136=LINE('',#795,#178);
#137=LINE('',#797,#179);
#138=LINE('',#799,#180);
#139=LINE('',#800,#181);
#140=LINE('',#803,#182);
#141=LINE('',#805,#183);
#142=LINE('',#806,#184);
#143=LINE('',#808,#185);
#144=LINE('',#810,#186);
#145=LINE('',#812,#187);
#146=LINE('',#813,#188);
#147=LINE('',#816,#189);
#148=LINE('',#818,#190);
#149=LINE('',#819,#191);
#150=LINE('',#822,#192);
#151=LINE('',#826,#193);
#152=LINE('',#829,#194);
#153=LINE('',#830,#195);
#154=LINE('',#831,#196);
#155=LINE('',#834,#197);
#156=LINE('',#837,#198);
#157=LINE('',#840,#199);
#158=LINE('',#841,#200);
#159=LINE('',#845,#201);
#160=LINE('',#847,#202);
#161=VECTOR('',#582,1.6);
#162=VECTOR('',#589,1.6);
#163=VECTOR('',#596,1.6);
#164=VECTOR('',#603,1.6);
#165=VECTOR('',#610,1.65);
#166=VECTOR('',#617,1.65);
#167=VECTOR('',#624,1.65);
#168=VECTOR('',#631,1.65);
#169=VECTOR('',#638,1.65);
#170=VECTOR('',#645,1.65);
#171=VECTOR('',#650,10.);
#172=VECTOR('',#651,10.);
#173=VECTOR('',#652,10.);
#174=VECTOR('',#653,10.);
#175=VECTOR('',#656,10.);
#176=VECTOR('',#657,10.);
#177=VECTOR('',#658,10.);
#178=VECTOR('',#661,10.);
#179=VECTOR('',#662,10.);
#180=VECTOR('',#663,10.);
#181=VECTOR('',#664,10.);
#182=VECTOR('',#667,10.);
#183=VECTOR('',#668,10.);
#184=VECTOR('',#669,10.);
#185=VECTOR('',#672,10.);
#186=VECTOR('',#673,10.);
#187=VECTOR('',#674,10.);
#188=VECTOR('',#675,10.);
#189=VECTOR('',#678,10.);
#190=VECTOR('',#679,10.);
#191=VECTOR('',#680,10.);
#192=VECTOR('',#681,10.);
#193=VECTOR('',#684,10.);
#194=VECTOR('',#689,10.);
#195=VECTOR('',#690,10.);
#196=VECTOR('',#691,10.);
#197=VECTOR('',#694,10.);
#198=VECTOR('',#697,10.);
#199=VECTOR('',#700,10.);
#200=VECTOR('',#701,10.);
#201=VECTOR('',#706,10.);
#202=VECTOR('',#709,10.);
#203=CIRCLE('',#529,1.6);
#204=CIRCLE('',#530,1.6);
#205=CIRCLE('',#532,1.6);
#206=CIRCLE('',#533,1.6);
#207=CIRCLE('',#535,1.6);
#208=CIRCLE('',#536,1.6);
#209=CIRCLE('',#538,1.6);
#210=CIRCLE('',#539,1.6);
#211=CIRCLE('',#541,1.65);
#212=CIRCLE('',#542,1.65);
#213=CIRCLE('',#544,1.65);
#214=CIRCLE('',#545,1.65);
#215=CIRCLE('',#547,1.65);
#216=CIRCLE('',#548,1.65);
#217=CIRCLE('',#550,1.65);
#218=CIRCLE('',#551,1.65);
#219=CIRCLE('',#553,1.65);
#220=CIRCLE('',#554,1.65);
#221=CIRCLE('',#556,1.65);
#222=CIRCLE('',#557,1.65);
#223=CIRCLE('',#564,6.6);
#224=CIRCLE('',#565,6.6);
#225=CIRCLE('',#568,6.6);
#226=CIRCLE('',#571,6.6);
#227=VERTEX_POINT('',#718);
#228=VERTEX_POINT('',#720);
#229=VERTEX_POINT('',#724);
#230=VERTEX_POINT('',#726);
#231=VERTEX_POINT('',#730);
#232=VERTEX_POINT('',#732);
#233=VERTEX_POINT('',#736);
#234=VERTEX_POINT('',#738);
#235=VERTEX_POINT('',#742);
#236=VERTEX_POINT('',#744);
#237=VERTEX_POINT('',#748);
#238=VERTEX_POINT('',#750);
#239=VERTEX_POINT('',#754);
#240=VERTEX_POINT('',#756);
#241=VERTEX_POINT('',#760);
#242=VERTEX_POINT('',#762);
#243=VERTEX_POINT('',#766);
#244=VERTEX_POINT('',#768);
#245=VERTEX_POINT('',#772);
#246=VERTEX_POINT('',#774);
#247=VERTEX_POINT('',#778);
#248=VERTEX_POINT('',#779);
#249=VERTEX_POINT('',#781);
#250=VERTEX_POINT('',#783);
#251=VERTEX_POINT('',#787);
#252=VERTEX_POINT('',#789);
#253=VERTEX_POINT('',#793);
#254=VERTEX_POINT('',#794);
#255=VERTEX_POINT('',#796);
#256=VERTEX_POINT('',#798);
#257=VERTEX_POINT('',#802);
#258=VERTEX_POINT('',#804);
#259=VERTEX_POINT('',#809);
#260=VERTEX_POINT('',#811);
#261=VERTEX_POINT('',#815);
#262=VERTEX_POINT('',#817);
#263=VERTEX_POINT('',#820);
#264=VERTEX_POINT('',#821);
#265=VERTEX_POINT('',#823);
#266=VERTEX_POINT('',#825);
#267=VERTEX_POINT('',#833);
#268=VERTEX_POINT('',#835);
#269=VERTEX_POINT('',#839);
#270=VERTEX_POINT('',#843);
#271=EDGE_CURVE('',#227,#227,#203,.T.);
#272=EDGE_CURVE('',#227,#228,#119,.T.);
#273=EDGE_CURVE('',#228,#228,#204,.T.);
#274=EDGE_CURVE('',#229,#229,#205,.T.);
#275=EDGE_CURVE('',#229,#230,#120,.T.);
#276=EDGE_CURVE('',#230,#230,#206,.T.);
#277=EDGE_CURVE('',#231,#231,#207,.T.);
#278=EDGE_CURVE('',#231,#232,#121,.T.);
#279=EDGE_CURVE('',#232,#232,#208,.T.);
#280=EDGE_CURVE('',#233,#233,#209,.T.);
#281=EDGE_CURVE('',#233,#234,#122,.T.);
#282=EDGE_CURVE('',#234,#234,#210,.T.);
#283=EDGE_CURVE('',#235,#235,#211,.T.);
#284=EDGE_CURVE('',#235,#236,#123,.T.);
#285=EDGE_CURVE('',#236,#236,#212,.T.);
#286=EDGE_CURVE('',#237,#237,#213,.T.);
#287=EDGE_CURVE('',#237,#238,#124,.T.);
#288=EDGE_CURVE('',#238,#238,#214,.T.);
#289=EDGE_CURVE('',#239,#239,#215,.T.);
#290=EDGE_CURVE('',#239,#240,#125,.T.);
#291=EDGE_CURVE('',#240,#240,#216,.T.);
#292=EDGE_CURVE('',#241,#241,#217,.T.);
#293=EDGE_CURVE('',#241,#242,#126,.T.);
#294=EDGE_CURVE('',#242,#242,#218,.T.);
#295=EDGE_CURVE('',#243,#243,#219,.T.);
#296=EDGE_CURVE('',#243,#244,#127,.T.);
#297=EDGE_CURVE('',#244,#244,#220,.T.);
#298=EDGE_CURVE('',#245,#245,#221,.T.);
#299=EDGE_CURVE('',#245,#246,#128,.T.);
#300=EDGE_CURVE('',#246,#246,#222,.T.);
#301=EDGE_CURVE('',#247,#248,#129,.T.);
#302=EDGE_CURVE('',#247,#249,#130,.T.);
#303=EDGE_CURVE('',#250,#249,#131,.T.);
#304=EDGE_CURVE('',#248,#250,#132,.T.);
#305=EDGE_CURVE('',#249,#251,#133,.T.);
#306=EDGE_CURVE('',#251,#252,#134,.T.);
#307=EDGE_CURVE('',#252,#250,#135,.T.);
#308=EDGE_CURVE('',#253,#254,#136,.T.);
#309=EDGE_CURVE('',#253,#255,#137,.T.);
#310=EDGE_CURVE('',#256,#255,#138,.T.);
#311=EDGE_CURVE('',#254,#256,#139,.T.);
#312=EDGE_CURVE('',#255,#257,#140,.T.);
#313=EDGE_CURVE('',#257,#258,#141,.T.);
#314=EDGE_CURVE('',#258,#256,#142,.T.);
#315=EDGE_CURVE('',#254,#247,#143,.T.);
#316=EDGE_CURVE('',#259,#258,#144,.T.);
#317=EDGE_CURVE('',#260,#259,#145,.T.);
#318=EDGE_CURVE('',#260,#251,#146,.T.);
#319=EDGE_CURVE('',#259,#261,#147,.T.);
#320=EDGE_CURVE('',#261,#262,#148,.T.);
#321=EDGE_CURVE('',#262,#260,#149,.T.);
#322=EDGE_CURVE('',#263,#264,#150,.T.);
#323=EDGE_CURVE('',#264,#265,#223,.T.);
#324=EDGE_CURVE('',#265,#266,#151,.T.);
#325=EDGE_CURVE('',#266,#263,#224,.T.);
#326=EDGE_CURVE('',#261,#257,#152,.T.);
#327=EDGE_CURVE('',#248,#253,#153,.T.);
#328=EDGE_CURVE('',#262,#252,#154,.T.);
#329=EDGE_CURVE('',#264,#267,#155,.T.);
#330=EDGE_CURVE('',#268,#267,#225,.T.);
#331=EDGE_CURVE('',#265,#268,#156,.T.);
#332=EDGE_CURVE('',#269,#268,#157,.T.);
#333=EDGE_CURVE('',#266,#269,#158,.T.);
#334=EDGE_CURVE('',#270,#269,#226,.T.);
#335=EDGE_CURVE('',#263,#270,#159,.T.);
#336=EDGE_CURVE('',#267,#270,#160,.T.);
#337=ORIENTED_EDGE('',*,*,#271,.F.);
#338=ORIENTED_EDGE('',*,*,#272,.T.);
#339=ORIENTED_EDGE('',*,*,#273,.F.);
#340=ORIENTED_EDGE('',*,*,#272,.F.);
#341=ORIENTED_EDGE('',*,*,#274,.F.);
#342=ORIENTED_EDGE('',*,*,#275,.T.);
#343=ORIENTED_EDGE('',*,*,#276,.F.);
#344=ORIENTED_EDGE('',*,*,#275,.F.);
#345=ORIENTED_EDGE('',*,*,#277,.F.);
#346=ORIENTED_EDGE('',*,*,#278,.T.);
#347=ORIENTED_EDGE('',*,*,#279,.F.);
#348=ORIENTED_EDGE('',*,*,#278,.F.);
#349=ORIENTED_EDGE('',*,*,#280,.F.);
#350=ORIENTED_EDGE('',*,*,#281,.T.);
#351=ORIENTED_EDGE('',*,*,#282,.F.);
#352=ORIENTED_EDGE('',*,*,#281,.F.);
#353=ORIENTED_EDGE('',*,*,#283,.F.);
#354=ORIENTED_EDGE('',*,*,#284,.T.);
#355=ORIENTED_EDGE('',*,*,#285,.F.);
#356=ORIENTED_EDGE('',*,*,#284,.F.);
#357=ORIENTED_EDGE('',*,*,#286,.F.);
#358=ORIENTED_EDGE('',*,*,#287,.T.);
#359=ORIENTED_EDGE('',*,*,#288,.F.);
#360=ORIENTED_EDGE('',*,*,#287,.F.);
#361=ORIENTED_EDGE('',*,*,#289,.F.);
#362=ORIENTED_EDGE('',*,*,#290,.T.);
#363=ORIENTED_EDGE('',*,*,#291,.F.);
#364=ORIENTED_EDGE('',*,*,#290,.F.);
#365=ORIENTED_EDGE('',*,*,#292,.F.);
#366=ORIENTED_EDGE('',*,*,#293,.T.);
#367=ORIENTED_EDGE('',*,*,#294,.F.);
#368=ORIENTED_EDGE('',*,*,#293,.F.);
#369=ORIENTED_EDGE('',*,*,#295,.F.);
#370=ORIENTED_EDGE('',*,*,#296,.T.);
#371=ORIENTED_EDGE('',*,*,#297,.F.);
#372=ORIENTED_EDGE('',*,*,#296,.F.);
#373=ORIENTED_EDGE('',*,*,#298,.F.);
#374=ORIENTED_EDGE('',*,*,#299,.T.);
#375=ORIENTED_EDGE('',*,*,#300,.F.);
#376=ORIENTED_EDGE('',*,*,#299,.F.);
#377=ORIENTED_EDGE('',*,*,#301,.F.);
#378=ORIENTED_EDGE('',*,*,#302,.T.);
#379=ORIENTED_EDGE('',*,*,#303,.F.);
#380=ORIENTED_EDGE('',*,*,#304,.F.);
#381=ORIENTED_EDGE('',*,*,#271,.T.);
#382=ORIENTED_EDGE('',*,*,#274,.T.);
#383=ORIENTED_EDGE('',*,*,#277,.T.);
#384=ORIENTED_EDGE('',*,*,#280,.T.);
#385=ORIENTED_EDGE('',*,*,#305,.T.);
#386=ORIENTED_EDGE('',*,*,#306,.T.);
#387=ORIENTED_EDGE('',*,*,#307,.T.);
#388=ORIENTED_EDGE('',*,*,#303,.T.);
#389=ORIENTED_EDGE('',*,*,#308,.F.);
#390=ORIENTED_EDGE('',*,*,#309,.T.);
#391=ORIENTED_EDGE('',*,*,#310,.F.);
#392=ORIENTED_EDGE('',*,*,#311,.F.);
#393=ORIENTED_EDGE('',*,*,#310,.T.);
#394=ORIENTED_EDGE('',*,*,#312,.T.);
#395=ORIENTED_EDGE('',*,*,#313,.T.);
#396=ORIENTED_EDGE('',*,*,#314,.T.);
#397=ORIENTED_EDGE('',*,*,#315,.F.);
#398=ORIENTED_EDGE('',*,*,#311,.T.);
#399=ORIENTED_EDGE('',*,*,#314,.F.);
#400=ORIENTED_EDGE('',*,*,#316,.F.);
#401=ORIENTED_EDGE('',*,*,#317,.F.);
#402=ORIENTED_EDGE('',*,*,#318,.T.);
#403=ORIENTED_EDGE('',*,*,#305,.F.);
#404=ORIENTED_EDGE('',*,*,#302,.F.);
#405=ORIENTED_EDGE('',*,*,#317,.T.);
#406=ORIENTED_EDGE('',*,*,#319,.T.);
#407=ORIENTED_EDGE('',*,*,#320,.T.);
#408=ORIENTED_EDGE('',*,*,#321,.T.);
#409=ORIENTED_EDGE('',*,*,#283,.T.);
#410=ORIENTED_EDGE('',*,*,#286,.T.);
#411=ORIENTED_EDGE('',*,*,#289,.T.);
#412=ORIENTED_EDGE('',*,*,#292,.T.);
#413=ORIENTED_EDGE('',*,*,#295,.T.);
#414=ORIENTED_EDGE('',*,*,#298,.T.);
#415=ORIENTED_EDGE('',*,*,#322,.T.);
#416=ORIENTED_EDGE('',*,*,#323,.T.);
#417=ORIENTED_EDGE('',*,*,#324,.T.);
#418=ORIENTED_EDGE('',*,*,#325,.T.);
#419=ORIENTED_EDGE('',*,*,#320,.F.);
#420=ORIENTED_EDGE('',*,*,#326,.T.);
#421=ORIENTED_EDGE('',*,*,#312,.F.);
#422=ORIENTED_EDGE('',*,*,#309,.F.);
#423=ORIENTED_EDGE('',*,*,#327,.F.);
#424=ORIENTED_EDGE('',*,*,#304,.T.);
#425=ORIENTED_EDGE('',*,*,#307,.F.);
#426=ORIENTED_EDGE('',*,*,#328,.F.);
#427=ORIENTED_EDGE('',*,*,#323,.F.);
#428=ORIENTED_EDGE('',*,*,#329,.T.);
#429=ORIENTED_EDGE('',*,*,#330,.F.);
#430=ORIENTED_EDGE('',*,*,#331,.F.);
#431=ORIENTED_EDGE('',*,*,#324,.F.);
#432=ORIENTED_EDGE('',*,*,#331,.T.);
#433=ORIENTED_EDGE('',*,*,#332,.F.);
#434=ORIENTED_EDGE('',*,*,#333,.F.);
#435=ORIENTED_EDGE('',*,*,#325,.F.);
#436=ORIENTED_EDGE('',*,*,#333,.T.);
#437=ORIENTED_EDGE('',*,*,#334,.F.);
#438=ORIENTED_EDGE('',*,*,#335,.F.);
#439=ORIENTED_EDGE('',*,*,#322,.F.);
#440=ORIENTED_EDGE('',*,*,#335,.T.);
#441=ORIENTED_EDGE('',*,*,#336,.F.);
#442=ORIENTED_EDGE('',*,*,#329,.F.);
#443=ORIENTED_EDGE('',*,*,#319,.F.);
#444=ORIENTED_EDGE('',*,*,#316,.T.);
#445=ORIENTED_EDGE('',*,*,#313,.F.);
#446=ORIENTED_EDGE('',*,*,#326,.F.);
#447=ORIENTED_EDGE('',*,*,#321,.F.);
#448=ORIENTED_EDGE('',*,*,#328,.T.);
#449=ORIENTED_EDGE('',*,*,#306,.F.);
#450=ORIENTED_EDGE('',*,*,#318,.F.);
#451=ORIENTED_EDGE('',*,*,#273,.T.);
#452=ORIENTED_EDGE('',*,*,#276,.T.);
#453=ORIENTED_EDGE('',*,*,#279,.T.);
#454=ORIENTED_EDGE('',*,*,#282,.T.);
#455=ORIENTED_EDGE('',*,*,#301,.T.);
#456=ORIENTED_EDGE('',*,*,#327,.T.);
#457=ORIENTED_EDGE('',*,*,#308,.T.);
#458=ORIENTED_EDGE('',*,*,#315,.T.);
#459=ORIENTED_EDGE('',*,*,#285,.T.);
#460=ORIENTED_EDGE('',*,*,#288,.T.);
#461=ORIENTED_EDGE('',*,*,#291,.T.);
#462=ORIENTED_EDGE('',*,*,#294,.T.);
#463=ORIENTED_EDGE('',*,*,#297,.T.);
#464=ORIENTED_EDGE('',*,*,#300,.T.);
#465=ORIENTED_EDGE('',*,*,#336,.T.);
#466=ORIENTED_EDGE('',*,*,#334,.T.);
#467=ORIENTED_EDGE('',*,*,#332,.T.);
#468=ORIENTED_EDGE('',*,*,#330,.T.);
#469=CYLINDRICAL_SURFACE('',#528,1.6);
#470=CYLINDRICAL_SURFACE('',#531,1.6);
#471=CYLINDRICAL_SURFACE('',#534,1.6);
#472=CYLINDRICAL_SURFACE('',#537,1.6);
#473=CYLINDRICAL_SURFACE('',#540,1.65);
#474=CYLINDRICAL_SURFACE('',#543,1.65);
#475=CYLINDRICAL_SURFACE('',#546,1.65);
#476=CYLINDRICAL_SURFACE('',#549,1.65);
#477=CYLINDRICAL_SURFACE('',#552,1.65);
#478=CYLINDRICAL_SURFACE('',#555,1.65);
#479=CYLINDRICAL_SURFACE('',#567,6.6);
#480=CYLINDRICAL_SURFACE('',#570,6.6);
#481=ADVANCED_FACE('',(#49),#469,.F.);
#482=ADVANCED_FACE('',(#50),#470,.F.);
#483=ADVANCED_FACE('',(#51),#471,.F.);
#484=ADVANCED_FACE('',(#52),#472,.F.);
#485=ADVANCED_FACE('',(#53),#473,.F.);
#486=ADVANCED_FACE('',(#54),#474,.F.);
#487=ADVANCED_FACE('',(#55),#475,.F.);
#488=ADVANCED_FACE('',(#56),#476,.F.);
#489=ADVANCED_FACE('',(#57),#477,.F.);
#490=ADVANCED_FACE('',(#58),#478,.F.);
#491=ADVANCED_FACE('',(#59,#15,#16,#17,#18),#37,.T.);
#492=ADVANCED_FACE('',(#60),#38,.T.);
#493=ADVANCED_FACE('',(#61),#39,.T.);
#494=ADVANCED_FACE('',(#62),#40,.T.);
#495=ADVANCED_FACE('',(#63),#41,.T.);
#496=ADVANCED_FACE('',(#64,#19,#20,#21,#22,#23,#24,#25),#42,.T.);
#497=ADVANCED_FACE('',(#65),#43,.T.);
#498=ADVANCED_FACE('',(#66),#479,.F.);
#499=ADVANCED_FACE('',(#67),#44,.T.);
#500=ADVANCED_FACE('',(#68),#480,.F.);
#501=ADVANCED_FACE('',(#69),#45,.T.);
#502=ADVANCED_FACE('',(#70),#46,.T.);
#503=ADVANCED_FACE('',(#71,#26,#27,#28,#29),#47,.T.);
#504=ADVANCED_FACE('',(#72,#30,#31,#32,#33,#34,#35,#36),#48,.F.);
#505=CLOSED_SHELL('',(#481,#482,#483,#484,#485,#486,#487,#488,#489,#490,
#491,#492,#493,#494,#495,#496,#497,#498,#499,#500,#501,#502,#503,#504));
#506=DERIVED_UNIT_ELEMENT(#509,1.);
#507=DERIVED_UNIT_ELEMENT(#856,-3.);
#508=DIMENSIONAL_EXPONENTS(0.,1.,0.,0.,0.,0.,0.);
#509=(
CONVERSION_BASED_UNIT('gram',#511)
MASS_UNIT()
NAMED_UNIT(#508)
);
#510=(
MASS_UNIT()
NAMED_UNIT(*)
SI_UNIT(.KILO.,.GRAM.)
);
#511=MASS_MEASURE_WITH_UNIT(MASS_MEASURE(0.001),#510);
#512=DERIVED_UNIT((#506,#507));
#513=MEASURE_REPRESENTATION_ITEM('density measure',
POSITIVE_RATIO_MEASURE(1.),#512);
#514=PROPERTY_DEFINITION_REPRESENTATION(#519,#516);
#515=PROPERTY_DEFINITION_REPRESENTATION(#520,#517);
#516=REPRESENTATION('material name',(#518),#853);
#517=REPRESENTATION('density',(#513),#853);
#518=DESCRIPTIVE_REPRESENTATION_ITEM('\X2\4E00822C\X0\','\X2\4E00822C\X0\');
#519=PROPERTY_DEFINITION('material property','material name',#863);
#520=PROPERTY_DEFINITION('material property','density of part',#863);
#521=DATE_TIME_ROLE('creation_date');
#522=APPLIED_DATE_AND_TIME_ASSIGNMENT(#523,#521,(#863));
#523=DATE_AND_TIME(#524,#525);
#524=CALENDAR_DATE(2026,6,5);
#525=LOCAL_TIME(0,0,0.,#526);
#526=COORDINATED_UNIVERSAL_TIME_OFFSET(0,0,.BEHIND.);
#527=AXIS2_PLACEMENT_3D('',#716,#576,#577);
#528=AXIS2_PLACEMENT_3D('',#717,#578,#579);
#529=AXIS2_PLACEMENT_3D('',#719,#580,#581);
#530=AXIS2_PLACEMENT_3D('',#722,#583,#584);
#531=AXIS2_PLACEMENT_3D('',#723,#585,#586);
#532=AXIS2_PLACEMENT_3D('',#725,#587,#588);
#533=AXIS2_PLACEMENT_3D('',#728,#590,#591);
#534=AXIS2_PLACEMENT_3D('',#729,#592,#593);
#535=AXIS2_PLACEMENT_3D('',#731,#594,#595);
#536=AXIS2_PLACEMENT_3D('',#734,#597,#598);
#537=AXIS2_PLACEMENT_3D('',#735,#599,#600);
#538=AXIS2_PLACEMENT_3D('',#737,#601,#602);
#539=AXIS2_PLACEMENT_3D('',#740,#604,#605);
#540=AXIS2_PLACEMENT_3D('',#741,#606,#607);
#541=AXIS2_PLACEMENT_3D('',#743,#608,#609);
#542=AXIS2_PLACEMENT_3D('',#746,#611,#612);
#543=AXIS2_PLACEMENT_3D('',#747,#613,#614);
#544=AXIS2_PLACEMENT_3D('',#749,#615,#616);
#545=AXIS2_PLACEMENT_3D('',#752,#618,#619);
#546=AXIS2_PLACEMENT_3D('',#753,#620,#621);
#547=AXIS2_PLACEMENT_3D('',#755,#622,#623);
#548=AXIS2_PLACEMENT_3D('',#758,#625,#626);
#549=AXIS2_PLACEMENT_3D('',#759,#627,#628);
#550=AXIS2_PLACEMENT_3D('',#761,#629,#630);
#551=AXIS2_PLACEMENT_3D('',#764,#632,#633);
#552=AXIS2_PLACEMENT_3D('',#765,#634,#635);
#553=AXIS2_PLACEMENT_3D('',#767,#636,#637);
#554=AXIS2_PLACEMENT_3D('',#770,#639,#640);
#555=AXIS2_PLACEMENT_3D('',#771,#641,#642);
#556=AXIS2_PLACEMENT_3D('',#773,#643,#644);
#557=AXIS2_PLACEMENT_3D('',#776,#646,#647);
#558=AXIS2_PLACEMENT_3D('',#777,#648,#649);
#559=AXIS2_PLACEMENT_3D('',#786,#654,#655);
#560=AXIS2_PLACEMENT_3D('',#792,#659,#660);
#561=AXIS2_PLACEMENT_3D('',#801,#665,#666);
#562=AXIS2_PLACEMENT_3D('',#807,#670,#671);
#563=AXIS2_PLACEMENT_3D('',#814,#676,#677);
#564=AXIS2_PLACEMENT_3D('',#824,#682,#683);
#565=AXIS2_PLACEMENT_3D('',#827,#685,#686);
#566=AXIS2_PLACEMENT_3D('',#828,#687,#688);
#567=AXIS2_PLACEMENT_3D('',#832,#692,#693);
#568=AXIS2_PLACEMENT_3D('',#836,#695,#696);
#569=AXIS2_PLACEMENT_3D('',#838,#698,#699);
#570=AXIS2_PLACEMENT_3D('',#842,#702,#703);
#571=AXIS2_PLACEMENT_3D('',#844,#704,#705);
#572=AXIS2_PLACEMENT_3D('',#846,#707,#708);
#573=AXIS2_PLACEMENT_3D('',#848,#710,#711);
#574=AXIS2_PLACEMENT_3D('',#849,#712,#713);
#575=AXIS2_PLACEMENT_3D('',#850,#714,#715);
#576=DIRECTION('axis',(0.,0.,1.));
#577=DIRECTION('refdir',(1.,0.,0.));
#578=DIRECTION('center_axis',(-2.3373116307898E-16,1.,0.));
#579=DIRECTION('ref_axis',(1.,2.3373116307898E-16,0.));
#580=DIRECTION('center_axis',(2.3373116307898E-16,-1.,0.));
#581=DIRECTION('ref_axis',(1.,2.3373116307898E-16,0.));
#582=DIRECTION('',(2.3373116307898E-16,-1.,0.));
#583=DIRECTION('center_axis',(0.,1.,0.));
#584=DIRECTION('ref_axis',(1.,2.3373116307898E-16,0.));
#585=DIRECTION('center_axis',(-2.3373116307898E-16,1.,0.));
#586=DIRECTION('ref_axis',(1.,2.3373116307898E-16,0.));
#587=DIRECTION('center_axis',(2.3373116307898E-16,-1.,0.));
#588=DIRECTION('ref_axis',(1.,2.3373116307898E-16,0.));
#589=DIRECTION('',(2.3373116307898E-16,-1.,0.));
#590=DIRECTION('center_axis',(0.,1.,0.));
#591=DIRECTION('ref_axis',(1.,2.3373116307898E-16,0.));
#592=DIRECTION('center_axis',(-2.3373116307898E-16,1.,0.));
#593=DIRECTION('ref_axis',(1.,2.3373116307898E-16,0.));
#594=DIRECTION('center_axis',(2.3373116307898E-16,-1.,0.));
#595=DIRECTION('ref_axis',(1.,2.3373116307898E-16,0.));
#596=DIRECTION('',(2.3373116307898E-16,-1.,0.));
#597=DIRECTION('center_axis',(0.,1.,0.));
#598=DIRECTION('ref_axis',(1.,2.3373116307898E-16,0.));
#599=DIRECTION('center_axis',(-2.3373116307898E-16,1.,0.));
#600=DIRECTION('ref_axis',(1.,2.3373116307898E-16,0.));
#601=DIRECTION('center_axis',(2.3373116307898E-16,-1.,0.));
#602=DIRECTION('ref_axis',(1.,2.3373116307898E-16,0.));
#603=DIRECTION('',(2.3373116307898E-16,-1.,0.));
#604=DIRECTION('center_axis',(0.,1.,0.));
#605=DIRECTION('ref_axis',(1.,2.3373116307898E-16,0.));
#606=DIRECTION('center_axis',(0.,0.,1.));
#607=DIRECTION('ref_axis',(1.,0.,0.));
#608=DIRECTION('center_axis',(0.,0.,-1.));
#609=DIRECTION('ref_axis',(1.,0.,0.));
#610=DIRECTION('',(0.,0.,-1.));
#611=DIRECTION('center_axis',(0.,0.,1.));
#612=DIRECTION('ref_axis',(1.,0.,0.));
#613=DIRECTION('center_axis',(0.,0.,1.));
#614=DIRECTION('ref_axis',(1.,0.,0.));
#615=DIRECTION('center_axis',(0.,0.,-1.));
#616=DIRECTION('ref_axis',(1.,0.,0.));
#617=DIRECTION('',(0.,0.,-1.));
#618=DIRECTION('center_axis',(0.,0.,1.));
#619=DIRECTION('ref_axis',(1.,0.,0.));
#620=DIRECTION('center_axis',(0.,0.,1.));
#621=DIRECTION('ref_axis',(1.,0.,0.));
#622=DIRECTION('center_axis',(0.,0.,-1.));
#623=DIRECTION('ref_axis',(1.,0.,0.));
#624=DIRECTION('',(0.,0.,-1.));
#625=DIRECTION('center_axis',(0.,0.,1.));
#626=DIRECTION('ref_axis',(1.,0.,0.));
#627=DIRECTION('center_axis',(0.,0.,1.));
#628=DIRECTION('ref_axis',(1.,0.,0.));
#629=DIRECTION('center_axis',(0.,0.,-1.));
#630=DIRECTION('ref_axis',(1.,0.,0.));
#631=DIRECTION('',(0.,0.,-1.));
#632=DIRECTION('center_axis',(0.,0.,1.));
#633=DIRECTION('ref_axis',(1.,0.,0.));
#634=DIRECTION('center_axis',(0.,0.,1.));
#635=DIRECTION('ref_axis',(1.,0.,0.));
#636=DIRECTION('center_axis',(0.,0.,-1.));
#637=DIRECTION('ref_axis',(1.,0.,0.));
#638=DIRECTION('',(0.,0.,-1.));
#639=DIRECTION('center_axis',(0.,0.,1.));
#640=DIRECTION('ref_axis',(1.,0.,0.));
#641=DIRECTION('center_axis',(0.,0.,1.));
#642=DIRECTION('ref_axis',(1.,0.,0.));
#643=DIRECTION('center_axis',(0.,0.,-1.));
#644=DIRECTION('ref_axis',(1.,0.,0.));
#645=DIRECTION('',(0.,0.,-1.));
#646=DIRECTION('center_axis',(0.,0.,1.));
#647=DIRECTION('ref_axis',(1.,0.,0.));
#648=DIRECTION('center_axis',(-2.3373116307898E-16,1.,0.));
#649=DIRECTION('ref_axis',(1.,2.3373116307898E-16,0.));
#650=DIRECTION('',(-1.,-2.3373116307898E-16,0.));
#651=DIRECTION('',(0.,0.,-1.));
#652=DIRECTION('',(1.,2.3373116307898E-16,0.));
#653=DIRECTION('',(0.,0.,-1.));
#654=DIRECTION('center_axis',(0.,0.,-1.));
#655=DIRECTION('ref_axis',(-1.,0.,0.));
#656=DIRECTION('',(1.85037170770859E-16,-1.,0.));
#657=DIRECTION('',(-1.,0.,0.));
#658=DIRECTION('',(-3.06161699786838E-16,1.,0.));
#659=DIRECTION('center_axis',(0.,-1.,0.));
#660=DIRECTION('ref_axis',(-1.,0.,0.));
#661=DIRECTION('',(1.,0.,0.));
#662=DIRECTION('',(0.,0.,-1.));
#663=DIRECTION('',(-1.,0.,0.));
#664=DIRECTION('',(0.,0.,-1.));
#665=DIRECTION('center_axis',(0.,0.,-1.));
#666=DIRECTION('ref_axis',(-1.,0.,0.));
#667=DIRECTION('',(-3.70074341541719E-16,1.,0.));
#668=DIRECTION('',(1.,0.,0.));
#669=DIRECTION('',(0.,-1.,0.));
#670=DIRECTION('center_axis',(1.,1.85037170770859E-16,0.));
#671=DIRECTION('ref_axis',(1.85037170770859E-16,-1.,0.));
#672=DIRECTION('',(1.85037170770859E-16,-1.,0.));
#673=DIRECTION('',(0.,0.,-1.));
#674=DIRECTION('',(-1.85037170770859E-16,1.,0.));
#675=DIRECTION('',(0.,0.,-1.));
#676=DIRECTION('center_axis',(0.,0.,1.));
#677=DIRECTION('ref_axis',(1.,0.,0.));
#678=DIRECTION('',(-1.,0.,0.));
#679=DIRECTION('',(3.06161699786838E-16,-1.,0.));
#680=DIRECTION('',(1.,0.,0.));
#681=DIRECTION('',(0.,-1.,0.));
#682=DIRECTION('center_axis',(0.,0.,-1.));
#683=DIRECTION('ref_axis',(1.,6.72862439166761E-16,0.));
#684=DIRECTION('',(-6.34413156928661E-16,1.,0.));
#685=DIRECTION('center_axis',(0.,0.,-1.));
#686=DIRECTION('ref_axis',(-1.,0.,0.));
#687=DIRECTION('center_axis',(-1.,-3.06161699786838E-16,0.));
#688=DIRECTION('ref_axis',(-3.06161699786838E-16,1.,0.));
#689=DIRECTION('',(0.,0.,-1.));
#690=DIRECTION('',(-3.06161699786838E-16,1.,0.));
#691=DIRECTION('',(0.,0.,-1.));
#692=DIRECTION('center_axis',(0.,0.,-1.));
#693=DIRECTION('ref_axis',(1.,6.72862439166761E-16,0.));
#694=DIRECTION('',(0.,0.,-1.));
#695=DIRECTION('center_axis',(0.,0.,1.));
#696=DIRECTION('ref_axis',(1.,6.72862439166761E-16,0.));
#697=DIRECTION('',(0.,0.,-1.));
#698=DIRECTION('center_axis',(1.,6.34413156928661E-16,0.));
#699=DIRECTION('ref_axis',(6.34413156928661E-16,-1.,0.));
#700=DIRECTION('',(6.34413156928661E-16,-1.,0.));
#701=DIRECTION('',(0.,0.,-1.));
#702=DIRECTION('center_axis',(0.,0.,-1.));
#703=DIRECTION('ref_axis',(-1.,0.,0.));
#704=DIRECTION('center_axis',(0.,0.,1.));
#705=DIRECTION('ref_axis',(-1.,0.,0.));
#706=DIRECTION('',(0.,0.,-1.));
#707=DIRECTION('center_axis',(-1.,0.,0.));
#708=DIRECTION('ref_axis',(0.,1.,0.));
#709=DIRECTION('',(0.,1.,0.));
#710=DIRECTION('center_axis',(0.,1.,0.));
#711=DIRECTION('ref_axis',(1.,0.,0.));
#712=DIRECTION('center_axis',(0.,-1.,0.));
#713=DIRECTION('ref_axis',(-1.,0.,0.));
#714=DIRECTION('center_axis',(0.,0.,1.));
#715=DIRECTION('ref_axis',(1.,0.,0.));
#716=CARTESIAN_POINT('',(0.,0.,0.));
#717=CARTESIAN_POINT('Origin',(3.15306931716171,-0.0500000000000039,-34.3811656943278));
#718=CARTESIAN_POINT('',(1.55306931716171,4.,-34.3811656943278));
#719=CARTESIAN_POINT('Origin',(3.15306931716171,4.,-34.3811656943278));
#720=CARTESIAN_POINT('',(1.55306931716171,-8.51849658063748E-15,-34.3811656943278));
#721=CARTESIAN_POINT('',(1.55306931716171,-0.0500000000000043,-34.3811656943278));
#722=CARTESIAN_POINT('Origin',(3.15306931716171,-8.14452671971111E-15,-34.3811656943278));
#723=CARTESIAN_POINT('Origin',(35.1530693171617,-0.0499999999999962,-34.3811656943278));
#724=CARTESIAN_POINT('',(33.5530693171617,4.,-34.3811656943278));
#725=CARTESIAN_POINT('Origin',(35.1530693171617,4.,-34.3811656943278));
#726=CARTESIAN_POINT('',(33.5530693171617,-1.04183839917744E-15,-34.3811656943278));
#727=CARTESIAN_POINT('',(33.5530693171617,-0.0499999999999965,-34.3811656943278));
#728=CARTESIAN_POINT('Origin',(35.1530693171617,-6.67868538251071E-16,-34.3811656943278));
#729=CARTESIAN_POINT('Origin',(35.1530693171617,-0.0499999999999962,-8.38116569432782));
#730=CARTESIAN_POINT('',(33.5530693171617,4.,-8.38116569432782));
#731=CARTESIAN_POINT('Origin',(35.1530693171617,4.,-8.38116569432782));
#732=CARTESIAN_POINT('',(33.5530693171617,-1.04183839917744E-15,-8.38116569432782));
#733=CARTESIAN_POINT('',(33.5530693171617,-0.0499999999999965,-8.38116569432782));
#734=CARTESIAN_POINT('Origin',(35.1530693171617,-6.67868538251071E-16,-8.38116569432782));
#735=CARTESIAN_POINT('Origin',(3.15306931716171,-0.0500000000000039,-8.38116569432782));
#736=CARTESIAN_POINT('',(1.55306931716171,4.,-8.38116569432782));
#737=CARTESIAN_POINT('Origin',(3.15306931716171,4.,-8.38116569432782));
#738=CARTESIAN_POINT('',(1.55306931716171,-8.51849658063748E-15,-8.38116569432782));
#739=CARTESIAN_POINT('',(1.55306931716171,-0.0500000000000043,-8.38116569432782));
#740=CARTESIAN_POINT('Origin',(3.15306931716171,-8.14452671971111E-15,-8.38116569432782));
#741=CARTESIAN_POINT('Origin',(11.25,38.4233937586588,-4.05));
#742=CARTESIAN_POINT('',(9.59999999999999,38.4233937586588,0.));
#743=CARTESIAN_POINT('Origin',(11.25,38.4233937586588,0.));
#744=CARTESIAN_POINT('',(9.59999999999999,38.4233937586588,-6.));
#745=CARTESIAN_POINT('',(9.59999999999999,38.4233937586588,-4.05));
#746=CARTESIAN_POINT('Origin',(11.25,38.4233937586588,-6.));
#747=CARTESIAN_POINT('Origin',(26.75,38.4233937586588,-4.05));
#748=CARTESIAN_POINT('',(25.1,38.4233937586588,0.));
#749=CARTESIAN_POINT('Origin',(26.75,38.4233937586588,0.));
#750=CARTESIAN_POINT('',(25.1,38.4233937586588,-6.));
#751=CARTESIAN_POINT('',(25.1,38.4233937586588,-4.05));
#752=CARTESIAN_POINT('Origin',(26.75,38.4233937586588,-6.));
#753=CARTESIAN_POINT('Origin',(34.5,25.,-4.05));
#754=CARTESIAN_POINT('',(32.85,25.,0.));
#755=CARTESIAN_POINT('Origin',(34.5,25.,0.));
#756=CARTESIAN_POINT('',(32.85,25.,-6.));
#757=CARTESIAN_POINT('',(32.85,25.,-4.05));
#758=CARTESIAN_POINT('Origin',(34.5,25.,-6.));
#759=CARTESIAN_POINT('Origin',(26.75,11.5766062413412,-4.05));
#760=CARTESIAN_POINT('',(25.1,11.5766062413412,0.));
#761=CARTESIAN_POINT('Origin',(26.75,11.5766062413412,0.));
#762=CARTESIAN_POINT('',(25.1,11.5766062413412,-6.));
#763=CARTESIAN_POINT('',(25.1,11.5766062413412,-4.05));
#764=CARTESIAN_POINT('Origin',(26.75,11.5766062413412,-6.));
#765=CARTESIAN_POINT('Origin',(11.25,11.5766062413412,-4.05));
#766=CARTESIAN_POINT('',(9.59999999999999,11.5766062413412,0.));
#767=CARTESIAN_POINT('Origin',(11.25,11.5766062413412,0.));
#768=CARTESIAN_POINT('',(9.59999999999999,11.5766062413412,-6.));
#769=CARTESIAN_POINT('',(9.59999999999999,11.5766062413412,-4.05));
#770=CARTESIAN_POINT('Origin',(11.25,11.5766062413412,-6.));
#771=CARTESIAN_POINT('Origin',(3.49999999999999,25.,-4.05));
#772=CARTESIAN_POINT('',(1.84999999999999,25.,0.));
#773=CARTESIAN_POINT('Origin',(3.49999999999999,25.,0.));
#774=CARTESIAN_POINT('',(1.84999999999999,25.,-6.));
#775=CARTESIAN_POINT('',(1.84999999999999,25.,-4.05));
#776=CARTESIAN_POINT('Origin',(3.49999999999999,25.,-6.));
#777=CARTESIAN_POINT('Origin',(0.,4.,0.));
#778=CARTESIAN_POINT('',(38.,4.,-6.));
#779=CARTESIAN_POINT('',(-1.22464679914735E-15,3.99999999999999,-6.));
#780=CARTESIAN_POINT('',(9.5,4.,-6.));
#781=CARTESIAN_POINT('',(38.,4.,-50.));
#782=CARTESIAN_POINT('',(38.,4.,0.));
#783=CARTESIAN_POINT('',(-4.44089209850063E-15,4.,-50.));
#784=CARTESIAN_POINT('',(38.,4.,-50.));
#785=CARTESIAN_POINT('',(-2.22044604925031E-15,4.,0.));
#786=CARTESIAN_POINT('Origin',(19.,2.,-50.));
#787=CARTESIAN_POINT('',(38.,0.,-50.));
#788=CARTESIAN_POINT('',(38.,0.,-50.));
#789=CARTESIAN_POINT('',(0.,0.,-50.));
#790=CARTESIAN_POINT('',(0.,0.,-50.));
#791=CARTESIAN_POINT('',(-7.34788079488412E-15,24.,-50.));
#792=CARTESIAN_POINT('Origin',(38.,44.,0.));
#793=CARTESIAN_POINT('',(-1.33226762955019E-14,44.,-6.));
#794=CARTESIAN_POINT('',(38.,44.,-6.));
#795=CARTESIAN_POINT('',(28.5,44.,-6.));
#796=CARTESIAN_POINT('',(-1.33226762955019E-14,44.,-50.));
#797=CARTESIAN_POINT('',(-1.33226762955019E-14,44.,0.));
#798=CARTESIAN_POINT('',(38.,44.,-50.));
#799=CARTESIAN_POINT('',(-1.33226762955019E-14,44.,-50.));
#800=CARTESIAN_POINT('',(38.,44.,0.));
#801=CARTESIAN_POINT('Origin',(19.,47.,-50.));
#802=CARTESIAN_POINT('',(-1.55431223447522E-14,50.,-50.));
#803=CARTESIAN_POINT('',(-1.55431223447522E-14,50.,-50.));
#804=CARTESIAN_POINT('',(38.,50.,-50.));
#805=CARTESIAN_POINT('',(38.,50.,-50.));
#806=CARTESIAN_POINT('',(38.,44.,-50.));
#807=CARTESIAN_POINT('Origin',(38.,50.,0.));
#808=CARTESIAN_POINT('',(38.,0.,-6.));
#809=CARTESIAN_POINT('',(38.,50.,0.));
#810=CARTESIAN_POINT('',(38.,50.,0.));
#811=CARTESIAN_POINT('',(38.,0.,0.));
#812=CARTESIAN_POINT('',(38.,0.,0.));
#813=CARTESIAN_POINT('',(38.,0.,0.));
#814=CARTESIAN_POINT('Origin',(19.,12.,0.));
#815=CARTESIAN_POINT('',(-1.55431223447522E-14,50.,0.));
#816=CARTESIAN_POINT('',(38.,50.,0.));
#817=CARTESIAN_POINT('',(0.,0.,0.));
#818=CARTESIAN_POINT('',(-7.34788079488412E-15,24.,0.));
#819=CARTESIAN_POINT('',(0.,0.,0.));
#820=CARTESIAN_POINT('',(25.6,31.,0.));
#821=CARTESIAN_POINT('',(25.6,17.,0.));
#822=CARTESIAN_POINT('',(25.6,31.,0.));
#823=CARTESIAN_POINT('',(12.4,17.,0.));
#824=CARTESIAN_POINT('Origin',(19.,17.,0.));
#825=CARTESIAN_POINT('',(12.4,31.,0.));
#826=CARTESIAN_POINT('',(12.4,17.,0.));
#827=CARTESIAN_POINT('Origin',(19.,31.,0.));
#828=CARTESIAN_POINT('Origin',(9.86076131526265E-31,0.,0.));
#829=CARTESIAN_POINT('',(-1.55431223447522E-14,50.,0.));
#830=CARTESIAN_POINT('',(-7.34788079488412E-15,24.,-6.));
#831=CARTESIAN_POINT('',(0.,0.,0.));
#832=CARTESIAN_POINT('Origin',(19.,17.,0.));
#833=CARTESIAN_POINT('',(25.6,17.,-6.));
#834=CARTESIAN_POINT('',(25.6,17.,0.));
#835=CARTESIAN_POINT('',(12.4,17.,-6.));
#836=CARTESIAN_POINT('Origin',(19.,17.,-6.));
#837=CARTESIAN_POINT('',(12.4,17.,0.));
#838=CARTESIAN_POINT('Origin',(12.4,31.,0.));
#839=CARTESIAN_POINT('',(12.4,31.,-6.));
#840=CARTESIAN_POINT('',(12.4,17.,-6.));
#841=CARTESIAN_POINT('',(12.4,31.,0.));
#842=CARTESIAN_POINT('Origin',(19.,31.,0.));
#843=CARTESIAN_POINT('',(25.6,31.,-6.));
#844=CARTESIAN_POINT('Origin',(19.,31.,-6.));
#845=CARTESIAN_POINT('',(25.6,31.,0.));
#846=CARTESIAN_POINT('Origin',(25.6,17.,0.));
#847=CARTESIAN_POINT('',(25.6,31.,-6.));
#848=CARTESIAN_POINT('Origin',(-1.77635683940025E-14,50.,0.));
#849=CARTESIAN_POINT('Origin',(38.,0.,0.));
#850=CARTESIAN_POINT('Origin',(19.,12.,-6.));
#851=UNCERTAINTY_MEASURE_WITH_UNIT(LENGTH_MEASURE(0.01),#855,
'DISTANCE_ACCURACY_VALUE',
'Maximum model space distance between geometric entities at asserted c
onnectivities');
#852=UNCERTAINTY_MEASURE_WITH_UNIT(LENGTH_MEASURE(0.01),#855,
'DISTANCE_ACCURACY_VALUE',
'Maximum model space distance between geometric entities at asserted c
onnectivities');
#853=(
GEOMETRIC_REPRESENTATION_CONTEXT(3)
GLOBAL_UNCERTAINTY_ASSIGNED_CONTEXT((#851))
GLOBAL_UNIT_ASSIGNED_CONTEXT((#855,#857,#858))
REPRESENTATION_CONTEXT('','3D')
);
#854=(
GEOMETRIC_REPRESENTATION_CONTEXT(3)
GLOBAL_UNCERTAINTY_ASSIGNED_CONTEXT((#852))
GLOBAL_UNIT_ASSIGNED_CONTEXT((#855,#857,#858))
REPRESENTATION_CONTEXT('','3D')
);
#855=(
LENGTH_UNIT()
NAMED_UNIT(*)
SI_UNIT(.MILLI.,.METRE.)
);
#856=(
LENGTH_UNIT()
NAMED_UNIT(*)
SI_UNIT(.CENTI.,.METRE.)
);
#857=(
NAMED_UNIT(*)
PLANE_ANGLE_UNIT()
SI_UNIT($,.RADIAN.)
);
#858=(
NAMED_UNIT(*)
SI_UNIT($,.STERADIAN.)
SOLID_ANGLE_UNIT()
);
#859=SHAPE_DEFINITION_REPRESENTATION(#860,#861);
#860=PRODUCT_DEFINITION_SHAPE('',$,#863);
#861=SHAPE_REPRESENTATION('',(#527),#853);
#862=PRODUCT_DEFINITION_CONTEXT('part definition',#867,'design');
#863=PRODUCT_DEFINITION('\X2\30AE30A230DC30C330AF30B9\X0\',
'\X2\30AE30A230DC30C330AF30B9\X0\',#864,#862);
#864=PRODUCT_DEFINITION_FORMATION('',$,#869);
#865=PRODUCT_RELATED_PRODUCT_CATEGORY('\X2\30AE30A230DC30C330AF30B9\X0\',
'\X2\30AE30A230DC30C330AF30B9\X0\',(#869));
#866=APPLICATION_PROTOCOL_DEFINITION('international standard',
'automotive_design',2009,#867);
#867=APPLICATION_CONTEXT(
'Core Data for Automotive Mechanical Design Process');
#868=PRODUCT_CONTEXT('part definition',#867,'mechanical');
#869=PRODUCT('\X2\30AE30A230DC30C330AF30B9\X0\','\X2\30AE30A230DC30C330AF30B9\X0\',
$,(#868));
#870=PRESENTATION_STYLE_ASSIGNMENT((#871));
#871=SURFACE_STYLE_USAGE(.BOTH.,#874);
#872=SURFACE_STYLE_RENDERING_WITH_PROPERTIES($,#878,(#873));
#873=SURFACE_STYLE_TRANSPARENT(0.);
#874=SURFACE_SIDE_STYLE('',(#875,#872));
#875=SURFACE_STYLE_FILL_AREA(#876);
#876=FILL_AREA_STYLE('',(#877));
#877=FILL_AREA_STYLE_COLOUR('',#878);
#878=COLOUR_RGB('',0.749019607843137,0.749019607843137,0.749019607843137);
ENDSEC;
END-ISO-10303-21;
