ISO-10303-21;
HEADER;
/* Generated by software containing ST-Developer
 * from STEP Tools, Inc. (www.steptools.com) 
 */

FILE_DESCRIPTION(
/* description */ (''),
/* implementation_level */ '2;1');

FILE_NAME(
/* name */ '',
/* time_stamp */ '2026-05-27T15:49:04+09:00',
/* author */ ('Yagis'),
/* organization */ (''),
/* preprocessor_version */ 'ST-DEVELOPER v20.1',
/* originating_system */ 'Autodesk Inventor 2026',
/* authorisation */ '');

FILE_SCHEMA (('AUTOMOTIVE_DESIGN { 1 0 10303 214 3 1 1 }'));
ENDSEC;

DATA;
#10=MECHANICAL_DESIGN_GEOMETRIC_PRESENTATION_REPRESENTATION('',(#13),#579);
#11=SHAPE_REPRESENTATION_RELATIONSHIP('SRR','None',#586,#12);
#12=ADVANCED_BREP_SHAPE_REPRESENTATION('',(#14),#578);
#13=STYLED_ITEM('',(#595),#14);
#14=MANIFOLD_SOLID_BREP('\X2\30BD30EA30C330C9\X0\1',#346);
#15=FACE_BOUND('',#61,.T.);
#16=FACE_BOUND('',#62,.T.);
#17=FACE_BOUND('',#64,.T.);
#18=FACE_BOUND('',#65,.T.);
#19=FACE_BOUND('',#69,.T.);
#20=FACE_BOUND('',#70,.T.);
#21=FACE_BOUND('',#71,.T.);
#22=FACE_BOUND('',#72,.T.);
#23=PLANE('',#381);
#24=PLANE('',#382);
#25=PLANE('',#383);
#26=PLANE('',#384);
#27=PLANE('',#385);
#28=PLANE('',#386);
#29=PLANE('',#387);
#30=PLANE('',#388);
#31=PLANE('',#389);
#32=PLANE('',#390);
#33=PLANE('',#391);
#34=PLANE('',#392);
#35=PLANE('',#393);
#36=FACE_OUTER_BOUND('',#53,.T.);
#37=FACE_OUTER_BOUND('',#54,.T.);
#38=FACE_OUTER_BOUND('',#55,.T.);
#39=FACE_OUTER_BOUND('',#56,.T.);
#40=FACE_OUTER_BOUND('',#57,.T.);
#41=FACE_OUTER_BOUND('',#58,.T.);
#42=FACE_OUTER_BOUND('',#59,.T.);
#43=FACE_OUTER_BOUND('',#60,.T.);
#44=FACE_OUTER_BOUND('',#63,.T.);
#45=FACE_OUTER_BOUND('',#66,.T.);
#46=FACE_OUTER_BOUND('',#67,.T.);
#47=FACE_OUTER_BOUND('',#68,.T.);
#48=FACE_OUTER_BOUND('',#73,.T.);
#49=FACE_OUTER_BOUND('',#74,.T.);
#50=FACE_OUTER_BOUND('',#75,.T.);
#51=FACE_OUTER_BOUND('',#76,.T.);
#52=FACE_OUTER_BOUND('',#77,.T.);
#53=EDGE_LOOP('',(#235,#236,#237,#238));
#54=EDGE_LOOP('',(#239,#240,#241,#242));
#55=EDGE_LOOP('',(#243,#244,#245,#246));
#56=EDGE_LOOP('',(#247,#248,#249,#250));
#57=EDGE_LOOP('',(#251,#252,#253,#254,#255));
#58=EDGE_LOOP('',(#256,#257,#258,#259,#260));
#59=EDGE_LOOP('',(#261,#262,#263,#264));
#60=EDGE_LOOP('',(#265,#266,#267,#268));
#61=EDGE_LOOP('',(#269));
#62=EDGE_LOOP('',(#270));
#63=EDGE_LOOP('',(#271,#272,#273,#274));
#64=EDGE_LOOP('',(#275));
#65=EDGE_LOOP('',(#276));
#66=EDGE_LOOP('',(#277,#278,#279,#280));
#67=EDGE_LOOP('',(#281,#282,#283,#284));
#68=EDGE_LOOP('',(#285,#286,#287,#288,#289,#290,#291,#292));
#69=EDGE_LOOP('',(#293));
#70=EDGE_LOOP('',(#294));
#71=EDGE_LOOP('',(#295));
#72=EDGE_LOOP('',(#296));
#73=EDGE_LOOP('',(#297,#298,#299,#300));
#74=EDGE_LOOP('',(#301,#302,#303,#304));
#75=EDGE_LOOP('',(#305,#306,#307,#308,#309,#310,#311,#312));
#76=EDGE_LOOP('',(#313,#314,#315,#316,#317,#318));
#77=EDGE_LOOP('',(#319,#320,#321,#322,#323,#324));
#78=LINE('',#488,#115);
#79=LINE('',#494,#116);
#80=LINE('',#500,#117);
#81=LINE('',#506,#118);
#82=LINE('',#511,#119);
#83=LINE('',#513,#120);
#84=LINE('',#515,#121);
#85=LINE('',#517,#122);
#86=LINE('',#518,#123);
#87=LINE('',#522,#124);
#88=LINE('',#524,#125);
#89=LINE('',#526,#126);
#90=LINE('',#528,#127);
#91=LINE('',#529,#128);
#92=LINE('',#531,#129);
#93=LINE('',#532,#130);
#94=LINE('',#535,#131);
#95=LINE('',#537,#132);
#96=LINE('',#538,#133);
#97=LINE('',#541,#134);
#98=LINE('',#543,#135);
#99=LINE('',#544,#136);
#100=LINE('',#547,#137);
#101=LINE('',#548,#138);
#102=LINE('',#551,#139);
#103=LINE('',#552,#140);
#104=LINE('',#555,#141);
#105=LINE('',#557,#142);
#106=LINE('',#558,#143);
#107=LINE('',#562,#144);
#108=LINE('',#564,#145);
#109=LINE('',#566,#146);
#110=LINE('',#567,#147);
#111=LINE('',#569,#148);
#112=LINE('',#570,#149);
#113=LINE('',#572,#150);
#114=LINE('',#573,#151);
#115=VECTOR('',#400,1.6);
#116=VECTOR('',#407,1.6);
#117=VECTOR('',#414,1.6);
#118=VECTOR('',#421,1.6);
#119=VECTOR('',#426,10.);
#120=VECTOR('',#427,10.);
#121=VECTOR('',#428,10.);
#122=VECTOR('',#429,10.);
#123=VECTOR('',#430,10.);
#124=VECTOR('',#433,10.);
#125=VECTOR('',#434,10.);
#126=VECTOR('',#435,10.);
#127=VECTOR('',#436,10.);
#128=VECTOR('',#437,10.);
#129=VECTOR('',#440,10.);
#130=VECTOR('',#441,10.);
#131=VECTOR('',#444,10.);
#132=VECTOR('',#445,10.);
#133=VECTOR('',#446,10.);
#134=VECTOR('',#449,10.);
#135=VECTOR('',#450,10.);
#136=VECTOR('',#451,10.);
#137=VECTOR('',#454,10.);
#138=VECTOR('',#455,10.);
#139=VECTOR('',#458,10.);
#140=VECTOR('',#459,10.);
#141=VECTOR('',#462,10.);
#142=VECTOR('',#463,10.);
#143=VECTOR('',#464,10.);
#144=VECTOR('',#467,10.);
#145=VECTOR('',#468,10.);
#146=VECTOR('',#469,10.);
#147=VECTOR('',#470,10.);
#148=VECTOR('',#473,10.);
#149=VECTOR('',#474,10.);
#150=VECTOR('',#477,10.);
#151=VECTOR('',#478,10.);
#152=CIRCLE('',#370,1.6);
#153=CIRCLE('',#371,1.6);
#154=CIRCLE('',#373,1.6);
#155=CIRCLE('',#374,1.6);
#156=CIRCLE('',#376,1.6);
#157=CIRCLE('',#377,1.6);
#158=CIRCLE('',#379,1.6);
#159=CIRCLE('',#380,1.6);
#160=VERTEX_POINT('',#485);
#161=VERTEX_POINT('',#487);
#162=VERTEX_POINT('',#491);
#163=VERTEX_POINT('',#493);
#164=VERTEX_POINT('',#497);
#165=VERTEX_POINT('',#499);
#166=VERTEX_POINT('',#503);
#167=VERTEX_POINT('',#505);
#168=VERTEX_POINT('',#509);
#169=VERTEX_POINT('',#510);
#170=VERTEX_POINT('',#512);
#171=VERTEX_POINT('',#514);
#172=VERTEX_POINT('',#516);
#173=VERTEX_POINT('',#520);
#174=VERTEX_POINT('',#521);
#175=VERTEX_POINT('',#523);
#176=VERTEX_POINT('',#525);
#177=VERTEX_POINT('',#527);
#178=VERTEX_POINT('',#534);
#179=VERTEX_POINT('',#536);
#180=VERTEX_POINT('',#540);
#181=VERTEX_POINT('',#542);
#182=VERTEX_POINT('',#546);
#183=VERTEX_POINT('',#550);
#184=VERTEX_POINT('',#554);
#185=VERTEX_POINT('',#556);
#186=VERTEX_POINT('',#560);
#187=VERTEX_POINT('',#561);
#188=VERTEX_POINT('',#563);
#189=VERTEX_POINT('',#565);
#190=EDGE_CURVE('',#160,#160,#152,.T.);
#191=EDGE_CURVE('',#160,#161,#78,.T.);
#192=EDGE_CURVE('',#161,#161,#153,.T.);
#193=EDGE_CURVE('',#162,#162,#154,.T.);
#194=EDGE_CURVE('',#162,#163,#79,.T.);
#195=EDGE_CURVE('',#163,#163,#155,.T.);
#196=EDGE_CURVE('',#164,#164,#156,.T.);
#197=EDGE_CURVE('',#164,#165,#80,.T.);
#198=EDGE_CURVE('',#165,#165,#157,.T.);
#199=EDGE_CURVE('',#166,#166,#158,.T.);
#200=EDGE_CURVE('',#166,#167,#81,.T.);
#201=EDGE_CURVE('',#167,#167,#159,.T.);
#202=EDGE_CURVE('',#168,#169,#82,.T.);
#203=EDGE_CURVE('',#170,#168,#83,.T.);
#204=EDGE_CURVE('',#171,#170,#84,.T.);
#205=EDGE_CURVE('',#172,#171,#85,.T.);
#206=EDGE_CURVE('',#169,#172,#86,.T.);
#207=EDGE_CURVE('',#173,#174,#87,.T.);
#208=EDGE_CURVE('',#175,#173,#88,.T.);
#209=EDGE_CURVE('',#176,#175,#89,.T.);
#210=EDGE_CURVE('',#177,#176,#90,.T.);
#211=EDGE_CURVE('',#177,#174,#91,.T.);
#212=EDGE_CURVE('',#174,#168,#92,.T.);
#213=EDGE_CURVE('',#170,#177,#93,.T.);
#214=EDGE_CURVE('',#178,#173,#94,.T.);
#215=EDGE_CURVE('',#178,#179,#95,.T.);
#216=EDGE_CURVE('',#179,#175,#96,.T.);
#217=EDGE_CURVE('',#172,#180,#97,.T.);
#218=EDGE_CURVE('',#181,#180,#98,.T.);
#219=EDGE_CURVE('',#169,#181,#99,.T.);
#220=EDGE_CURVE('',#179,#182,#100,.T.);
#221=EDGE_CURVE('',#182,#176,#101,.T.);
#222=EDGE_CURVE('',#171,#183,#102,.T.);
#223=EDGE_CURVE('',#180,#183,#103,.T.);
#224=EDGE_CURVE('',#182,#184,#104,.T.);
#225=EDGE_CURVE('',#184,#185,#105,.T.);
#226=EDGE_CURVE('',#183,#185,#106,.T.);
#227=EDGE_CURVE('',#186,#187,#107,.T.);
#228=EDGE_CURVE('',#187,#188,#108,.T.);
#229=EDGE_CURVE('',#189,#188,#109,.T.);
#230=EDGE_CURVE('',#186,#189,#110,.T.);
#231=EDGE_CURVE('',#184,#186,#111,.T.);
#232=EDGE_CURVE('',#185,#189,#112,.T.);
#233=EDGE_CURVE('',#188,#181,#113,.T.);
#234=EDGE_CURVE('',#187,#178,#114,.T.);
#235=ORIENTED_EDGE('',*,*,#190,.F.);
#236=ORIENTED_EDGE('',*,*,#191,.T.);
#237=ORIENTED_EDGE('',*,*,#192,.F.);
#238=ORIENTED_EDGE('',*,*,#191,.F.);
#239=ORIENTED_EDGE('',*,*,#193,.F.);
#240=ORIENTED_EDGE('',*,*,#194,.T.);
#241=ORIENTED_EDGE('',*,*,#195,.F.);
#242=ORIENTED_EDGE('',*,*,#194,.F.);
#243=ORIENTED_EDGE('',*,*,#196,.F.);
#244=ORIENTED_EDGE('',*,*,#197,.T.);
#245=ORIENTED_EDGE('',*,*,#198,.F.);
#246=ORIENTED_EDGE('',*,*,#197,.F.);
#247=ORIENTED_EDGE('',*,*,#199,.F.);
#248=ORIENTED_EDGE('',*,*,#200,.T.);
#249=ORIENTED_EDGE('',*,*,#201,.F.);
#250=ORIENTED_EDGE('',*,*,#200,.F.);
#251=ORIENTED_EDGE('',*,*,#202,.F.);
#252=ORIENTED_EDGE('',*,*,#203,.F.);
#253=ORIENTED_EDGE('',*,*,#204,.F.);
#254=ORIENTED_EDGE('',*,*,#205,.F.);
#255=ORIENTED_EDGE('',*,*,#206,.F.);
#256=ORIENTED_EDGE('',*,*,#207,.F.);
#257=ORIENTED_EDGE('',*,*,#208,.F.);
#258=ORIENTED_EDGE('',*,*,#209,.F.);
#259=ORIENTED_EDGE('',*,*,#210,.F.);
#260=ORIENTED_EDGE('',*,*,#211,.T.);
#261=ORIENTED_EDGE('',*,*,#212,.F.);
#262=ORIENTED_EDGE('',*,*,#211,.F.);
#263=ORIENTED_EDGE('',*,*,#213,.F.);
#264=ORIENTED_EDGE('',*,*,#203,.T.);
#265=ORIENTED_EDGE('',*,*,#208,.T.);
#266=ORIENTED_EDGE('',*,*,#214,.F.);
#267=ORIENTED_EDGE('',*,*,#215,.T.);
#268=ORIENTED_EDGE('',*,*,#216,.T.);
#269=ORIENTED_EDGE('',*,*,#195,.T.);
#270=ORIENTED_EDGE('',*,*,#201,.T.);
#271=ORIENTED_EDGE('',*,*,#206,.T.);
#272=ORIENTED_EDGE('',*,*,#217,.T.);
#273=ORIENTED_EDGE('',*,*,#218,.F.);
#274=ORIENTED_EDGE('',*,*,#219,.F.);
#275=ORIENTED_EDGE('',*,*,#192,.T.);
#276=ORIENTED_EDGE('',*,*,#198,.T.);
#277=ORIENTED_EDGE('',*,*,#209,.T.);
#278=ORIENTED_EDGE('',*,*,#216,.F.);
#279=ORIENTED_EDGE('',*,*,#220,.T.);
#280=ORIENTED_EDGE('',*,*,#221,.T.);
#281=ORIENTED_EDGE('',*,*,#205,.T.);
#282=ORIENTED_EDGE('',*,*,#222,.T.);
#283=ORIENTED_EDGE('',*,*,#223,.F.);
#284=ORIENTED_EDGE('',*,*,#217,.F.);
#285=ORIENTED_EDGE('',*,*,#204,.T.);
#286=ORIENTED_EDGE('',*,*,#213,.T.);
#287=ORIENTED_EDGE('',*,*,#210,.T.);
#288=ORIENTED_EDGE('',*,*,#221,.F.);
#289=ORIENTED_EDGE('',*,*,#224,.T.);
#290=ORIENTED_EDGE('',*,*,#225,.T.);
#291=ORIENTED_EDGE('',*,*,#226,.F.);
#292=ORIENTED_EDGE('',*,*,#222,.F.);
#293=ORIENTED_EDGE('',*,*,#190,.T.);
#294=ORIENTED_EDGE('',*,*,#193,.T.);
#295=ORIENTED_EDGE('',*,*,#196,.T.);
#296=ORIENTED_EDGE('',*,*,#199,.T.);
#297=ORIENTED_EDGE('',*,*,#227,.T.);
#298=ORIENTED_EDGE('',*,*,#228,.T.);
#299=ORIENTED_EDGE('',*,*,#229,.F.);
#300=ORIENTED_EDGE('',*,*,#230,.F.);
#301=ORIENTED_EDGE('',*,*,#231,.T.);
#302=ORIENTED_EDGE('',*,*,#230,.T.);
#303=ORIENTED_EDGE('',*,*,#232,.F.);
#304=ORIENTED_EDGE('',*,*,#225,.F.);
#305=ORIENTED_EDGE('',*,*,#202,.T.);
#306=ORIENTED_EDGE('',*,*,#219,.T.);
#307=ORIENTED_EDGE('',*,*,#233,.F.);
#308=ORIENTED_EDGE('',*,*,#228,.F.);
#309=ORIENTED_EDGE('',*,*,#234,.T.);
#310=ORIENTED_EDGE('',*,*,#214,.T.);
#311=ORIENTED_EDGE('',*,*,#207,.T.);
#312=ORIENTED_EDGE('',*,*,#212,.T.);
#313=ORIENTED_EDGE('',*,*,#233,.T.);
#314=ORIENTED_EDGE('',*,*,#218,.T.);
#315=ORIENTED_EDGE('',*,*,#223,.T.);
#316=ORIENTED_EDGE('',*,*,#226,.T.);
#317=ORIENTED_EDGE('',*,*,#232,.T.);
#318=ORIENTED_EDGE('',*,*,#229,.T.);
#319=ORIENTED_EDGE('',*,*,#234,.F.);
#320=ORIENTED_EDGE('',*,*,#227,.F.);
#321=ORIENTED_EDGE('',*,*,#231,.F.);
#322=ORIENTED_EDGE('',*,*,#224,.F.);
#323=ORIENTED_EDGE('',*,*,#220,.F.);
#324=ORIENTED_EDGE('',*,*,#215,.F.);
#325=CYLINDRICAL_SURFACE('',#369,1.6);
#326=CYLINDRICAL_SURFACE('',#372,1.6);
#327=CYLINDRICAL_SURFACE('',#375,1.6);
#328=CYLINDRICAL_SURFACE('',#378,1.6);
#329=ADVANCED_FACE('',(#36),#325,.F.);
#330=ADVANCED_FACE('',(#37),#326,.F.);
#331=ADVANCED_FACE('',(#38),#327,.F.);
#332=ADVANCED_FACE('',(#39),#328,.F.);
#333=ADVANCED_FACE('',(#40),#23,.F.);
#334=ADVANCED_FACE('',(#41),#24,.F.);
#335=ADVANCED_FACE('',(#42),#25,.F.);
#336=ADVANCED_FACE('',(#43,#15,#16),#26,.T.);
#337=ADVANCED_FACE('',(#44,#17,#18),#27,.T.);
#338=ADVANCED_FACE('',(#45),#28,.T.);
#339=ADVANCED_FACE('',(#46),#29,.T.);
#340=ADVANCED_FACE('',(#47,#19,#20,#21,#22),#30,.T.);
#341=ADVANCED_FACE('',(#48),#31,.T.);
#342=ADVANCED_FACE('',(#49),#32,.T.);
#343=ADVANCED_FACE('',(#50),#33,.T.);
#344=ADVANCED_FACE('',(#51),#34,.T.);
#345=ADVANCED_FACE('',(#52),#35,.F.);
#346=CLOSED_SHELL('',(#329,#330,#331,#332,#333,#334,#335,#336,#337,#338,
#339,#340,#341,#342,#343,#344,#345));
#347=DERIVED_UNIT_ELEMENT(#350,1.);
#348=DERIVED_UNIT_ELEMENT(#581,-3.);
#349=DIMENSIONAL_EXPONENTS(0.,1.,0.,0.,0.,0.,0.);
#350=(
CONVERSION_BASED_UNIT('gram',#352)
MASS_UNIT()
NAMED_UNIT(#349)
);
#351=(
MASS_UNIT()
NAMED_UNIT(*)
SI_UNIT(.KILO.,.GRAM.)
);
#352=MASS_MEASURE_WITH_UNIT(MASS_MEASURE(0.001),#351);
#353=DERIVED_UNIT((#347,#348));
#354=MEASURE_REPRESENTATION_ITEM('density measure',
POSITIVE_RATIO_MEASURE(1.),#353);
#355=PROPERTY_DEFINITION_REPRESENTATION(#360,#357);
#356=PROPERTY_DEFINITION_REPRESENTATION(#361,#358);
#357=REPRESENTATION('material name',(#359),#578);
#358=REPRESENTATION('density',(#354),#578);
#359=DESCRIPTIVE_REPRESENTATION_ITEM('\X2\4E00822C\X0\','\X2\4E00822C\X0\');
#360=PROPERTY_DEFINITION('material property','material name',#588);
#361=PROPERTY_DEFINITION('material property','density of part',#588);
#362=DATE_TIME_ROLE('creation_date');
#363=APPLIED_DATE_AND_TIME_ASSIGNMENT(#364,#362,(#588));
#364=DATE_AND_TIME(#365,#366);
#365=CALENDAR_DATE(2026,6,5);
#366=LOCAL_TIME(0,0,0.,#367);
#367=COORDINATED_UNIVERSAL_TIME_OFFSET(0,0,.BEHIND.);
#368=AXIS2_PLACEMENT_3D('',#483,#394,#395);
#369=AXIS2_PLACEMENT_3D('',#484,#396,#397);
#370=AXIS2_PLACEMENT_3D('',#486,#398,#399);
#371=AXIS2_PLACEMENT_3D('',#489,#401,#402);
#372=AXIS2_PLACEMENT_3D('',#490,#403,#404);
#373=AXIS2_PLACEMENT_3D('',#492,#405,#406);
#374=AXIS2_PLACEMENT_3D('',#495,#408,#409);
#375=AXIS2_PLACEMENT_3D('',#496,#410,#411);
#376=AXIS2_PLACEMENT_3D('',#498,#412,#413);
#377=AXIS2_PLACEMENT_3D('',#501,#415,#416);
#378=AXIS2_PLACEMENT_3D('',#502,#417,#418);
#379=AXIS2_PLACEMENT_3D('',#504,#419,#420);
#380=AXIS2_PLACEMENT_3D('',#507,#422,#423);
#381=AXIS2_PLACEMENT_3D('',#508,#424,#425);
#382=AXIS2_PLACEMENT_3D('',#519,#431,#432);
#383=AXIS2_PLACEMENT_3D('',#530,#438,#439);
#384=AXIS2_PLACEMENT_3D('',#533,#442,#443);
#385=AXIS2_PLACEMENT_3D('',#539,#447,#448);
#386=AXIS2_PLACEMENT_3D('',#545,#452,#453);
#387=AXIS2_PLACEMENT_3D('',#549,#456,#457);
#388=AXIS2_PLACEMENT_3D('',#553,#460,#461);
#389=AXIS2_PLACEMENT_3D('',#559,#465,#466);
#390=AXIS2_PLACEMENT_3D('',#568,#471,#472);
#391=AXIS2_PLACEMENT_3D('',#571,#475,#476);
#392=AXIS2_PLACEMENT_3D('',#574,#479,#480);
#393=AXIS2_PLACEMENT_3D('',#575,#481,#482);
#394=DIRECTION('axis',(0.,0.,1.));
#395=DIRECTION('refdir',(1.,0.,0.));
#396=DIRECTION('center_axis',(0.,1.,0.));
#397=DIRECTION('ref_axis',(1.,0.,0.));
#398=DIRECTION('center_axis',(0.,-1.,0.));
#399=DIRECTION('ref_axis',(1.,0.,0.));
#400=DIRECTION('',(0.,-1.,0.));
#401=DIRECTION('center_axis',(-7.74747511420635E-17,1.,0.));
#402=DIRECTION('ref_axis',(1.,0.,0.));
#403=DIRECTION('center_axis',(0.,1.,0.));
#404=DIRECTION('ref_axis',(1.,0.,0.));
#405=DIRECTION('center_axis',(0.,-1.,0.));
#406=DIRECTION('ref_axis',(1.,0.,0.));
#407=DIRECTION('',(0.,-1.,0.));
#408=DIRECTION('center_axis',(-7.74747511420635E-17,1.,0.));
#409=DIRECTION('ref_axis',(1.,0.,0.));
#410=DIRECTION('center_axis',(0.,1.,0.));
#411=DIRECTION('ref_axis',(1.,0.,0.));
#412=DIRECTION('center_axis',(0.,-1.,0.));
#413=DIRECTION('ref_axis',(1.,0.,0.));
#414=DIRECTION('',(0.,-1.,0.));
#415=DIRECTION('center_axis',(-7.74747511420635E-17,1.,0.));
#416=DIRECTION('ref_axis',(1.,0.,0.));
#417=DIRECTION('center_axis',(0.,1.,0.));
#418=DIRECTION('ref_axis',(1.,0.,0.));
#419=DIRECTION('center_axis',(0.,-1.,0.));
#420=DIRECTION('ref_axis',(1.,0.,0.));
#421=DIRECTION('',(0.,-1.,0.));
#422=DIRECTION('center_axis',(-7.74747511420635E-17,1.,0.));
#423=DIRECTION('ref_axis',(1.,0.,0.));
#424=DIRECTION('center_axis',(0.,0.,1.));
#425=DIRECTION('ref_axis',(-1.,0.,0.));
#426=DIRECTION('',(0.866025403784439,0.5,0.));
#427=DIRECTION('',(0.,-1.,0.));
#428=DIRECTION('',(-1.,0.,0.));
#429=DIRECTION('',(0.,1.,0.));
#430=DIRECTION('',(1.,7.74747511420635E-17,0.));
#431=DIRECTION('center_axis',(0.,0.,-1.));
#432=DIRECTION('ref_axis',(1.,0.,0.));
#433=DIRECTION('',(-0.866025403784439,-0.5,0.));
#434=DIRECTION('',(-1.,-7.74747511420635E-17,0.));
#435=DIRECTION('',(0.,-1.,0.));
#436=DIRECTION('',(1.,0.,0.));
#437=DIRECTION('',(0.,-1.,0.));
#438=DIRECTION('center_axis',(-1.,0.,1.83707216105944E-16));
#439=DIRECTION('ref_axis',(-1.83707216105944E-16,0.,-1.));
#440=DIRECTION('',(1.83707216105944E-16,1.06063410670843E-16,1.));
#441=DIRECTION('',(-1.83707216105944E-16,0.,-1.));
#442=DIRECTION('center_axis',(7.74747511420635E-17,-1.,0.));
#443=DIRECTION('ref_axis',(1.,7.74747511420635E-17,0.));
#444=DIRECTION('',(0.,0.,1.));
#445=DIRECTION('',(1.,7.74747511420635E-17,0.));
#446=DIRECTION('',(0.,0.,1.));
#447=DIRECTION('center_axis',(7.74747511420635E-17,-1.,0.));
#448=DIRECTION('ref_axis',(1.,7.74747511420635E-17,0.));
#449=DIRECTION('',(0.,0.,1.));
#450=DIRECTION('',(1.,7.74747511420635E-17,0.));
#451=DIRECTION('',(0.,0.,1.));
#452=DIRECTION('center_axis',(1.,0.,0.));
#453=DIRECTION('ref_axis',(0.,1.,0.));
#454=DIRECTION('',(0.,1.,0.));
#455=DIRECTION('',(0.,0.,1.));
#456=DIRECTION('center_axis',(1.,0.,0.));
#457=DIRECTION('ref_axis',(0.,1.,0.));
#458=DIRECTION('',(0.,0.,1.));
#459=DIRECTION('',(0.,1.,0.));
#460=DIRECTION('center_axis',(0.,1.,0.));
#461=DIRECTION('ref_axis',(-1.,0.,0.));
#462=DIRECTION('',(-1.,0.,0.));
#463=DIRECTION('',(0.,0.,1.));
#464=DIRECTION('',(-1.,0.,0.));
#465=DIRECTION('center_axis',(1.22514845490862E-16,-1.,0.));
#466=DIRECTION('ref_axis',(1.,1.22514845490862E-16,0.));
#467=DIRECTION('',(1.,1.22514845490862E-16,0.));
#468=DIRECTION('',(0.,0.,1.));
#469=DIRECTION('',(1.,1.22514845490862E-16,0.));
#470=DIRECTION('',(0.,0.,1.));
#471=DIRECTION('center_axis',(-0.5,0.866025403784439,0.));
#472=DIRECTION('ref_axis',(-0.866025403784439,-0.5,0.));
#473=DIRECTION('',(-0.866025403784439,-0.5,0.));
#474=DIRECTION('',(-0.866025403784439,-0.5,0.));
#475=DIRECTION('center_axis',(0.5,-0.866025403784439,0.));
#476=DIRECTION('ref_axis',(0.866025403784439,0.5,0.));
#477=DIRECTION('',(0.866025403784439,0.5,0.));
#478=DIRECTION('',(0.866025403784439,0.5,0.));
#479=DIRECTION('center_axis',(0.,0.,1.));
#480=DIRECTION('ref_axis',(1.,0.,0.));
#481=DIRECTION('center_axis',(0.,0.,1.));
#482=DIRECTION('ref_axis',(1.,0.,0.));
#483=CARTESIAN_POINT('',(0.,0.,0.));
#484=CARTESIAN_POINT('Origin',(40.9807621135332,10.,240.));
#485=CARTESIAN_POINT('',(39.3807621135332,15.,240.));
#486=CARTESIAN_POINT('Origin',(40.9807621135332,15.,240.));
#487=CARTESIAN_POINT('',(39.3807621135332,10.,240.));
#488=CARTESIAN_POINT('',(39.3807621135332,10.,240.));
#489=CARTESIAN_POINT('Origin',(40.9807621135332,10.,240.));
#490=CARTESIAN_POINT('Origin',(40.9807621135332,10.,60.));
#491=CARTESIAN_POINT('',(39.3807621135332,15.,60.));
#492=CARTESIAN_POINT('Origin',(40.9807621135332,15.,60.));
#493=CARTESIAN_POINT('',(39.3807621135332,10.,60.));
#494=CARTESIAN_POINT('',(39.3807621135332,10.,60.));
#495=CARTESIAN_POINT('Origin',(40.9807621135332,10.,60.));
#496=CARTESIAN_POINT('Origin',(40.9807621135332,10.,200.));
#497=CARTESIAN_POINT('',(39.3807621135332,15.,200.));
#498=CARTESIAN_POINT('Origin',(40.9807621135332,15.,200.));
#499=CARTESIAN_POINT('',(39.3807621135332,10.,200.));
#500=CARTESIAN_POINT('',(39.3807621135332,10.,200.));
#501=CARTESIAN_POINT('Origin',(40.9807621135332,10.,200.));
#502=CARTESIAN_POINT('Origin',(40.9807621135332,10.,20.));
#503=CARTESIAN_POINT('',(39.3807621135332,15.,20.));
#504=CARTESIAN_POINT('Origin',(40.9807621135332,15.,20.));
#505=CARTESIAN_POINT('',(39.3807621135332,10.,20.));
#506=CARTESIAN_POINT('',(39.3807621135332,10.,20.));
#507=CARTESIAN_POINT('Origin',(40.9807621135332,10.,20.));
#508=CARTESIAN_POINT('Origin',(60.0315489433195,15.,180.));
#509=CARTESIAN_POINT('',(26.0315489433195,9.25581909795218,180.));
#510=CARTESIAN_POINT('',(27.3205080756888,10.,180.));
#511=CARTESIAN_POINT('',(32.0094261179365,12.7071480938998,180.));
#512=CARTESIAN_POINT('',(26.0315489433195,15.,180.));
#513=CARTESIAN_POINT('',(26.0315489433195,15.,180.));
#514=CARTESIAN_POINT('',(55.9807621135332,15.,180.));
#515=CARTESIAN_POINT('',(58.0061555284263,15.,180.));
#516=CARTESIAN_POINT('',(55.9807621135332,10.,180.));
#517=CARTESIAN_POINT('',(55.9807621135332,12.5,180.));
#518=CARTESIAN_POINT('',(43.6760285095041,10.,180.));
#519=CARTESIAN_POINT('Origin',(26.0315489433195,15.,80.));
#520=CARTESIAN_POINT('',(27.3205080756888,10.,80.));
#521=CARTESIAN_POINT('',(26.0315489433195,9.25581909795217,80.));
#522=CARTESIAN_POINT('',(19.2594261179365,5.34593216173207,80.));
#523=CARTESIAN_POINT('',(55.9807621135332,10.,80.));
#524=CARTESIAN_POINT('',(26.6760285095041,10.,80.));
#525=CARTESIAN_POINT('',(55.9807621135332,15.,80.));
#526=CARTESIAN_POINT('',(55.9807621135332,12.5,80.));
#527=CARTESIAN_POINT('',(26.0315489433195,15.,80.));
#528=CARTESIAN_POINT('',(41.0061555284263,15.,80.));
#529=CARTESIAN_POINT('',(26.0315489433195,15.,80.));
#530=CARTESIAN_POINT('Origin',(26.0315489433195,15.,180.));
#531=CARTESIAN_POINT('',(26.0315489433195,9.25581909795217,90.));
#532=CARTESIAN_POINT('',(26.0315489433195,15.,90.));
#533=CARTESIAN_POINT('Origin',(27.3205080756888,10.,0.));
#534=CARTESIAN_POINT('',(27.3205080756888,10.,0.));
#535=CARTESIAN_POINT('',(27.3205080756888,10.,0.));
#536=CARTESIAN_POINT('',(55.9807621135332,10.,0.));
#537=CARTESIAN_POINT('',(27.3205080756888,10.,0.));
#538=CARTESIAN_POINT('',(55.9807621135332,10.,0.));
#539=CARTESIAN_POINT('Origin',(27.3205080756888,10.,0.));
#540=CARTESIAN_POINT('',(55.9807621135332,10.,260.));
#541=CARTESIAN_POINT('',(55.9807621135332,10.,0.));
#542=CARTESIAN_POINT('',(27.3205080756888,10.,260.));
#543=CARTESIAN_POINT('',(27.3205080756888,10.,260.));
#544=CARTESIAN_POINT('',(27.3205080756888,10.,0.));
#545=CARTESIAN_POINT('Origin',(55.9807621135332,10.,0.));
#546=CARTESIAN_POINT('',(55.9807621135332,15.,0.));
#547=CARTESIAN_POINT('',(55.9807621135332,10.,0.));
#548=CARTESIAN_POINT('',(55.9807621135332,15.,0.));
#549=CARTESIAN_POINT('Origin',(55.9807621135332,10.,0.));
#550=CARTESIAN_POINT('',(55.9807621135332,15.,260.));
#551=CARTESIAN_POINT('',(55.9807621135332,15.,0.));
#552=CARTESIAN_POINT('',(55.9807621135332,10.,260.));
#553=CARTESIAN_POINT('Origin',(55.9807621135332,15.,0.));
#554=CARTESIAN_POINT('',(25.9807621135332,15.,0.));
#555=CARTESIAN_POINT('',(55.9807621135332,15.,0.));
#556=CARTESIAN_POINT('',(25.9807621135332,15.,260.));
#557=CARTESIAN_POINT('',(25.9807621135332,15.,0.));
#558=CARTESIAN_POINT('',(55.9807621135332,15.,260.));
#559=CARTESIAN_POINT('Origin',(0.,0.,0.));
#560=CARTESIAN_POINT('',(0.,0.,0.));
#561=CARTESIAN_POINT('',(10.,1.22514845490862E-15,0.));
#562=CARTESIAN_POINT('',(0.,0.,0.));
#563=CARTESIAN_POINT('',(10.,1.22514845490862E-15,260.));
#564=CARTESIAN_POINT('',(10.,1.22514845490862E-15,0.));
#565=CARTESIAN_POINT('',(0.,0.,260.));
#566=CARTESIAN_POINT('',(0.,0.,260.));
#567=CARTESIAN_POINT('',(0.,0.,0.));
#568=CARTESIAN_POINT('Origin',(25.9807621135332,15.,0.));
#569=CARTESIAN_POINT('',(25.9807621135332,15.,0.));
#570=CARTESIAN_POINT('',(25.9807621135332,15.,260.));
#571=CARTESIAN_POINT('Origin',(10.,6.58213710600131E-16,0.));
#572=CARTESIAN_POINT('',(10.,1.11022302462516E-15,260.));
#573=CARTESIAN_POINT('',(10.,1.11022302462516E-15,0.));
#574=CARTESIAN_POINT('Origin',(27.9903810567666,7.5,260.));
#575=CARTESIAN_POINT('Origin',(27.9903810567666,7.5,0.));
#576=UNCERTAINTY_MEASURE_WITH_UNIT(LENGTH_MEASURE(0.01),#580,
'DISTANCE_ACCURACY_VALUE',
'Maximum model space distance between geometric entities at asserted c
onnectivities');
#577=UNCERTAINTY_MEASURE_WITH_UNIT(LENGTH_MEASURE(0.01),#580,
'DISTANCE_ACCURACY_VALUE',
'Maximum model space distance between geometric entities at asserted c
onnectivities');
#578=(
GEOMETRIC_REPRESENTATION_CONTEXT(3)
GLOBAL_UNCERTAINTY_ASSIGNED_CONTEXT((#576))
GLOBAL_UNIT_ASSIGNED_CONTEXT((#580,#582,#583))
REPRESENTATION_CONTEXT('','3D')
);
#579=(
GEOMETRIC_REPRESENTATION_CONTEXT(3)
GLOBAL_UNCERTAINTY_ASSIGNED_CONTEXT((#577))
GLOBAL_UNIT_ASSIGNED_CONTEXT((#580,#582,#583))
REPRESENTATION_CONTEXT('','3D')
);
#580=(
LENGTH_UNIT()
NAMED_UNIT(*)
SI_UNIT(.MILLI.,.METRE.)
);
#581=(
LENGTH_UNIT()
NAMED_UNIT(*)
SI_UNIT(.CENTI.,.METRE.)
);
#582=(
NAMED_UNIT(*)
PLANE_ANGLE_UNIT()
SI_UNIT($,.RADIAN.)
);
#583=(
NAMED_UNIT(*)
SI_UNIT($,.STERADIAN.)
SOLID_ANGLE_UNIT()
);
#584=SHAPE_DEFINITION_REPRESENTATION(#585,#586);
#585=PRODUCT_DEFINITION_SHAPE('',$,#588);
#586=SHAPE_REPRESENTATION('',(#368),#578);
#587=PRODUCT_DEFINITION_CONTEXT('part definition',#592,'design');
#588=PRODUCT_DEFINITION('\X2\30D030F330D130FC\X0\','\X2\30D030F330D130FC\X0\',
#589,#587);
#589=PRODUCT_DEFINITION_FORMATION('',$,#594);
#590=PRODUCT_RELATED_PRODUCT_CATEGORY('\X2\30D030F330D130FC\X0\',
'\X2\30D030F330D130FC\X0\',(#594));
#591=APPLICATION_PROTOCOL_DEFINITION('international standard',
'automotive_design',2009,#592);
#592=APPLICATION_CONTEXT(
'Core Data for Automotive Mechanical Design Process');
#593=PRODUCT_CONTEXT('part definition',#592,'mechanical');
#594=PRODUCT('\X2\30D030F330D130FC\X0\','\X2\30D030F330D130FC\X0\',$,(#593));
#595=PRESENTATION_STYLE_ASSIGNMENT((#596));
#596=SURFACE_STYLE_USAGE(.BOTH.,#599);
#597=SURFACE_STYLE_RENDERING_WITH_PROPERTIES($,#603,(#598));
#598=SURFACE_STYLE_TRANSPARENT(0.);
#599=SURFACE_SIDE_STYLE('',(#600,#597));
#600=SURFACE_STYLE_FILL_AREA(#601);
#601=FILL_AREA_STYLE('',(#602));
#602=FILL_AREA_STYLE_COLOUR('',#603);
#603=COLOUR_RGB('',0.749019607843137,0.749019607843137,0.749019607843137);
ENDSEC;
END-ISO-10303-21;
