ISO-10303-21;
HEADER;
/* Generated by software containing ST-Developer
 * from STEP Tools, Inc. (www.steptools.com) 
 */

FILE_DESCRIPTION(
/* description */ (''),
/* implementation_level */ '2;1');

FILE_NAME(
/* name */ '',
/* time_stamp */ '2026-06-01T05:25:23+09:00',
/* author */ ('Yagis'),
/* organization */ (''),
/* preprocessor_version */ 'ST-DEVELOPER v20.1',
/* originating_system */ 'Autodesk Inventor 2026',
/* authorisation */ '');

FILE_SCHEMA (('AUTOMOTIVE_DESIGN { 1 0 10303 214 3 1 1 }'));
ENDSEC;

DATA;
#10=MECHANICAL_DESIGN_GEOMETRIC_PRESENTATION_REPRESENTATION('',(#13),#408);
#11=SHAPE_REPRESENTATION_RELATIONSHIP('SRR','None',#415,#12);
#12=ADVANCED_BREP_SHAPE_REPRESENTATION('',(#14),#407);
#13=STYLED_ITEM('',(#424),#14);
#14=MANIFOLD_SOLID_BREP('\X2\30BD30EA30C330C9\X0\1',#231);
#15=FACE_BOUND('',#57,.T.);
#16=FACE_BOUND('',#58,.T.);
#17=FACE_BOUND('',#59,.T.);
#18=FACE_BOUND('',#60,.T.);
#19=PLANE('',#270);
#20=PLANE('',#271);
#21=PLANE('',#272);
#22=PLANE('',#273);
#23=PLANE('',#274);
#24=PLANE('',#275);
#25=CYLINDRICAL_SURFACE('',#256,1.6);
#26=CYLINDRICAL_SURFACE('',#260,1.6);
#27=CYLINDRICAL_SURFACE('',#264,1.6);
#28=CYLINDRICAL_SURFACE('',#268,1.6);
#29=FACE_OUTER_BOUND('',#43,.T.);
#30=FACE_OUTER_BOUND('',#44,.T.);
#31=FACE_OUTER_BOUND('',#45,.T.);
#32=FACE_OUTER_BOUND('',#46,.T.);
#33=FACE_OUTER_BOUND('',#47,.T.);
#34=FACE_OUTER_BOUND('',#48,.T.);
#35=FACE_OUTER_BOUND('',#49,.T.);
#36=FACE_OUTER_BOUND('',#50,.T.);
#37=FACE_OUTER_BOUND('',#51,.T.);
#38=FACE_OUTER_BOUND('',#52,.T.);
#39=FACE_OUTER_BOUND('',#53,.T.);
#40=FACE_OUTER_BOUND('',#54,.T.);
#41=FACE_OUTER_BOUND('',#55,.T.);
#42=FACE_OUTER_BOUND('',#56,.T.);
#43=EDGE_LOOP('',(#157,#158,#159));
#44=EDGE_LOOP('',(#160,#161,#162,#163));
#45=EDGE_LOOP('',(#164,#165,#166));
#46=EDGE_LOOP('',(#167,#168,#169,#170));
#47=EDGE_LOOP('',(#171,#172,#173));
#48=EDGE_LOOP('',(#174,#175,#176,#177));
#49=EDGE_LOOP('',(#178,#179,#180));
#50=EDGE_LOOP('',(#181,#182,#183,#184));
#51=EDGE_LOOP('',(#185,#186,#187,#188));
#52=EDGE_LOOP('',(#189,#190,#191,#192));
#53=EDGE_LOOP('',(#193,#194,#195,#196));
#54=EDGE_LOOP('',(#197,#198,#199,#200));
#55=EDGE_LOOP('',(#201,#202,#203,#204));
#56=EDGE_LOOP('',(#205,#206,#207,#208));
#57=EDGE_LOOP('',(#209));
#58=EDGE_LOOP('',(#210));
#59=EDGE_LOOP('',(#211));
#60=EDGE_LOOP('',(#212));
#61=LINE('',#347,#81);
#62=LINE('',#351,#82);
#63=LINE('',#356,#83);
#64=LINE('',#360,#84);
#65=LINE('',#365,#85);
#66=LINE('',#369,#86);
#67=LINE('',#374,#87);
#68=LINE('',#378,#88);
#69=LINE('',#382,#89);
#70=LINE('',#384,#90);
#71=LINE('',#386,#91);
#72=LINE('',#387,#92);
#73=LINE('',#390,#93);
#74=LINE('',#392,#94);
#75=LINE('',#393,#95);
#76=LINE('',#396,#96);
#77=LINE('',#398,#97);
#78=LINE('',#399,#98);
#79=LINE('',#401,#99);
#80=LINE('',#402,#100);
#81=VECTOR('',#282,0.8);
#82=VECTOR('',#287,1.6);
#83=VECTOR('',#292,0.8);
#84=VECTOR('',#297,1.6);
#85=VECTOR('',#302,0.8);
#86=VECTOR('',#307,1.6);
#87=VECTOR('',#312,0.8);
#88=VECTOR('',#317,1.6);
#89=VECTOR('',#320,10.);
#90=VECTOR('',#321,10.);
#91=VECTOR('',#322,10.);
#92=VECTOR('',#323,10.);
#93=VECTOR('',#326,10.);
#94=VECTOR('',#327,10.);
#95=VECTOR('',#328,10.);
#96=VECTOR('',#331,10.);
#97=VECTOR('',#332,10.);
#98=VECTOR('',#333,10.);
#99=VECTOR('',#336,10.);
#100=VECTOR('',#337,10.);
#101=CIRCLE('',#255,1.6);
#102=CIRCLE('',#257,1.6);
#103=CIRCLE('',#259,1.6);
#104=CIRCLE('',#261,1.6);
#105=CIRCLE('',#263,1.6);
#106=CIRCLE('',#265,1.6);
#107=CIRCLE('',#267,1.6);
#108=CIRCLE('',#269,1.6);
#109=VERTEX_POINT('',#344);
#110=VERTEX_POINT('',#346);
#111=VERTEX_POINT('',#349);
#112=VERTEX_POINT('',#353);
#113=VERTEX_POINT('',#355);
#114=VERTEX_POINT('',#358);
#115=VERTEX_POINT('',#362);
#116=VERTEX_POINT('',#364);
#117=VERTEX_POINT('',#367);
#118=VERTEX_POINT('',#371);
#119=VERTEX_POINT('',#373);
#120=VERTEX_POINT('',#376);
#121=VERTEX_POINT('',#380);
#122=VERTEX_POINT('',#381);
#123=VERTEX_POINT('',#383);
#124=VERTEX_POINT('',#385);
#125=VERTEX_POINT('',#389);
#126=VERTEX_POINT('',#391);
#127=VERTEX_POINT('',#395);
#128=VERTEX_POINT('',#397);
#129=EDGE_CURVE('',#109,#109,#101,.T.);
#130=EDGE_CURVE('',#109,#110,#61,.T.);
#131=EDGE_CURVE('',#111,#111,#102,.T.);
#132=EDGE_CURVE('',#111,#109,#62,.T.);
#133=EDGE_CURVE('',#112,#112,#103,.T.);
#134=EDGE_CURVE('',#112,#113,#63,.T.);
#135=EDGE_CURVE('',#114,#114,#104,.T.);
#136=EDGE_CURVE('',#114,#112,#64,.T.);
#137=EDGE_CURVE('',#115,#115,#105,.T.);
#138=EDGE_CURVE('',#115,#116,#65,.T.);
#139=EDGE_CURVE('',#117,#117,#106,.T.);
#140=EDGE_CURVE('',#117,#115,#66,.T.);
#141=EDGE_CURVE('',#118,#118,#107,.T.);
#142=EDGE_CURVE('',#118,#119,#67,.T.);
#143=EDGE_CURVE('',#120,#120,#108,.T.);
#144=EDGE_CURVE('',#120,#118,#68,.T.);
#145=EDGE_CURVE('',#121,#122,#69,.T.);
#146=EDGE_CURVE('',#122,#123,#70,.T.);
#147=EDGE_CURVE('',#124,#123,#71,.T.);
#148=EDGE_CURVE('',#121,#124,#72,.T.);
#149=EDGE_CURVE('',#125,#121,#73,.T.);
#150=EDGE_CURVE('',#126,#124,#74,.T.);
#151=EDGE_CURVE('',#125,#126,#75,.T.);
#152=EDGE_CURVE('',#127,#125,#76,.T.);
#153=EDGE_CURVE('',#128,#126,#77,.T.);
#154=EDGE_CURVE('',#127,#128,#78,.T.);
#155=EDGE_CURVE('',#122,#127,#79,.T.);
#156=EDGE_CURVE('',#123,#128,#80,.T.);
#157=ORIENTED_EDGE('',*,*,#129,.T.);
#158=ORIENTED_EDGE('',*,*,#130,.T.);
#159=ORIENTED_EDGE('',*,*,#130,.F.);
#160=ORIENTED_EDGE('',*,*,#131,.F.);
#161=ORIENTED_EDGE('',*,*,#132,.T.);
#162=ORIENTED_EDGE('',*,*,#129,.F.);
#163=ORIENTED_EDGE('',*,*,#132,.F.);
#164=ORIENTED_EDGE('',*,*,#133,.T.);
#165=ORIENTED_EDGE('',*,*,#134,.T.);
#166=ORIENTED_EDGE('',*,*,#134,.F.);
#167=ORIENTED_EDGE('',*,*,#135,.F.);
#168=ORIENTED_EDGE('',*,*,#136,.T.);
#169=ORIENTED_EDGE('',*,*,#133,.F.);
#170=ORIENTED_EDGE('',*,*,#136,.F.);
#171=ORIENTED_EDGE('',*,*,#137,.T.);
#172=ORIENTED_EDGE('',*,*,#138,.T.);
#173=ORIENTED_EDGE('',*,*,#138,.F.);
#174=ORIENTED_EDGE('',*,*,#139,.F.);
#175=ORIENTED_EDGE('',*,*,#140,.T.);
#176=ORIENTED_EDGE('',*,*,#137,.F.);
#177=ORIENTED_EDGE('',*,*,#140,.F.);
#178=ORIENTED_EDGE('',*,*,#141,.T.);
#179=ORIENTED_EDGE('',*,*,#142,.T.);
#180=ORIENTED_EDGE('',*,*,#142,.F.);
#181=ORIENTED_EDGE('',*,*,#143,.F.);
#182=ORIENTED_EDGE('',*,*,#144,.T.);
#183=ORIENTED_EDGE('',*,*,#141,.F.);
#184=ORIENTED_EDGE('',*,*,#144,.F.);
#185=ORIENTED_EDGE('',*,*,#145,.T.);
#186=ORIENTED_EDGE('',*,*,#146,.T.);
#187=ORIENTED_EDGE('',*,*,#147,.F.);
#188=ORIENTED_EDGE('',*,*,#148,.F.);
#189=ORIENTED_EDGE('',*,*,#149,.T.);
#190=ORIENTED_EDGE('',*,*,#148,.T.);
#191=ORIENTED_EDGE('',*,*,#150,.F.);
#192=ORIENTED_EDGE('',*,*,#151,.F.);
#193=ORIENTED_EDGE('',*,*,#152,.T.);
#194=ORIENTED_EDGE('',*,*,#151,.T.);
#195=ORIENTED_EDGE('',*,*,#153,.F.);
#196=ORIENTED_EDGE('',*,*,#154,.F.);
#197=ORIENTED_EDGE('',*,*,#155,.T.);
#198=ORIENTED_EDGE('',*,*,#154,.T.);
#199=ORIENTED_EDGE('',*,*,#156,.F.);
#200=ORIENTED_EDGE('',*,*,#146,.F.);
#201=ORIENTED_EDGE('',*,*,#156,.T.);
#202=ORIENTED_EDGE('',*,*,#153,.T.);
#203=ORIENTED_EDGE('',*,*,#150,.T.);
#204=ORIENTED_EDGE('',*,*,#147,.T.);
#205=ORIENTED_EDGE('',*,*,#155,.F.);
#206=ORIENTED_EDGE('',*,*,#145,.F.);
#207=ORIENTED_EDGE('',*,*,#149,.F.);
#208=ORIENTED_EDGE('',*,*,#152,.F.);
#209=ORIENTED_EDGE('',*,*,#131,.T.);
#210=ORIENTED_EDGE('',*,*,#135,.T.);
#211=ORIENTED_EDGE('',*,*,#139,.T.);
#212=ORIENTED_EDGE('',*,*,#143,.T.);
#213=CONICAL_SURFACE('',#254,0.8,1.02974425867665);
#214=CONICAL_SURFACE('',#258,0.8,1.02974425867665);
#215=CONICAL_SURFACE('',#262,0.8,1.02974425867665);
#216=CONICAL_SURFACE('',#266,0.8,1.02974425867665);
#217=ADVANCED_FACE('',(#29),#213,.F.);
#218=ADVANCED_FACE('',(#30),#25,.F.);
#219=ADVANCED_FACE('',(#31),#214,.F.);
#220=ADVANCED_FACE('',(#32),#26,.F.);
#221=ADVANCED_FACE('',(#33),#215,.F.);
#222=ADVANCED_FACE('',(#34),#27,.F.);
#223=ADVANCED_FACE('',(#35),#216,.F.);
#224=ADVANCED_FACE('',(#36),#28,.F.);
#225=ADVANCED_FACE('',(#37),#19,.T.);
#226=ADVANCED_FACE('',(#38),#20,.T.);
#227=ADVANCED_FACE('',(#39),#21,.T.);
#228=ADVANCED_FACE('',(#40),#22,.T.);
#229=ADVANCED_FACE('',(#41),#23,.T.);
#230=ADVANCED_FACE('',(#42,#15,#16,#17,#18),#24,.F.);
#231=CLOSED_SHELL('',(#217,#218,#219,#220,#221,#222,#223,#224,#225,#226,
#227,#228,#229,#230));
#232=DERIVED_UNIT_ELEMENT(#235,1.);
#233=DERIVED_UNIT_ELEMENT(#410,-3.);
#234=DIMENSIONAL_EXPONENTS(0.,1.,0.,0.,0.,0.,0.);
#235=(
CONVERSION_BASED_UNIT('gram',#237)
MASS_UNIT()
NAMED_UNIT(#234)
);
#236=(
MASS_UNIT()
NAMED_UNIT(*)
SI_UNIT(.KILO.,.GRAM.)
);
#237=MASS_MEASURE_WITH_UNIT(MASS_MEASURE(0.001),#236);
#238=DERIVED_UNIT((#232,#233));
#239=MEASURE_REPRESENTATION_ITEM('density measure',
POSITIVE_RATIO_MEASURE(1.),#238);
#240=PROPERTY_DEFINITION_REPRESENTATION(#245,#242);
#241=PROPERTY_DEFINITION_REPRESENTATION(#246,#243);
#242=REPRESENTATION('material name',(#244),#407);
#243=REPRESENTATION('density',(#239),#407);
#244=DESCRIPTIVE_REPRESENTATION_ITEM('\X2\4E00822C\X0\','\X2\4E00822C\X0\');
#245=PROPERTY_DEFINITION('material property','material name',#417);
#246=PROPERTY_DEFINITION('material property','density of part',#417);
#247=DATE_TIME_ROLE('creation_date');
#248=APPLIED_DATE_AND_TIME_ASSIGNMENT(#249,#247,(#417));
#249=DATE_AND_TIME(#250,#251);
#250=CALENDAR_DATE(2026,20,5);
#251=LOCAL_TIME(0,0,0.,#252);
#252=COORDINATED_UNIVERSAL_TIME_OFFSET(0,0,.BEHIND.);
#253=AXIS2_PLACEMENT_3D('',#342,#276,#277);
#254=AXIS2_PLACEMENT_3D('',#343,#278,#279);
#255=AXIS2_PLACEMENT_3D('',#345,#280,#281);
#256=AXIS2_PLACEMENT_3D('',#348,#283,#284);
#257=AXIS2_PLACEMENT_3D('',#350,#285,#286);
#258=AXIS2_PLACEMENT_3D('',#352,#288,#289);
#259=AXIS2_PLACEMENT_3D('',#354,#290,#291);
#260=AXIS2_PLACEMENT_3D('',#357,#293,#294);
#261=AXIS2_PLACEMENT_3D('',#359,#295,#296);
#262=AXIS2_PLACEMENT_3D('',#361,#298,#299);
#263=AXIS2_PLACEMENT_3D('',#363,#300,#301);
#264=AXIS2_PLACEMENT_3D('',#366,#303,#304);
#265=AXIS2_PLACEMENT_3D('',#368,#305,#306);
#266=AXIS2_PLACEMENT_3D('',#370,#308,#309);
#267=AXIS2_PLACEMENT_3D('',#372,#310,#311);
#268=AXIS2_PLACEMENT_3D('',#375,#313,#314);
#269=AXIS2_PLACEMENT_3D('',#377,#315,#316);
#270=AXIS2_PLACEMENT_3D('',#379,#318,#319);
#271=AXIS2_PLACEMENT_3D('',#388,#324,#325);
#272=AXIS2_PLACEMENT_3D('',#394,#329,#330);
#273=AXIS2_PLACEMENT_3D('',#400,#334,#335);
#274=AXIS2_PLACEMENT_3D('',#403,#338,#339);
#275=AXIS2_PLACEMENT_3D('',#404,#340,#341);
#276=DIRECTION('axis',(0.,0.,1.));
#277=DIRECTION('refdir',(1.,0.,0.));
#278=DIRECTION('center_axis',(-1.,0.,0.));
#279=DIRECTION('ref_axis',(0.,0.,1.));
#280=DIRECTION('center_axis',(-1.,0.,0.));
#281=DIRECTION('ref_axis',(0.,0.,1.));
#282=DIRECTION('',(0.515038074910054,1.04972719113862E-16,0.857167300702112));
#283=DIRECTION('center_axis',(-1.,0.,0.));
#284=DIRECTION('ref_axis',(0.,0.,1.));
#285=DIRECTION('center_axis',(1.,0.,0.));
#286=DIRECTION('ref_axis',(0.,0.,1.));
#287=DIRECTION('',(1.,0.,0.));
#288=DIRECTION('center_axis',(-1.,0.,0.));
#289=DIRECTION('ref_axis',(0.,0.,1.));
#290=DIRECTION('center_axis',(-1.,0.,0.));
#291=DIRECTION('ref_axis',(0.,0.,1.));
#292=DIRECTION('',(0.515038074910054,1.04972719113862E-16,0.857167300702112));
#293=DIRECTION('center_axis',(-1.,0.,0.));
#294=DIRECTION('ref_axis',(0.,0.,1.));
#295=DIRECTION('center_axis',(1.,0.,0.));
#296=DIRECTION('ref_axis',(0.,0.,1.));
#297=DIRECTION('',(1.,0.,0.));
#298=DIRECTION('center_axis',(-1.,0.,0.));
#299=DIRECTION('ref_axis',(0.,0.,1.));
#300=DIRECTION('center_axis',(-1.,0.,0.));
#301=DIRECTION('ref_axis',(0.,0.,1.));
#302=DIRECTION('',(0.515038074910054,1.04972719113862E-16,0.857167300702112));
#303=DIRECTION('center_axis',(-1.,0.,0.));
#304=DIRECTION('ref_axis',(0.,0.,1.));
#305=DIRECTION('center_axis',(1.,0.,0.));
#306=DIRECTION('ref_axis',(0.,0.,1.));
#307=DIRECTION('',(1.,0.,0.));
#308=DIRECTION('center_axis',(-1.,0.,0.));
#309=DIRECTION('ref_axis',(0.,0.,1.));
#310=DIRECTION('center_axis',(-1.,0.,0.));
#311=DIRECTION('ref_axis',(0.,0.,1.));
#312=DIRECTION('',(0.515038074910054,1.04972719113862E-16,0.857167300702112));
#313=DIRECTION('center_axis',(-1.,0.,0.));
#314=DIRECTION('ref_axis',(0.,0.,1.));
#315=DIRECTION('center_axis',(1.,0.,0.));
#316=DIRECTION('ref_axis',(0.,0.,1.));
#317=DIRECTION('',(1.,0.,0.));
#318=DIRECTION('center_axis',(0.,-1.,-1.83697019872103E-16));
#319=DIRECTION('ref_axis',(0.,1.83697019872103E-16,-1.));
#320=DIRECTION('',(0.,1.83697019872103E-16,-1.));
#321=DIRECTION('',(1.,0.,0.));
#322=DIRECTION('',(0.,1.83697019872103E-16,-1.));
#323=DIRECTION('',(1.,0.,0.));
#324=DIRECTION('center_axis',(0.,2.30578861261998E-33,1.));
#325=DIRECTION('ref_axis',(0.,-1.,2.30578861261998E-33));
#326=DIRECTION('',(0.,-1.,2.30578861261998E-33));
#327=DIRECTION('',(0.,-1.,2.30578861261998E-33));
#328=DIRECTION('',(1.,0.,0.));
#329=DIRECTION('center_axis',(0.,1.,0.));
#330=DIRECTION('ref_axis',(0.,0.,1.));
#331=DIRECTION('',(0.,0.,1.));
#332=DIRECTION('',(0.,0.,1.));
#333=DIRECTION('',(1.,0.,0.));
#334=DIRECTION('center_axis',(0.,0.,-1.));
#335=DIRECTION('ref_axis',(0.,1.,0.));
#336=DIRECTION('',(0.,1.,0.));
#337=DIRECTION('',(0.,1.,0.));
#338=DIRECTION('center_axis',(1.,0.,0.));
#339=DIRECTION('ref_axis',(0.,0.,-1.));
#340=DIRECTION('center_axis',(1.,0.,0.));
#341=DIRECTION('ref_axis',(0.,0.,-1.));
#342=CARTESIAN_POINT('',(0.,0.,0.));
#343=CARTESIAN_POINT('Origin',(9.28068849522205,4.,-29.));
#344=CARTESIAN_POINT('',(8.8,4.,-30.6));
#345=CARTESIAN_POINT('Origin',(8.8,4.,-29.));
#346=CARTESIAN_POINT('',(9.7613769904441,4.,-29.));
#347=CARTESIAN_POINT('',(9.28068849522205,4.,-29.8));
#348=CARTESIAN_POINT('Origin',(4.4,4.,-29.));
#349=CARTESIAN_POINT('',(0.,4.,-30.6));
#350=CARTESIAN_POINT('Origin',(0.,4.,-29.));
#351=CARTESIAN_POINT('',(4.4,4.,-30.6));
#352=CARTESIAN_POINT('Origin',(9.28068849522205,4.,-9.));
#353=CARTESIAN_POINT('',(8.8,4.,-10.6));
#354=CARTESIAN_POINT('Origin',(8.8,4.,-9.));
#355=CARTESIAN_POINT('',(9.7613769904441,4.,-9.));
#356=CARTESIAN_POINT('',(9.28068849522205,4.,-9.8));
#357=CARTESIAN_POINT('Origin',(4.4,4.,-9.));
#358=CARTESIAN_POINT('',(0.,4.,-10.6));
#359=CARTESIAN_POINT('Origin',(0.,4.,-9.));
#360=CARTESIAN_POINT('',(4.4,4.,-10.6));
#361=CARTESIAN_POINT('Origin',(9.28068849522205,34.,-9.));
#362=CARTESIAN_POINT('',(8.8,34.,-10.6));
#363=CARTESIAN_POINT('Origin',(8.8,34.,-9.));
#364=CARTESIAN_POINT('',(9.7613769904441,34.,-9.));
#365=CARTESIAN_POINT('',(9.28068849522205,34.,-9.8));
#366=CARTESIAN_POINT('Origin',(4.4,34.,-9.));
#367=CARTESIAN_POINT('',(0.,34.,-10.6));
#368=CARTESIAN_POINT('Origin',(0.,34.,-9.));
#369=CARTESIAN_POINT('',(4.4,34.,-10.6));
#370=CARTESIAN_POINT('Origin',(9.28068849522205,34.,-29.));
#371=CARTESIAN_POINT('',(8.8,34.,-30.6));
#372=CARTESIAN_POINT('Origin',(8.8,34.,-29.));
#373=CARTESIAN_POINT('',(9.7613769904441,34.,-29.));
#374=CARTESIAN_POINT('',(9.28068849522205,34.,-29.8));
#375=CARTESIAN_POINT('Origin',(4.4,34.,-29.));
#376=CARTESIAN_POINT('',(0.,34.,-30.6));
#377=CARTESIAN_POINT('Origin',(0.,34.,-29.));
#378=CARTESIAN_POINT('',(4.4,34.,-30.6));
#379=CARTESIAN_POINT('Origin',(0.,0.,0.));
#380=CARTESIAN_POINT('',(0.,0.,0.));
#381=CARTESIAN_POINT('',(0.,1.10218211923262E-14,-60.));
#382=CARTESIAN_POINT('',(0.,0.,0.));
#383=CARTESIAN_POINT('',(41.,1.10218211923262E-14,-60.));
#384=CARTESIAN_POINT('',(0.,1.10218211923262E-14,-60.));
#385=CARTESIAN_POINT('',(41.,0.,0.));
#386=CARTESIAN_POINT('',(41.,0.,0.));
#387=CARTESIAN_POINT('',(0.,0.,0.));
#388=CARTESIAN_POINT('Origin',(0.,38.,-8.76199672795592E-32));
#389=CARTESIAN_POINT('',(0.,38.,-8.76199672795592E-32));
#390=CARTESIAN_POINT('',(0.,38.,-8.76199672795592E-32));
#391=CARTESIAN_POINT('',(41.,38.,0.));
#392=CARTESIAN_POINT('',(41.,38.,-8.76199672795592E-32));
#393=CARTESIAN_POINT('',(0.,38.,-8.76199672795592E-32));
#394=CARTESIAN_POINT('Origin',(0.,38.,-60.));
#395=CARTESIAN_POINT('',(0.,38.,-60.));
#396=CARTESIAN_POINT('',(0.,38.,-60.));
#397=CARTESIAN_POINT('',(41.,38.,-60.));
#398=CARTESIAN_POINT('',(41.,38.,-60.));
#399=CARTESIAN_POINT('',(0.,38.,-60.));
#400=CARTESIAN_POINT('Origin',(0.,1.10218211923262E-14,-60.));
#401=CARTESIAN_POINT('',(0.,8.88178419700125E-15,-60.));
#402=CARTESIAN_POINT('',(41.,8.88178419700125E-15,-60.));
#403=CARTESIAN_POINT('Origin',(41.,19.,-30.));
#404=CARTESIAN_POINT('Origin',(0.,19.,-30.));
#405=UNCERTAINTY_MEASURE_WITH_UNIT(LENGTH_MEASURE(0.01),#409,
'DISTANCE_ACCURACY_VALUE',
'Maximum model space distance between geometric entities at asserted c
onnectivities');
#406=UNCERTAINTY_MEASURE_WITH_UNIT(LENGTH_MEASURE(0.01),#409,
'DISTANCE_ACCURACY_VALUE',
'Maximum model space distance between geometric entities at asserted c
onnectivities');
#407=(
GEOMETRIC_REPRESENTATION_CONTEXT(3)
GLOBAL_UNCERTAINTY_ASSIGNED_CONTEXT((#405))
GLOBAL_UNIT_ASSIGNED_CONTEXT((#409,#411,#412))
REPRESENTATION_CONTEXT('','3D')
);
#408=(
GEOMETRIC_REPRESENTATION_CONTEXT(3)
GLOBAL_UNCERTAINTY_ASSIGNED_CONTEXT((#406))
GLOBAL_UNIT_ASSIGNED_CONTEXT((#409,#411,#412))
REPRESENTATION_CONTEXT('','3D')
);
#409=(
LENGTH_UNIT()
NAMED_UNIT(*)
SI_UNIT(.MILLI.,.METRE.)
);
#410=(
LENGTH_UNIT()
NAMED_UNIT(*)
SI_UNIT(.CENTI.,.METRE.)
);
#411=(
NAMED_UNIT(*)
PLANE_ANGLE_UNIT()
SI_UNIT($,.RADIAN.)
);
#412=(
NAMED_UNIT(*)
SI_UNIT($,.STERADIAN.)
SOLID_ANGLE_UNIT()
);
#413=SHAPE_DEFINITION_REPRESENTATION(#414,#415);
#414=PRODUCT_DEFINITION_SHAPE('',$,#417);
#415=SHAPE_REPRESENTATION('',(#253),#407);
#416=PRODUCT_DEFINITION_CONTEXT('part definition',#421,'design');
#417=PRODUCT_DEFINITION('Part4','\X2\30E230FC30BF571F53F0\X0\',#418,#416);
#418=PRODUCT_DEFINITION_FORMATION('',$,#423);
#419=PRODUCT_RELATED_PRODUCT_CATEGORY('\X2\30E230FC30BF571F53F0\X0\',
'\X2\30E230FC30BF571F53F0\X0\',(#423));
#420=APPLICATION_PROTOCOL_DEFINITION('international standard',
'automotive_design',2009,#421);
#421=APPLICATION_CONTEXT(
'Core Data for Automotive Mechanical Design Process');
#422=PRODUCT_CONTEXT('part definition',#421,'mechanical');
#423=PRODUCT('Part4','\X2\30E230FC30BF571F53F0\X0\',$,(#422));
#424=PRESENTATION_STYLE_ASSIGNMENT((#425));
#425=SURFACE_STYLE_USAGE(.BOTH.,#428);
#426=SURFACE_STYLE_RENDERING_WITH_PROPERTIES($,#432,(#427));
#427=SURFACE_STYLE_TRANSPARENT(0.);
#428=SURFACE_SIDE_STYLE('',(#429,#426));
#429=SURFACE_STYLE_FILL_AREA(#430);
#430=FILL_AREA_STYLE('',(#431));
#431=FILL_AREA_STYLE_COLOUR('',#432);
#432=COLOUR_RGB('',0.749019607843137,0.749019607843137,0.749019607843137);
ENDSEC;
END-ISO-10303-21;
