ISO-10303-21;
HEADER;
/* Generated by software containing ST-Developer
 * from STEP Tools, Inc. (www.steptools.com) 
 */

FILE_DESCRIPTION(
/* description */ (''),
/* implementation_level */ '2;1');

FILE_NAME(
/* name */ '',
/* time_stamp */ '2026-06-01T05:26:04+09:00',
/* author */ ('Yagis'),
/* organization */ (''),
/* preprocessor_version */ 'ST-DEVELOPER v20.1',
/* originating_system */ 'Autodesk Inventor 2026',
/* authorisation */ '');

FILE_SCHEMA (('AUTOMOTIVE_DESIGN { 1 0 10303 214 3 1 1 }'));
ENDSEC;

DATA;
#10=MECHANICAL_DESIGN_GEOMETRIC_PRESENTATION_REPRESENTATION('',(#13),#486);
#11=SHAPE_REPRESENTATION_RELATIONSHIP('SRR','None',#493,#12);
#12=ADVANCED_BREP_SHAPE_REPRESENTATION('',(#14),#485);
#13=STYLED_ITEM('',(#502),#14);
#14=MANIFOLD_SOLID_BREP('\X2\30BD30EA30C330C9\X0\1',#284);
#15=FACE_BOUND('',#62,.T.);
#16=FACE_BOUND('',#63,.T.);
#17=FACE_BOUND('',#64,.T.);
#18=PLANE('',#319);
#19=PLANE('',#320);
#20=PLANE('',#321);
#21=PLANE('',#322);
#22=PLANE('',#323);
#23=PLANE('',#324);
#24=PLANE('',#325);
#25=PLANE('',#326);
#26=PLANE('',#327);
#27=PLANE('',#328);
#28=CYLINDRICAL_SURFACE('',#309,1.2295);
#29=CYLINDRICAL_SURFACE('',#313,1.2295);
#30=CYLINDRICAL_SURFACE('',#317,1.2295);
#31=FACE_OUTER_BOUND('',#47,.T.);
#32=FACE_OUTER_BOUND('',#48,.T.);
#33=FACE_OUTER_BOUND('',#49,.T.);
#34=FACE_OUTER_BOUND('',#50,.T.);
#35=FACE_OUTER_BOUND('',#51,.T.);
#36=FACE_OUTER_BOUND('',#52,.T.);
#37=FACE_OUTER_BOUND('',#53,.T.);
#38=FACE_OUTER_BOUND('',#54,.T.);
#39=FACE_OUTER_BOUND('',#55,.T.);
#40=FACE_OUTER_BOUND('',#56,.T.);
#41=FACE_OUTER_BOUND('',#57,.T.);
#42=FACE_OUTER_BOUND('',#58,.T.);
#43=FACE_OUTER_BOUND('',#59,.T.);
#44=FACE_OUTER_BOUND('',#60,.T.);
#45=FACE_OUTER_BOUND('',#61,.T.);
#46=FACE_OUTER_BOUND('',#65,.T.);
#47=EDGE_LOOP('',(#193,#194,#195));
#48=EDGE_LOOP('',(#196,#197,#198,#199));
#49=EDGE_LOOP('',(#200,#201,#202));
#50=EDGE_LOOP('',(#203,#204,#205,#206));
#51=EDGE_LOOP('',(#207,#208,#209));
#52=EDGE_LOOP('',(#210,#211,#212,#213));
#53=EDGE_LOOP('',(#214,#215,#216,#217));
#54=EDGE_LOOP('',(#218,#219,#220,#221));
#55=EDGE_LOOP('',(#222,#223,#224,#225));
#56=EDGE_LOOP('',(#226,#227,#228,#229));
#57=EDGE_LOOP('',(#230,#231,#232,#233));
#58=EDGE_LOOP('',(#234,#235,#236,#237));
#59=EDGE_LOOP('',(#238,#239,#240,#241));
#60=EDGE_LOOP('',(#242,#243,#244,#245));
#61=EDGE_LOOP('',(#246,#247,#248,#249,#250,#251,#252,#253));
#62=EDGE_LOOP('',(#254));
#63=EDGE_LOOP('',(#255));
#64=EDGE_LOOP('',(#256));
#65=EDGE_LOOP('',(#257,#258,#259,#260,#261,#262,#263,#264));
#66=LINE('',#410,#96);
#67=LINE('',#414,#97);
#68=LINE('',#419,#98);
#69=LINE('',#423,#99);
#70=LINE('',#428,#100);
#71=LINE('',#432,#101);
#72=LINE('',#436,#102);
#73=LINE('',#438,#103);
#74=LINE('',#440,#104);
#75=LINE('',#441,#105);
#76=LINE('',#444,#106);
#77=LINE('',#446,#107);
#78=LINE('',#447,#108);
#79=LINE('',#450,#109);
#80=LINE('',#452,#110);
#81=LINE('',#453,#111);
#82=LINE('',#456,#112);
#83=LINE('',#458,#113);
#84=LINE('',#459,#114);
#85=LINE('',#462,#115);
#86=LINE('',#464,#116);
#87=LINE('',#465,#117);
#88=LINE('',#468,#118);
#89=LINE('',#470,#119);
#90=LINE('',#471,#120);
#91=LINE('',#474,#121);
#92=LINE('',#476,#122);
#93=LINE('',#477,#123);
#94=LINE('',#479,#124);
#95=LINE('',#480,#125);
#96=VECTOR('',#335,0.61475);
#97=VECTOR('',#340,1.2295);
#98=VECTOR('',#345,0.61475);
#99=VECTOR('',#350,1.2295);
#100=VECTOR('',#355,0.61475);
#101=VECTOR('',#360,1.2295);
#102=VECTOR('',#363,10.);
#103=VECTOR('',#364,10.);
#104=VECTOR('',#365,10.);
#105=VECTOR('',#366,10.);
#106=VECTOR('',#369,10.);
#107=VECTOR('',#370,10.);
#108=VECTOR('',#371,10.);
#109=VECTOR('',#374,10.);
#110=VECTOR('',#375,10.);
#111=VECTOR('',#376,10.);
#112=VECTOR('',#379,10.);
#113=VECTOR('',#380,10.);
#114=VECTOR('',#381,10.);
#115=VECTOR('',#384,10.);
#116=VECTOR('',#385,10.);
#117=VECTOR('',#386,10.);
#118=VECTOR('',#389,10.);
#119=VECTOR('',#390,10.);
#120=VECTOR('',#391,10.);
#121=VECTOR('',#394,10.);
#122=VECTOR('',#395,10.);
#123=VECTOR('',#396,10.);
#124=VECTOR('',#399,10.);
#125=VECTOR('',#400,10.);
#126=CIRCLE('',#308,1.2295);
#127=CIRCLE('',#310,1.2295);
#128=CIRCLE('',#312,1.2295);
#129=CIRCLE('',#314,1.2295);
#130=CIRCLE('',#316,1.2295);
#131=CIRCLE('',#318,1.2295);
#132=VERTEX_POINT('',#407);
#133=VERTEX_POINT('',#409);
#134=VERTEX_POINT('',#412);
#135=VERTEX_POINT('',#416);
#136=VERTEX_POINT('',#418);
#137=VERTEX_POINT('',#421);
#138=VERTEX_POINT('',#425);
#139=VERTEX_POINT('',#427);
#140=VERTEX_POINT('',#430);
#141=VERTEX_POINT('',#434);
#142=VERTEX_POINT('',#435);
#143=VERTEX_POINT('',#437);
#144=VERTEX_POINT('',#439);
#145=VERTEX_POINT('',#443);
#146=VERTEX_POINT('',#445);
#147=VERTEX_POINT('',#449);
#148=VERTEX_POINT('',#451);
#149=VERTEX_POINT('',#455);
#150=VERTEX_POINT('',#457);
#151=VERTEX_POINT('',#461);
#152=VERTEX_POINT('',#463);
#153=VERTEX_POINT('',#467);
#154=VERTEX_POINT('',#469);
#155=VERTEX_POINT('',#473);
#156=VERTEX_POINT('',#475);
#157=EDGE_CURVE('',#132,#132,#126,.T.);
#158=EDGE_CURVE('',#132,#133,#66,.T.);
#159=EDGE_CURVE('',#134,#134,#127,.T.);
#160=EDGE_CURVE('',#134,#132,#67,.T.);
#161=EDGE_CURVE('',#135,#135,#128,.T.);
#162=EDGE_CURVE('',#135,#136,#68,.T.);
#163=EDGE_CURVE('',#137,#137,#129,.T.);
#164=EDGE_CURVE('',#137,#135,#69,.T.);
#165=EDGE_CURVE('',#138,#138,#130,.T.);
#166=EDGE_CURVE('',#138,#139,#70,.T.);
#167=EDGE_CURVE('',#140,#140,#131,.T.);
#168=EDGE_CURVE('',#140,#138,#71,.T.);
#169=EDGE_CURVE('',#141,#142,#72,.T.);
#170=EDGE_CURVE('',#142,#143,#73,.T.);
#171=EDGE_CURVE('',#144,#143,#74,.T.);
#172=EDGE_CURVE('',#141,#144,#75,.T.);
#173=EDGE_CURVE('',#145,#141,#76,.T.);
#174=EDGE_CURVE('',#146,#144,#77,.T.);
#175=EDGE_CURVE('',#145,#146,#78,.T.);
#176=EDGE_CURVE('',#147,#145,#79,.T.);
#177=EDGE_CURVE('',#148,#146,#80,.T.);
#178=EDGE_CURVE('',#147,#148,#81,.T.);
#179=EDGE_CURVE('',#149,#147,#82,.T.);
#180=EDGE_CURVE('',#150,#148,#83,.T.);
#181=EDGE_CURVE('',#149,#150,#84,.T.);
#182=EDGE_CURVE('',#151,#149,#85,.T.);
#183=EDGE_CURVE('',#152,#150,#86,.T.);
#184=EDGE_CURVE('',#151,#152,#87,.T.);
#185=EDGE_CURVE('',#153,#151,#88,.T.);
#186=EDGE_CURVE('',#154,#152,#89,.T.);
#187=EDGE_CURVE('',#153,#154,#90,.T.);
#188=EDGE_CURVE('',#155,#153,#91,.T.);
#189=EDGE_CURVE('',#156,#154,#92,.T.);
#190=EDGE_CURVE('',#155,#156,#93,.T.);
#191=EDGE_CURVE('',#142,#155,#94,.T.);
#192=EDGE_CURVE('',#143,#156,#95,.T.);
#193=ORIENTED_EDGE('',*,*,#157,.T.);
#194=ORIENTED_EDGE('',*,*,#158,.T.);
#195=ORIENTED_EDGE('',*,*,#158,.F.);
#196=ORIENTED_EDGE('',*,*,#159,.F.);
#197=ORIENTED_EDGE('',*,*,#160,.T.);
#198=ORIENTED_EDGE('',*,*,#157,.F.);
#199=ORIENTED_EDGE('',*,*,#160,.F.);
#200=ORIENTED_EDGE('',*,*,#161,.T.);
#201=ORIENTED_EDGE('',*,*,#162,.T.);
#202=ORIENTED_EDGE('',*,*,#162,.F.);
#203=ORIENTED_EDGE('',*,*,#163,.F.);
#204=ORIENTED_EDGE('',*,*,#164,.T.);
#205=ORIENTED_EDGE('',*,*,#161,.F.);
#206=ORIENTED_EDGE('',*,*,#164,.F.);
#207=ORIENTED_EDGE('',*,*,#165,.T.);
#208=ORIENTED_EDGE('',*,*,#166,.T.);
#209=ORIENTED_EDGE('',*,*,#166,.F.);
#210=ORIENTED_EDGE('',*,*,#167,.F.);
#211=ORIENTED_EDGE('',*,*,#168,.T.);
#212=ORIENTED_EDGE('',*,*,#165,.F.);
#213=ORIENTED_EDGE('',*,*,#168,.F.);
#214=ORIENTED_EDGE('',*,*,#169,.T.);
#215=ORIENTED_EDGE('',*,*,#170,.T.);
#216=ORIENTED_EDGE('',*,*,#171,.F.);
#217=ORIENTED_EDGE('',*,*,#172,.F.);
#218=ORIENTED_EDGE('',*,*,#173,.T.);
#219=ORIENTED_EDGE('',*,*,#172,.T.);
#220=ORIENTED_EDGE('',*,*,#174,.F.);
#221=ORIENTED_EDGE('',*,*,#175,.F.);
#222=ORIENTED_EDGE('',*,*,#176,.T.);
#223=ORIENTED_EDGE('',*,*,#175,.T.);
#224=ORIENTED_EDGE('',*,*,#177,.F.);
#225=ORIENTED_EDGE('',*,*,#178,.F.);
#226=ORIENTED_EDGE('',*,*,#179,.T.);
#227=ORIENTED_EDGE('',*,*,#178,.T.);
#228=ORIENTED_EDGE('',*,*,#180,.F.);
#229=ORIENTED_EDGE('',*,*,#181,.F.);
#230=ORIENTED_EDGE('',*,*,#182,.T.);
#231=ORIENTED_EDGE('',*,*,#181,.T.);
#232=ORIENTED_EDGE('',*,*,#183,.F.);
#233=ORIENTED_EDGE('',*,*,#184,.F.);
#234=ORIENTED_EDGE('',*,*,#185,.T.);
#235=ORIENTED_EDGE('',*,*,#184,.T.);
#236=ORIENTED_EDGE('',*,*,#186,.F.);
#237=ORIENTED_EDGE('',*,*,#187,.F.);
#238=ORIENTED_EDGE('',*,*,#188,.T.);
#239=ORIENTED_EDGE('',*,*,#187,.T.);
#240=ORIENTED_EDGE('',*,*,#189,.F.);
#241=ORIENTED_EDGE('',*,*,#190,.F.);
#242=ORIENTED_EDGE('',*,*,#191,.T.);
#243=ORIENTED_EDGE('',*,*,#190,.T.);
#244=ORIENTED_EDGE('',*,*,#192,.F.);
#245=ORIENTED_EDGE('',*,*,#170,.F.);
#246=ORIENTED_EDGE('',*,*,#192,.T.);
#247=ORIENTED_EDGE('',*,*,#189,.T.);
#248=ORIENTED_EDGE('',*,*,#186,.T.);
#249=ORIENTED_EDGE('',*,*,#183,.T.);
#250=ORIENTED_EDGE('',*,*,#180,.T.);
#251=ORIENTED_EDGE('',*,*,#177,.T.);
#252=ORIENTED_EDGE('',*,*,#174,.T.);
#253=ORIENTED_EDGE('',*,*,#171,.T.);
#254=ORIENTED_EDGE('',*,*,#159,.T.);
#255=ORIENTED_EDGE('',*,*,#163,.T.);
#256=ORIENTED_EDGE('',*,*,#167,.T.);
#257=ORIENTED_EDGE('',*,*,#191,.F.);
#258=ORIENTED_EDGE('',*,*,#169,.F.);
#259=ORIENTED_EDGE('',*,*,#173,.F.);
#260=ORIENTED_EDGE('',*,*,#176,.F.);
#261=ORIENTED_EDGE('',*,*,#179,.F.);
#262=ORIENTED_EDGE('',*,*,#182,.F.);
#263=ORIENTED_EDGE('',*,*,#185,.F.);
#264=ORIENTED_EDGE('',*,*,#188,.F.);
#265=CONICAL_SURFACE('',#307,0.61475,1.02974425867665);
#266=CONICAL_SURFACE('',#311,0.61475,1.02974425867665);
#267=CONICAL_SURFACE('',#315,0.61475,1.02974425867665);
#268=ADVANCED_FACE('',(#31),#265,.F.);
#269=ADVANCED_FACE('',(#32),#28,.F.);
#270=ADVANCED_FACE('',(#33),#266,.F.);
#271=ADVANCED_FACE('',(#34),#29,.F.);
#272=ADVANCED_FACE('',(#35),#267,.F.);
#273=ADVANCED_FACE('',(#36),#30,.F.);
#274=ADVANCED_FACE('',(#37),#18,.T.);
#275=ADVANCED_FACE('',(#38),#19,.T.);
#276=ADVANCED_FACE('',(#39),#20,.T.);
#277=ADVANCED_FACE('',(#40),#21,.T.);
#278=ADVANCED_FACE('',(#41),#22,.T.);
#279=ADVANCED_FACE('',(#42),#23,.T.);
#280=ADVANCED_FACE('',(#43),#24,.T.);
#281=ADVANCED_FACE('',(#44),#25,.T.);
#282=ADVANCED_FACE('',(#45,#15,#16,#17),#26,.T.);
#283=ADVANCED_FACE('',(#46),#27,.F.);
#284=CLOSED_SHELL('',(#268,#269,#270,#271,#272,#273,#274,#275,#276,#277,
#278,#279,#280,#281,#282,#283));
#285=DERIVED_UNIT_ELEMENT(#288,1.);
#286=DERIVED_UNIT_ELEMENT(#488,-3.);
#287=DIMENSIONAL_EXPONENTS(0.,1.,0.,0.,0.,0.,0.);
#288=(
CONVERSION_BASED_UNIT('gram',#290)
MASS_UNIT()
NAMED_UNIT(#287)
);
#289=(
MASS_UNIT()
NAMED_UNIT(*)
SI_UNIT(.KILO.,.GRAM.)
);
#290=MASS_MEASURE_WITH_UNIT(MASS_MEASURE(0.001),#289);
#291=DERIVED_UNIT((#285,#286));
#292=MEASURE_REPRESENTATION_ITEM('density measure',
POSITIVE_RATIO_MEASURE(1.),#291);
#293=PROPERTY_DEFINITION_REPRESENTATION(#298,#295);
#294=PROPERTY_DEFINITION_REPRESENTATION(#299,#296);
#295=REPRESENTATION('material name',(#297),#485);
#296=REPRESENTATION('density',(#292),#485);
#297=DESCRIPTIVE_REPRESENTATION_ITEM('\X2\4E00822C\X0\','\X2\4E00822C\X0\');
#298=PROPERTY_DEFINITION('material property','material name',#495);
#299=PROPERTY_DEFINITION('material property','density of part',#495);
#300=DATE_TIME_ROLE('creation_date');
#301=APPLIED_DATE_AND_TIME_ASSIGNMENT(#302,#300,(#495));
#302=DATE_AND_TIME(#303,#304);
#303=CALENDAR_DATE(2026,20,5);
#304=LOCAL_TIME(0,0,0.,#305);
#305=COORDINATED_UNIVERSAL_TIME_OFFSET(0,0,.BEHIND.);
#306=AXIS2_PLACEMENT_3D('',#405,#329,#330);
#307=AXIS2_PLACEMENT_3D('',#406,#331,#332);
#308=AXIS2_PLACEMENT_3D('',#408,#333,#334);
#309=AXIS2_PLACEMENT_3D('',#411,#336,#337);
#310=AXIS2_PLACEMENT_3D('',#413,#338,#339);
#311=AXIS2_PLACEMENT_3D('',#415,#341,#342);
#312=AXIS2_PLACEMENT_3D('',#417,#343,#344);
#313=AXIS2_PLACEMENT_3D('',#420,#346,#347);
#314=AXIS2_PLACEMENT_3D('',#422,#348,#349);
#315=AXIS2_PLACEMENT_3D('',#424,#351,#352);
#316=AXIS2_PLACEMENT_3D('',#426,#353,#354);
#317=AXIS2_PLACEMENT_3D('',#429,#356,#357);
#318=AXIS2_PLACEMENT_3D('',#431,#358,#359);
#319=AXIS2_PLACEMENT_3D('',#433,#361,#362);
#320=AXIS2_PLACEMENT_3D('',#442,#367,#368);
#321=AXIS2_PLACEMENT_3D('',#448,#372,#373);
#322=AXIS2_PLACEMENT_3D('',#454,#377,#378);
#323=AXIS2_PLACEMENT_3D('',#460,#382,#383);
#324=AXIS2_PLACEMENT_3D('',#466,#387,#388);
#325=AXIS2_PLACEMENT_3D('',#472,#392,#393);
#326=AXIS2_PLACEMENT_3D('',#478,#397,#398);
#327=AXIS2_PLACEMENT_3D('',#481,#401,#402);
#328=AXIS2_PLACEMENT_3D('',#482,#403,#404);
#329=DIRECTION('axis',(0.,0.,1.));
#330=DIRECTION('refdir',(1.,0.,0.));
#331=DIRECTION('center_axis',(0.,1.,0.));
#332=DIRECTION('ref_axis',(1.,0.,0.));
#333=DIRECTION('center_axis',(0.,1.,0.));
#334=DIRECTION('ref_axis',(1.,0.,0.));
#335=DIRECTION('',(0.857167300702112,-0.515038074910054,-1.04972719113862E-16));
#336=DIRECTION('center_axis',(0.,1.,0.));
#337=DIRECTION('ref_axis',(1.,0.,0.));
#338=DIRECTION('center_axis',(0.,-1.,0.));
#339=DIRECTION('ref_axis',(1.,0.,0.));
#340=DIRECTION('',(0.,-1.,0.));
#341=DIRECTION('center_axis',(0.,1.,0.));
#342=DIRECTION('ref_axis',(1.,0.,0.));
#343=DIRECTION('center_axis',(0.,1.,0.));
#344=DIRECTION('ref_axis',(1.,0.,0.));
#345=DIRECTION('',(0.857167300702112,-0.515038074910054,-1.04972719113862E-16));
#346=DIRECTION('center_axis',(0.,1.,0.));
#347=DIRECTION('ref_axis',(1.,0.,0.));
#348=DIRECTION('center_axis',(0.,-1.,0.));
#349=DIRECTION('ref_axis',(1.,0.,0.));
#350=DIRECTION('',(0.,-1.,0.));
#351=DIRECTION('center_axis',(0.,1.,0.));
#352=DIRECTION('ref_axis',(1.,0.,0.));
#353=DIRECTION('center_axis',(0.,1.,0.));
#354=DIRECTION('ref_axis',(1.,0.,0.));
#355=DIRECTION('',(0.857167300702112,-0.515038074910054,-1.04972719113862E-16));
#356=DIRECTION('center_axis',(0.,1.,0.));
#357=DIRECTION('ref_axis',(1.,0.,0.));
#358=DIRECTION('center_axis',(0.,-1.,0.));
#359=DIRECTION('ref_axis',(1.,0.,0.));
#360=DIRECTION('',(0.,-1.,0.));
#361=DIRECTION('center_axis',(-0.884121975804608,0.,-0.467256173741296));
#362=DIRECTION('ref_axis',(-0.467256173741296,0.,0.884121975804608));
#363=DIRECTION('',(-0.467256173741296,0.,0.884121975804608));
#364=DIRECTION('',(0.,1.,0.));
#365=DIRECTION('',(-0.467256173741296,0.,0.884121975804608));
#366=DIRECTION('',(0.,1.,0.));
#367=DIRECTION('center_axis',(-7.47939721852737E-16,0.,-1.));
#368=DIRECTION('ref_axis',(-1.,0.,7.47939721852737E-16));
#369=DIRECTION('',(-1.,0.,7.47939721852737E-16));
#370=DIRECTION('',(-1.,0.,7.47939721852737E-16));
#371=DIRECTION('',(0.,1.,0.));
#372=DIRECTION('center_axis',(1.,0.,0.));
#373=DIRECTION('ref_axis',(0.,0.,-1.));
#374=DIRECTION('',(0.,0.,-1.));
#375=DIRECTION('',(0.,0.,-1.));
#376=DIRECTION('',(0.,1.,0.));
#377=DIRECTION('center_axis',(3.73969860926369E-16,0.,1.));
#378=DIRECTION('ref_axis',(1.,0.,-3.73969860926369E-16));
#379=DIRECTION('',(1.,0.,-3.73969860926369E-16));
#380=DIRECTION('',(1.,0.,-3.73969860926369E-16));
#381=DIRECTION('',(0.,1.,0.));
#382=DIRECTION('center_axis',(0.884121975804608,0.,0.467256173741296));
#383=DIRECTION('ref_axis',(0.467256173741296,0.,-0.884121975804608));
#384=DIRECTION('',(0.467256173741296,0.,-0.884121975804608));
#385=DIRECTION('',(0.467256173741296,0.,-0.884121975804608));
#386=DIRECTION('',(0.,1.,0.));
#387=DIRECTION('center_axis',(1.,0.,-1.97372982155583E-16));
#388=DIRECTION('ref_axis',(-1.97372982155583E-16,0.,-1.));
#389=DIRECTION('',(-1.97372982155583E-16,0.,-1.));
#390=DIRECTION('',(-1.97372982155583E-16,0.,-1.));
#391=DIRECTION('',(0.,1.,0.));
#392=DIRECTION('center_axis',(0.,0.,1.));
#393=DIRECTION('ref_axis',(1.,0.,0.));
#394=DIRECTION('',(1.,0.,0.));
#395=DIRECTION('',(1.,0.,0.));
#396=DIRECTION('',(0.,1.,0.));
#397=DIRECTION('center_axis',(-1.,0.,9.86864910777917E-17));
#398=DIRECTION('ref_axis',(9.86864910777917E-17,0.,1.));
#399=DIRECTION('',(9.86864910777917E-17,0.,1.));
#400=DIRECTION('',(9.86864910777917E-17,0.,1.));
#401=DIRECTION('center_axis',(0.,1.,0.));
#402=DIRECTION('ref_axis',(0.,0.,1.));
#403=DIRECTION('center_axis',(0.,1.,0.));
#404=DIRECTION('ref_axis',(0.,0.,1.));
#405=CARTESIAN_POINT('',(0.,0.,0.));
#406=CARTESIAN_POINT('Origin',(99.,70.8306209344528,-279.));
#407=CARTESIAN_POINT('',(97.7705,71.2,-279.));
#408=CARTESIAN_POINT('Origin',(99.,71.2,-279.));
#409=CARTESIAN_POINT('',(99.,70.4612418689056,-279.));
#410=CARTESIAN_POINT('',(98.38525,70.8306209344528,-279.));
#411=CARTESIAN_POINT('Origin',(99.,75.6,-279.));
#412=CARTESIAN_POINT('',(97.7705,80.,-279.));
#413=CARTESIAN_POINT('Origin',(99.,80.,-279.));
#414=CARTESIAN_POINT('',(97.7705,75.6,-279.));
#415=CARTESIAN_POINT('Origin',(-4.,70.8306209344528,-90.));
#416=CARTESIAN_POINT('',(-5.2295,71.2,-90.));
#417=CARTESIAN_POINT('Origin',(-4.,71.2,-90.));
#418=CARTESIAN_POINT('',(-4.,70.4612418689056,-90.));
#419=CARTESIAN_POINT('',(-4.61475,70.8306209344528,-90.));
#420=CARTESIAN_POINT('Origin',(-4.,75.6,-90.));
#421=CARTESIAN_POINT('',(-5.2295,80.,-90.));
#422=CARTESIAN_POINT('Origin',(-4.,80.,-90.));
#423=CARTESIAN_POINT('',(-5.2295,75.6,-90.));
#424=CARTESIAN_POINT('Origin',(-4.,70.8306209344528,-5.));
#425=CARTESIAN_POINT('',(-5.2295,71.2,-5.));
#426=CARTESIAN_POINT('Origin',(-4.,71.2,-5.));
#427=CARTESIAN_POINT('',(-4.,70.4612418689056,-5.));
#428=CARTESIAN_POINT('',(-4.61475,70.8306209344528,-5.));
#429=CARTESIAN_POINT('Origin',(-4.,75.6,-5.));
#430=CARTESIAN_POINT('',(-5.2295,80.,-5.));
#431=CARTESIAN_POINT('Origin',(-4.,80.,-5.));
#432=CARTESIAN_POINT('',(-5.2295,75.6,-5.));
#433=CARTESIAN_POINT('Origin',(94.,0.,-283.));
#434=CARTESIAN_POINT('',(94.,0.,-283.));
#435=CARTESIAN_POINT('',(-8.00000000000002,0.,-90.));
#436=CARTESIAN_POINT('',(94.,0.,-283.));
#437=CARTESIAN_POINT('',(-8.00000000000002,80.,-90.));
#438=CARTESIAN_POINT('',(-8.00000000000002,0.,-90.));
#439=CARTESIAN_POINT('',(94.,80.,-283.));
#440=CARTESIAN_POINT('',(94.,80.,-283.));
#441=CARTESIAN_POINT('',(94.,0.,-283.));
#442=CARTESIAN_POINT('Origin',(189.,0.,-283.));
#443=CARTESIAN_POINT('',(189.,0.,-283.));
#444=CARTESIAN_POINT('',(189.,0.,-283.));
#445=CARTESIAN_POINT('',(189.,80.,-283.));
#446=CARTESIAN_POINT('',(189.,80.,-283.));
#447=CARTESIAN_POINT('',(189.,0.,-283.));
#448=CARTESIAN_POINT('Origin',(189.,0.,-275.));
#449=CARTESIAN_POINT('',(189.,0.,-275.));
#450=CARTESIAN_POINT('',(189.,0.,-275.));
#451=CARTESIAN_POINT('',(189.,80.,-275.));
#452=CARTESIAN_POINT('',(189.,80.,-275.));
#453=CARTESIAN_POINT('',(189.,0.,-275.));
#454=CARTESIAN_POINT('Origin',(98.8205459503379,0.,-275.));
#455=CARTESIAN_POINT('',(98.8205459503379,0.,-275.));
#456=CARTESIAN_POINT('',(94.,0.,-275.));
#457=CARTESIAN_POINT('',(98.8205459503379,80.,-275.));
#458=CARTESIAN_POINT('',(94.,80.,-275.));
#459=CARTESIAN_POINT('',(98.8205459503379,0.,-275.));
#460=CARTESIAN_POINT('Origin',(-4.94231406903588E-17,0.,-88.0160257998509));
#461=CARTESIAN_POINT('',(-4.94231406903588E-17,0.,-88.0160257998509));
#462=CARTESIAN_POINT('',(-4.94231406903588E-17,0.,-88.0160257998509));
#463=CARTESIAN_POINT('',(0.,80.,-88.0160257998509));
#464=CARTESIAN_POINT('',(-4.94231406903588E-17,80.,-88.0160257998509));
#465=CARTESIAN_POINT('',(-4.94231406903588E-17,0.,-88.0160257998509));
#466=CARTESIAN_POINT('Origin',(2.96059473233375E-15,0.,15.));
#467=CARTESIAN_POINT('',(-1.75006400285402E-14,0.,15.));
#468=CARTESIAN_POINT('',(0.,0.,0.));
#469=CARTESIAN_POINT('',(-1.77635683940025E-14,80.,15.));
#470=CARTESIAN_POINT('',(0.,80.,0.));
#471=CARTESIAN_POINT('',(-1.75006400285402E-14,0.,15.));
#472=CARTESIAN_POINT('Origin',(-7.99999999999998,0.,15.));
#473=CARTESIAN_POINT('',(-7.99999999999998,0.,15.));
#474=CARTESIAN_POINT('',(-7.99999999999998,0.,15.));
#475=CARTESIAN_POINT('',(-7.99999999999998,80.,15.));
#476=CARTESIAN_POINT('',(-7.99999999999998,80.,15.));
#477=CARTESIAN_POINT('',(-7.99999999999998,0.,15.));
#478=CARTESIAN_POINT('Origin',(-8.00000000000002,0.,-90.));
#479=CARTESIAN_POINT('',(-8.00000000000002,0.,-90.));
#480=CARTESIAN_POINT('',(-8.00000000000002,80.,-90.));
#481=CARTESIAN_POINT('Origin',(-4.00000000000001,80.,-45.));
#482=CARTESIAN_POINT('Origin',(-4.00000000000001,0.,-45.));
#483=UNCERTAINTY_MEASURE_WITH_UNIT(LENGTH_MEASURE(0.01),#487,
'DISTANCE_ACCURACY_VALUE',
'Maximum model space distance between geometric entities at asserted c
onnectivities');
#484=UNCERTAINTY_MEASURE_WITH_UNIT(LENGTH_MEASURE(0.01),#487,
'DISTANCE_ACCURACY_VALUE',
'Maximum model space distance between geometric entities at asserted c
onnectivities');
#485=(
GEOMETRIC_REPRESENTATION_CONTEXT(3)
GLOBAL_UNCERTAINTY_ASSIGNED_CONTEXT((#483))
GLOBAL_UNIT_ASSIGNED_CONTEXT((#487,#489,#490))
REPRESENTATION_CONTEXT('','3D')
);
#486=(
GEOMETRIC_REPRESENTATION_CONTEXT(3)
GLOBAL_UNCERTAINTY_ASSIGNED_CONTEXT((#484))
GLOBAL_UNIT_ASSIGNED_CONTEXT((#487,#489,#490))
REPRESENTATION_CONTEXT('','3D')
);
#487=(
LENGTH_UNIT()
NAMED_UNIT(*)
SI_UNIT(.MILLI.,.METRE.)
);
#488=(
LENGTH_UNIT()
NAMED_UNIT(*)
SI_UNIT(.CENTI.,.METRE.)
);
#489=(
NAMED_UNIT(*)
PLANE_ANGLE_UNIT()
SI_UNIT($,.RADIAN.)
);
#490=(
NAMED_UNIT(*)
SI_UNIT($,.STERADIAN.)
SOLID_ANGLE_UNIT()
);
#491=SHAPE_DEFINITION_REPRESENTATION(#492,#493);
#492=PRODUCT_DEFINITION_SHAPE('',$,#495);
#493=SHAPE_REPRESENTATION('',(#306),#485);
#494=PRODUCT_DEFINITION_CONTEXT('part definition',#499,'design');
#495=PRODUCT_DEFINITION('\X2\53F34ED55207308A\X0\','\X2\53F34ED55207308A\X0\',
#496,#494);
#496=PRODUCT_DEFINITION_FORMATION('',$,#501);
#497=PRODUCT_RELATED_PRODUCT_CATEGORY('\X2\53F34ED55207308A\X0\',
'\X2\53F34ED55207308A\X0\',(#501));
#498=APPLICATION_PROTOCOL_DEFINITION('international standard',
'automotive_design',2009,#499);
#499=APPLICATION_CONTEXT(
'Core Data for Automotive Mechanical Design Process');
#500=PRODUCT_CONTEXT('part definition',#499,'mechanical');
#501=PRODUCT('\X2\53F34ED55207308A\X0\','\X2\53F34ED55207308A\X0\',$,(#500));
#502=PRESENTATION_STYLE_ASSIGNMENT((#503));
#503=SURFACE_STYLE_USAGE(.BOTH.,#506);
#504=SURFACE_STYLE_RENDERING_WITH_PROPERTIES($,#510,(#505));
#505=SURFACE_STYLE_TRANSPARENT(0.);
#506=SURFACE_SIDE_STYLE('',(#507,#504));
#507=SURFACE_STYLE_FILL_AREA(#508);
#508=FILL_AREA_STYLE('',(#509));
#509=FILL_AREA_STYLE_COLOUR('',#510);
#510=COLOUR_RGB('',0.501960784313725,0.501960784313725,0.250980392156863);
ENDSEC;
END-ISO-10303-21;
