ISO-10303-21;
HEADER;
/* Generated by software containing ST-Developer
 * from STEP Tools, Inc. (www.steptools.com) 
 */

FILE_DESCRIPTION(
/* description */ (''),
/* implementation_level */ '2;1');

FILE_NAME(
/* name */ '',
/* time_stamp */ '2026-06-10T03:54:27+09:00',
/* author */ ('Yagis'),
/* organization */ (''),
/* preprocessor_version */ 'ST-DEVELOPER v20.1',
/* originating_system */ 'Autodesk Inventor 2026',
/* authorisation */ '');

FILE_SCHEMA (('AUTOMOTIVE_DESIGN { 1 0 10303 214 3 1 1 }'));
ENDSEC;

DATA;
#10=MECHANICAL_DESIGN_GEOMETRIC_PRESENTATION_REPRESENTATION('',(#16),#517);
#11=GEOMETRICALLY_BOUNDED_WIREFRAME_SHAPE_REPRESENTATION('',(#12),#516);
#12=GEOMETRIC_CURVE_SET('\X2\30B930B130C330C1\X0\1',(#513));
#13=SHAPE_REPRESENTATION_RELATIONSHIP('SRR','None',#524,#15);
#14=SHAPE_REPRESENTATION_RELATIONSHIP('SRR','None',#524,#11);
#15=ADVANCED_BREP_SHAPE_REPRESENTATION('',(#17),#516);
#16=STYLED_ITEM('',(#533),#17);
#17=MANIFOLD_SOLID_BREP('\X2\30BD30EA30C330C9\X0\1',#314);
#18=FACE_OUTER_BOUND('',#34,.T.);
#19=FACE_OUTER_BOUND('',#35,.T.);
#20=FACE_OUTER_BOUND('',#36,.T.);
#21=FACE_OUTER_BOUND('',#37,.T.);
#22=FACE_OUTER_BOUND('',#38,.T.);
#23=FACE_OUTER_BOUND('',#39,.T.);
#24=FACE_OUTER_BOUND('',#40,.T.);
#25=FACE_OUTER_BOUND('',#41,.T.);
#26=FACE_OUTER_BOUND('',#42,.T.);
#27=FACE_OUTER_BOUND('',#43,.T.);
#28=FACE_OUTER_BOUND('',#44,.T.);
#29=FACE_OUTER_BOUND('',#45,.T.);
#30=FACE_OUTER_BOUND('',#46,.T.);
#31=FACE_OUTER_BOUND('',#47,.T.);
#32=FACE_OUTER_BOUND('',#48,.T.);
#33=FACE_OUTER_BOUND('',#49,.T.);
#34=EDGE_LOOP('',(#200,#201,#202,#203));
#35=EDGE_LOOP('',(#204,#205,#206,#207,#208,#209,#210,#211,#212,#213,#214,
#215,#216));
#36=EDGE_LOOP('',(#217,#218,#219,#220,#221,#222,#223,#224));
#37=EDGE_LOOP('',(#225,#226,#227,#228,#229));
#38=EDGE_LOOP('',(#230,#231,#232,#233));
#39=EDGE_LOOP('',(#234,#235,#236,#237,#238,#239,#240));
#40=EDGE_LOOP('',(#241,#242,#243,#244));
#41=EDGE_LOOP('',(#245,#246,#247,#248));
#42=EDGE_LOOP('',(#249,#250,#251,#252,#253));
#43=EDGE_LOOP('',(#254,#255,#256,#257));
#44=EDGE_LOOP('',(#258,#259,#260,#261));
#45=EDGE_LOOP('',(#262,#263,#264,#265));
#46=EDGE_LOOP('',(#266,#267,#268,#269));
#47=EDGE_LOOP('',(#270,#271,#272,#273));
#48=EDGE_LOOP('',(#274,#275,#276,#277));
#49=EDGE_LOOP('',(#278,#279,#280,#281));
#50=LINE('',#432,#91);
#51=LINE('',#434,#92);
#52=LINE('',#436,#93);
#53=LINE('',#437,#94);
#54=LINE('',#440,#95);
#55=LINE('',#442,#96);
#56=LINE('',#444,#97);
#57=LINE('',#446,#98);
#58=LINE('',#448,#99);
#59=LINE('',#450,#100);
#60=LINE('',#452,#101);
#61=LINE('',#454,#102);
#62=LINE('',#456,#103);
#63=LINE('',#458,#104);
#64=LINE('',#460,#105);
#65=LINE('',#461,#106);
#66=LINE('',#464,#107);
#67=LINE('',#465,#108);
#68=LINE('',#467,#109);
#69=LINE('',#469,#110);
#70=LINE('',#470,#111);
#71=LINE('',#473,#112);
#72=LINE('',#475,#113);
#73=LINE('',#476,#114);
#74=LINE('',#478,#115);
#75=LINE('',#481,#116);
#76=LINE('',#483,#117);
#77=LINE('',#485,#118);
#78=LINE('',#487,#119);
#79=LINE('',#489,#120);
#80=LINE('',#490,#121);
#81=LINE('',#493,#122);
#82=LINE('',#495,#123);
#83=LINE('',#496,#124);
#84=LINE('',#498,#125);
#85=LINE('',#499,#126);
#86=LINE('',#501,#127);
#87=LINE('',#503,#128);
#88=LINE('',#505,#129);
#89=LINE('',#508,#130);
#90=LINE('',#510,#131);
#91=VECTOR('',#357,10.);
#92=VECTOR('',#358,10.);
#93=VECTOR('',#359,10.);
#94=VECTOR('',#360,10.);
#95=VECTOR('',#363,10.);
#96=VECTOR('',#364,10.);
#97=VECTOR('',#365,10.);
#98=VECTOR('',#366,10.);
#99=VECTOR('',#367,10.);
#100=VECTOR('',#368,10.);
#101=VECTOR('',#369,10.);
#102=VECTOR('',#370,10.);
#103=VECTOR('',#371,10.);
#104=VECTOR('',#372,10.);
#105=VECTOR('',#373,10.);
#106=VECTOR('',#374,10.);
#107=VECTOR('',#377,10.);
#108=VECTOR('',#378,10.);
#109=VECTOR('',#379,10.);
#110=VECTOR('',#380,10.);
#111=VECTOR('',#381,10.);
#112=VECTOR('',#384,10.);
#113=VECTOR('',#385,10.);
#114=VECTOR('',#386,10.);
#115=VECTOR('',#389,10.);
#116=VECTOR('',#392,10.);
#117=VECTOR('',#393,10.);
#118=VECTOR('',#394,10.);
#119=VECTOR('',#395,10.);
#120=VECTOR('',#396,10.);
#121=VECTOR('',#397,10.);
#122=VECTOR('',#400,10.);
#123=VECTOR('',#401,10.);
#124=VECTOR('',#402,10.);
#125=VECTOR('',#405,10.);
#126=VECTOR('',#406,10.);
#127=VECTOR('',#409,10.);
#128=VECTOR('',#412,10.);
#129=VECTOR('',#415,10.);
#130=VECTOR('',#420,10.);
#131=VECTOR('',#423,10.);
#132=VERTEX_POINT('',#430);
#133=VERTEX_POINT('',#431);
#134=VERTEX_POINT('',#433);
#135=VERTEX_POINT('',#435);
#136=VERTEX_POINT('',#439);
#137=VERTEX_POINT('',#441);
#138=VERTEX_POINT('',#443);
#139=VERTEX_POINT('',#445);
#140=VERTEX_POINT('',#447);
#141=VERTEX_POINT('',#449);
#142=VERTEX_POINT('',#451);
#143=VERTEX_POINT('',#453);
#144=VERTEX_POINT('',#455);
#145=VERTEX_POINT('',#457);
#146=VERTEX_POINT('',#459);
#147=VERTEX_POINT('',#463);
#148=VERTEX_POINT('',#466);
#149=VERTEX_POINT('',#468);
#150=VERTEX_POINT('',#472);
#151=VERTEX_POINT('',#474);
#152=VERTEX_POINT('',#480);
#153=VERTEX_POINT('',#482);
#154=VERTEX_POINT('',#484);
#155=VERTEX_POINT('',#486);
#156=VERTEX_POINT('',#488);
#157=VERTEX_POINT('',#492);
#158=VERTEX_POINT('',#494);
#159=EDGE_CURVE('',#132,#133,#50,.T.);
#160=EDGE_CURVE('',#134,#132,#51,.T.);
#161=EDGE_CURVE('',#135,#134,#52,.T.);
#162=EDGE_CURVE('',#133,#135,#53,.T.);
#163=EDGE_CURVE('',#136,#134,#54,.T.);
#164=EDGE_CURVE('',#136,#137,#55,.T.);
#165=EDGE_CURVE('',#138,#137,#56,.T.);
#166=EDGE_CURVE('',#138,#139,#57,.T.);
#167=EDGE_CURVE('',#139,#140,#58,.T.);
#168=EDGE_CURVE('',#141,#140,#59,.T.);
#169=EDGE_CURVE('',#141,#142,#60,.T.);
#170=EDGE_CURVE('',#142,#143,#61,.T.);
#171=EDGE_CURVE('',#143,#144,#62,.T.);
#172=EDGE_CURVE('',#144,#145,#63,.T.);
#173=EDGE_CURVE('',#145,#146,#64,.T.);
#174=EDGE_CURVE('',#135,#146,#65,.T.);
#175=EDGE_CURVE('',#147,#132,#66,.T.);
#176=EDGE_CURVE('',#140,#147,#67,.T.);
#177=EDGE_CURVE('',#148,#139,#68,.T.);
#178=EDGE_CURVE('',#149,#148,#69,.T.);
#179=EDGE_CURVE('',#136,#149,#70,.T.);
#180=EDGE_CURVE('',#150,#133,#71,.T.);
#181=EDGE_CURVE('',#151,#150,#72,.T.);
#182=EDGE_CURVE('',#147,#151,#73,.T.);
#183=EDGE_CURVE('',#146,#150,#74,.T.);
#184=EDGE_CURVE('',#151,#152,#75,.T.);
#185=EDGE_CURVE('',#152,#153,#76,.T.);
#186=EDGE_CURVE('',#153,#154,#77,.T.);
#187=EDGE_CURVE('',#154,#155,#78,.T.);
#188=EDGE_CURVE('',#155,#156,#79,.T.);
#189=EDGE_CURVE('',#156,#147,#80,.T.);
#190=EDGE_CURVE('',#148,#157,#81,.T.);
#191=EDGE_CURVE('',#158,#157,#82,.T.);
#192=EDGE_CURVE('',#158,#149,#83,.T.);
#193=EDGE_CURVE('',#156,#141,#84,.T.);
#194=EDGE_CURVE('',#142,#155,#85,.T.);
#195=EDGE_CURVE('',#152,#145,#86,.T.);
#196=EDGE_CURVE('',#153,#144,#87,.T.);
#197=EDGE_CURVE('',#143,#154,#88,.T.);
#198=EDGE_CURVE('',#137,#158,#89,.T.);
#199=EDGE_CURVE('',#157,#138,#90,.T.);
#200=ORIENTED_EDGE('',*,*,#159,.F.);
#201=ORIENTED_EDGE('',*,*,#160,.F.);
#202=ORIENTED_EDGE('',*,*,#161,.F.);
#203=ORIENTED_EDGE('',*,*,#162,.F.);
#204=ORIENTED_EDGE('',*,*,#161,.T.);
#205=ORIENTED_EDGE('',*,*,#163,.F.);
#206=ORIENTED_EDGE('',*,*,#164,.T.);
#207=ORIENTED_EDGE('',*,*,#165,.F.);
#208=ORIENTED_EDGE('',*,*,#166,.T.);
#209=ORIENTED_EDGE('',*,*,#167,.T.);
#210=ORIENTED_EDGE('',*,*,#168,.F.);
#211=ORIENTED_EDGE('',*,*,#169,.T.);
#212=ORIENTED_EDGE('',*,*,#170,.T.);
#213=ORIENTED_EDGE('',*,*,#171,.T.);
#214=ORIENTED_EDGE('',*,*,#172,.T.);
#215=ORIENTED_EDGE('',*,*,#173,.T.);
#216=ORIENTED_EDGE('',*,*,#174,.F.);
#217=ORIENTED_EDGE('',*,*,#160,.T.);
#218=ORIENTED_EDGE('',*,*,#175,.F.);
#219=ORIENTED_EDGE('',*,*,#176,.F.);
#220=ORIENTED_EDGE('',*,*,#167,.F.);
#221=ORIENTED_EDGE('',*,*,#177,.F.);
#222=ORIENTED_EDGE('',*,*,#178,.F.);
#223=ORIENTED_EDGE('',*,*,#179,.F.);
#224=ORIENTED_EDGE('',*,*,#163,.T.);
#225=ORIENTED_EDGE('',*,*,#159,.T.);
#226=ORIENTED_EDGE('',*,*,#180,.F.);
#227=ORIENTED_EDGE('',*,*,#181,.F.);
#228=ORIENTED_EDGE('',*,*,#182,.F.);
#229=ORIENTED_EDGE('',*,*,#175,.T.);
#230=ORIENTED_EDGE('',*,*,#162,.T.);
#231=ORIENTED_EDGE('',*,*,#174,.T.);
#232=ORIENTED_EDGE('',*,*,#183,.T.);
#233=ORIENTED_EDGE('',*,*,#180,.T.);
#234=ORIENTED_EDGE('',*,*,#182,.T.);
#235=ORIENTED_EDGE('',*,*,#184,.T.);
#236=ORIENTED_EDGE('',*,*,#185,.T.);
#237=ORIENTED_EDGE('',*,*,#186,.T.);
#238=ORIENTED_EDGE('',*,*,#187,.T.);
#239=ORIENTED_EDGE('',*,*,#188,.T.);
#240=ORIENTED_EDGE('',*,*,#189,.T.);
#241=ORIENTED_EDGE('',*,*,#178,.T.);
#242=ORIENTED_EDGE('',*,*,#190,.T.);
#243=ORIENTED_EDGE('',*,*,#191,.F.);
#244=ORIENTED_EDGE('',*,*,#192,.T.);
#245=ORIENTED_EDGE('',*,*,#193,.F.);
#246=ORIENTED_EDGE('',*,*,#188,.F.);
#247=ORIENTED_EDGE('',*,*,#194,.F.);
#248=ORIENTED_EDGE('',*,*,#169,.F.);
#249=ORIENTED_EDGE('',*,*,#195,.F.);
#250=ORIENTED_EDGE('',*,*,#184,.F.);
#251=ORIENTED_EDGE('',*,*,#181,.T.);
#252=ORIENTED_EDGE('',*,*,#183,.F.);
#253=ORIENTED_EDGE('',*,*,#173,.F.);
#254=ORIENTED_EDGE('',*,*,#185,.F.);
#255=ORIENTED_EDGE('',*,*,#195,.T.);
#256=ORIENTED_EDGE('',*,*,#172,.F.);
#257=ORIENTED_EDGE('',*,*,#196,.F.);
#258=ORIENTED_EDGE('',*,*,#187,.F.);
#259=ORIENTED_EDGE('',*,*,#197,.F.);
#260=ORIENTED_EDGE('',*,*,#170,.F.);
#261=ORIENTED_EDGE('',*,*,#194,.T.);
#262=ORIENTED_EDGE('',*,*,#189,.F.);
#263=ORIENTED_EDGE('',*,*,#193,.T.);
#264=ORIENTED_EDGE('',*,*,#168,.T.);
#265=ORIENTED_EDGE('',*,*,#176,.T.);
#266=ORIENTED_EDGE('',*,*,#192,.F.);
#267=ORIENTED_EDGE('',*,*,#198,.F.);
#268=ORIENTED_EDGE('',*,*,#164,.F.);
#269=ORIENTED_EDGE('',*,*,#179,.T.);
#270=ORIENTED_EDGE('',*,*,#190,.F.);
#271=ORIENTED_EDGE('',*,*,#177,.T.);
#272=ORIENTED_EDGE('',*,*,#166,.F.);
#273=ORIENTED_EDGE('',*,*,#199,.F.);
#274=ORIENTED_EDGE('',*,*,#198,.T.);
#275=ORIENTED_EDGE('',*,*,#191,.T.);
#276=ORIENTED_EDGE('',*,*,#199,.T.);
#277=ORIENTED_EDGE('',*,*,#165,.T.);
#278=ORIENTED_EDGE('',*,*,#196,.T.);
#279=ORIENTED_EDGE('',*,*,#171,.F.);
#280=ORIENTED_EDGE('',*,*,#197,.T.);
#281=ORIENTED_EDGE('',*,*,#186,.F.);
#282=PLANE('',#337);
#283=PLANE('',#338);
#284=PLANE('',#339);
#285=PLANE('',#340);
#286=PLANE('',#341);
#287=PLANE('',#342);
#288=PLANE('',#343);
#289=PLANE('',#344);
#290=PLANE('',#345);
#291=PLANE('',#346);
#292=PLANE('',#347);
#293=PLANE('',#348);
#294=PLANE('',#349);
#295=PLANE('',#350);
#296=PLANE('',#351);
#297=PLANE('',#352);
#298=ADVANCED_FACE('',(#18),#282,.F.);
#299=ADVANCED_FACE('',(#19),#283,.T.);
#300=ADVANCED_FACE('',(#20),#284,.F.);
#301=ADVANCED_FACE('',(#21),#285,.T.);
#302=ADVANCED_FACE('',(#22),#286,.T.);
#303=ADVANCED_FACE('',(#23),#287,.T.);
#304=ADVANCED_FACE('',(#24),#288,.T.);
#305=ADVANCED_FACE('',(#25),#289,.F.);
#306=ADVANCED_FACE('',(#26),#290,.F.);
#307=ADVANCED_FACE('',(#27),#291,.F.);
#308=ADVANCED_FACE('',(#28),#292,.F.);
#309=ADVANCED_FACE('',(#29),#293,.T.);
#310=ADVANCED_FACE('',(#30),#294,.F.);
#311=ADVANCED_FACE('',(#31),#295,.F.);
#312=ADVANCED_FACE('',(#32),#296,.T.);
#313=ADVANCED_FACE('',(#33),#297,.F.);
#314=CLOSED_SHELL('',(#298,#299,#300,#301,#302,#303,#304,#305,#306,#307,
#308,#309,#310,#311,#312,#313));
#315=DERIVED_UNIT_ELEMENT(#318,1.);
#316=DERIVED_UNIT_ELEMENT(#519,-3.);
#317=DIMENSIONAL_EXPONENTS(0.,1.,0.,0.,0.,0.,0.);
#318=(
CONVERSION_BASED_UNIT('gram',#320)
MASS_UNIT()
NAMED_UNIT(#317)
);
#319=(
MASS_UNIT()
NAMED_UNIT(*)
SI_UNIT(.KILO.,.GRAM.)
);
#320=MASS_MEASURE_WITH_UNIT(MASS_MEASURE(0.001),#319);
#321=DERIVED_UNIT((#315,#316));
#322=MEASURE_REPRESENTATION_ITEM('density measure',
POSITIVE_RATIO_MEASURE(1.),#321);
#323=PROPERTY_DEFINITION_REPRESENTATION(#328,#325);
#324=PROPERTY_DEFINITION_REPRESENTATION(#329,#326);
#325=REPRESENTATION('material name',(#327),#516);
#326=REPRESENTATION('density',(#322),#516);
#327=DESCRIPTIVE_REPRESENTATION_ITEM('\X2\4E00822C\X0\','\X2\4E00822C\X0\');
#328=PROPERTY_DEFINITION('material property','material name',#526);
#329=PROPERTY_DEFINITION('material property','density of part',#526);
#330=DATE_TIME_ROLE('creation_date');
#331=APPLIED_DATE_AND_TIME_ASSIGNMENT(#332,#330,(#526));
#332=DATE_AND_TIME(#333,#334);
#333=CALENDAR_DATE(2026,25,5);
#334=LOCAL_TIME(0,0,0.,#335);
#335=COORDINATED_UNIVERSAL_TIME_OFFSET(0,0,.BEHIND.);
#336=AXIS2_PLACEMENT_3D('',#428,#353,#354);
#337=AXIS2_PLACEMENT_3D('',#429,#355,#356);
#338=AXIS2_PLACEMENT_3D('',#438,#361,#362);
#339=AXIS2_PLACEMENT_3D('',#462,#375,#376);
#340=AXIS2_PLACEMENT_3D('',#471,#382,#383);
#341=AXIS2_PLACEMENT_3D('',#477,#387,#388);
#342=AXIS2_PLACEMENT_3D('',#479,#390,#391);
#343=AXIS2_PLACEMENT_3D('',#491,#398,#399);
#344=AXIS2_PLACEMENT_3D('',#497,#403,#404);
#345=AXIS2_PLACEMENT_3D('',#500,#407,#408);
#346=AXIS2_PLACEMENT_3D('',#502,#410,#411);
#347=AXIS2_PLACEMENT_3D('',#504,#413,#414);
#348=AXIS2_PLACEMENT_3D('',#506,#416,#417);
#349=AXIS2_PLACEMENT_3D('',#507,#418,#419);
#350=AXIS2_PLACEMENT_3D('',#509,#421,#422);
#351=AXIS2_PLACEMENT_3D('',#511,#424,#425);
#352=AXIS2_PLACEMENT_3D('',#512,#426,#427);
#353=DIRECTION('axis',(0.,0.,1.));
#354=DIRECTION('refdir',(1.,0.,0.));
#355=DIRECTION('center_axis',(-0.883268970966963,0.,-0.468866638743857));
#356=DIRECTION('ref_axis',(-0.468866638743857,0.,0.883268970966963));
#357=DIRECTION('',(0.468793497280605,-0.0176626236854208,-0.883131184271038));
#358=DIRECTION('',(0.,1.,0.));
#359=DIRECTION('',(-0.468866638743857,0.,0.883268970966963));
#360=DIRECTION('',(0.,-1.,0.));
#361=DIRECTION('center_axis',(0.,-1.,0.));
#362=DIRECTION('ref_axis',(1.,0.,0.));
#363=DIRECTION('',(1.,0.,0.));
#364=DIRECTION('',(0.,0.,1.));
#365=DIRECTION('',(1.,0.,0.));
#366=DIRECTION('',(0.,0.,-1.));
#367=DIRECTION('',(-1.,0.,0.));
#368=DIRECTION('',(0.,0.,1.));
#369=DIRECTION('',(1.,0.,0.));
#370=DIRECTION('',(0.,0.,-1.));
#371=DIRECTION('',(1.,0.,0.));
#372=DIRECTION('',(0.,0.,1.));
#373=DIRECTION('',(1.,0.,0.));
#374=DIRECTION('',(0.,-5.01294426975829E-17,-1.));
#375=DIRECTION('center_axis',(0.,0.,-1.));
#376=DIRECTION('ref_axis',(-1.,0.,0.));
#377=DIRECTION('',(1.,0.,0.));
#378=DIRECTION('',(0.,1.,0.));
#379=DIRECTION('',(0.,-1.,0.));
#380=DIRECTION('',(-0.999818643451537,0.0190441646371721,2.11432700649407E-19));
#381=DIRECTION('',(0.,1.,0.));
#382=DIRECTION('center_axis',(0.,0.999800059980007,-0.0199960011996002));
#383=DIRECTION('ref_axis',(0.,0.0199960011996002,0.999800059980007));
#384=DIRECTION('',(0.,0.0199960011996002,0.999800059980007));
#385=DIRECTION('',(1.,0.,0.));
#386=DIRECTION('',(0.724069057348667,-0.013791791568546,-0.689589578427301));
#387=DIRECTION('center_axis',(1.,0.,0.));
#388=DIRECTION('ref_axis',(0.,0.,-1.));
#389=DIRECTION('',(0.,1.,-2.15428369587656E-14));
#390=DIRECTION('center_axis',(0.0190441646371721,0.999818643451537,0.));
#391=DIRECTION('ref_axis',(-0.999818643451537,0.0190441646371721,0.));
#392=DIRECTION('',(-0.999818643451537,0.0190441646371721,0.));
#393=DIRECTION('',(0.,0.,-1.));
#394=DIRECTION('',(-0.999818643451537,0.0190441646371721,0.));
#395=DIRECTION('',(0.,0.,1.));
#396=DIRECTION('',(-0.999818643451537,0.0190441646371721,0.));
#397=DIRECTION('',(0.,0.,1.));
#398=DIRECTION('center_axis',(0.0190441646371721,0.999818643451537,0.));
#399=DIRECTION('ref_axis',(-0.999818643451537,0.0190441646371721,0.));
#400=DIRECTION('',(0.,0.,1.));
#401=DIRECTION('',(-0.999818643451537,0.0190441646371721,0.));
#402=DIRECTION('',(0.,0.,-1.));
#403=DIRECTION('center_axis',(0.,0.,1.));
#404=DIRECTION('ref_axis',(1.,0.,0.));
#405=DIRECTION('',(0.,-1.,0.));
#406=DIRECTION('',(0.,1.,0.));
#407=DIRECTION('center_axis',(0.,0.,1.));
#408=DIRECTION('ref_axis',(1.,0.,0.));
#409=DIRECTION('',(0.,-1.,0.));
#410=DIRECTION('center_axis',(-1.,0.,0.));
#411=DIRECTION('ref_axis',(0.,-1.,0.));
#412=DIRECTION('',(0.,-1.,0.));
#413=DIRECTION('center_axis',(1.,0.,0.));
#414=DIRECTION('ref_axis',(0.,1.,0.));
#415=DIRECTION('',(0.,1.,0.));
#416=DIRECTION('center_axis',(-1.,0.,0.));
#417=DIRECTION('ref_axis',(0.,-1.,0.));
#418=DIRECTION('center_axis',(-1.,0.,0.));
#419=DIRECTION('ref_axis',(0.,1.,0.));
#420=DIRECTION('',(0.,1.,0.));
#421=DIRECTION('center_axis',(1.,0.,0.));
#422=DIRECTION('ref_axis',(0.,-1.,0.));
#423=DIRECTION('',(0.,-1.,0.));
#424=DIRECTION('center_axis',(0.,0.,1.));
#425=DIRECTION('ref_axis',(1.,0.,0.));
#426=DIRECTION('center_axis',(0.,0.,1.));
#427=DIRECTION('ref_axis',(1.,0.,0.));
#428=CARTESIAN_POINT('',(0.,0.,0.));
#429=CARTESIAN_POINT('Origin',(245.,0.,23.5));
#430=CARTESIAN_POINT('',(146.,5.00000000000001,210.));
#431=CARTESIAN_POINT('',(245.,1.27,23.5));
#432=CARTESIAN_POINT('',(220.879417721884,2.17878557472095,68.9392787360471));
#433=CARTESIAN_POINT('',(146.,0.,210.));
#434=CARTESIAN_POINT('',(146.,1.25000000000001,210.));
#435=CARTESIAN_POINT('',(245.,0.,23.5));
#436=CARTESIAN_POINT('',(222.936189600354,0.,65.0646529245849));
#437=CARTESIAN_POINT('',(245.,1.25,23.5));
#438=CARTESIAN_POINT('Origin',(0.,0.,0.));
#439=CARTESIAN_POINT('',(55.,1.00478791460485E-30,210.));
#440=CARTESIAN_POINT('',(0.,1.00258885395166E-14,210.));
#441=CARTESIAN_POINT('',(55.,1.00478791460485E-30,220.));
#442=CARTESIAN_POINT('',(55.,0.,110.));
#443=CARTESIAN_POINT('',(45.,4.57966997657877E-15,220.));
#444=CARTESIAN_POINT('',(0.,0.,220.));
#445=CARTESIAN_POINT('',(45.,4.57966997657877E-15,210.));
#446=CARTESIAN_POINT('',(45.,0.,110.));
#447=CARTESIAN_POINT('',(0.,-2.22044604925031E-15,210.));
#448=CARTESIAN_POINT('',(11.25,0.,210.));
#449=CARTESIAN_POINT('',(0.,0.,10.));
#450=CARTESIAN_POINT('',(0.,0.,0.));
#451=CARTESIAN_POINT('',(45.,0.,10.));
#452=CARTESIAN_POINT('',(11.25,0.,10.));
#453=CARTESIAN_POINT('',(45.,0.,0.));
#454=CARTESIAN_POINT('',(45.,0.,0.));
#455=CARTESIAN_POINT('',(55.,5.41233724504764E-15,0.));
#456=CARTESIAN_POINT('',(0.,0.,0.));
#457=CARTESIAN_POINT('',(55.,5.55111512312578E-15,10.));
#458=CARTESIAN_POINT('',(55.,0.,0.));
#459=CARTESIAN_POINT('',(245.,0.,10.));
#460=CARTESIAN_POINT('',(0.,0.,10.));
#461=CARTESIAN_POINT('',(245.,0.,10.));
#462=CARTESIAN_POINT('Origin',(150.,2.50000000000001,210.));
#463=CARTESIAN_POINT('',(0.,5.,210.));
#464=CARTESIAN_POINT('',(0.,5.00000000000001,210.));
#465=CARTESIAN_POINT('',(0.,3.75,210.));
#466=CARTESIAN_POINT('',(45.,4.14285714285714,210.));
#467=CARTESIAN_POINT('',(45.,4.44089209850063E-15,210.));
#468=CARTESIAN_POINT('',(55.,3.95238095238095,210.));
#469=CARTESIAN_POINT('',(105.,3.,210.));
#470=CARTESIAN_POINT('',(55.,5.,210.));
#471=CARTESIAN_POINT('Origin',(0.,1.,9.99999999999996));
#472=CARTESIAN_POINT('',(245.,1.,9.99999999999996));
#473=CARTESIAN_POINT('',(245.,5.00000000000001,210.));
#474=CARTESIAN_POINT('',(210.,1.,10.));
#475=CARTESIAN_POINT('',(0.,1.,9.99999999999998));
#476=CARTESIAN_POINT('',(157.447572400019,2.00099862095202,60.0499310476009));
#477=CARTESIAN_POINT('Origin',(245.,2.5,110.));
#478=CARTESIAN_POINT('',(245.,1.,9.99999999999998));
#479=CARTESIAN_POINT('Origin',(210.,1.,0.));
#480=CARTESIAN_POINT('',(55.,3.95238095238095,10.));
#481=CARTESIAN_POINT('',(180.001360050775,1.57140266569952,10.));
#482=CARTESIAN_POINT('',(55.,3.95238095238095,0.));
#483=CARTESIAN_POINT('',(55.,3.95238095238095,0.));
#484=CARTESIAN_POINT('',(45.,4.14285714285714,0.));
#485=CARTESIAN_POINT('',(210.,1.,0.));
#486=CARTESIAN_POINT('',(45.,4.14285714285714,10.));
#487=CARTESIAN_POINT('',(45.,4.14285714285714,0.));
#488=CARTESIAN_POINT('',(0.,5.,10.));
#489=CARTESIAN_POINT('',(116.269720736241,2.78533865264303,10.));
#490=CARTESIAN_POINT('',(0.,5.,0.));
#491=CARTESIAN_POINT('Origin',(210.,1.,0.));
#492=CARTESIAN_POINT('',(45.,4.14285714285714,220.));
#493=CARTESIAN_POINT('',(45.,4.14285714285714,110.));
#494=CARTESIAN_POINT('',(55.,3.95238095238095,220.));
#495=CARTESIAN_POINT('',(210.,1.,220.));
#496=CARTESIAN_POINT('',(55.,3.95238095238095,110.));
#497=CARTESIAN_POINT('Origin',(22.5,2.5,10.));
#498=CARTESIAN_POINT('',(0.,3.75,10.));
#499=CARTESIAN_POINT('',(45.,4.99999999999999,10.));
#500=CARTESIAN_POINT('Origin',(150.,2.,10.));
#501=CARTESIAN_POINT('',(55.,5.55111512312578E-15,10.));
#502=CARTESIAN_POINT('Origin',(55.,4.00000000000001,0.));
#503=CARTESIAN_POINT('',(55.,3.25,0.));
#504=CARTESIAN_POINT('Origin',(45.,0.,0.));
#505=CARTESIAN_POINT('',(45.,1.25,0.));
#506=CARTESIAN_POINT('Origin',(0.,5.,0.));
#507=CARTESIAN_POINT('Origin',(55.,0.,220.));
#508=CARTESIAN_POINT('',(55.,1.25,220.));
#509=CARTESIAN_POINT('Origin',(45.,5.,220.));
#510=CARTESIAN_POINT('',(45.,3.75,220.));
#511=CARTESIAN_POINT('Origin',(105.,2.5,220.));
#512=CARTESIAN_POINT('Origin',(105.,2.5,0.));
#513=CARTESIAN_POINT('',(0.,0.,0.));
#514=UNCERTAINTY_MEASURE_WITH_UNIT(LENGTH_MEASURE(0.01),#518,
'DISTANCE_ACCURACY_VALUE',
'Maximum model space distance between geometric entities at asserted c
onnectivities');
#515=UNCERTAINTY_MEASURE_WITH_UNIT(LENGTH_MEASURE(0.01),#518,
'DISTANCE_ACCURACY_VALUE',
'Maximum model space distance between geometric entities at asserted c
onnectivities');
#516=(
GEOMETRIC_REPRESENTATION_CONTEXT(3)
GLOBAL_UNCERTAINTY_ASSIGNED_CONTEXT((#514))
GLOBAL_UNIT_ASSIGNED_CONTEXT((#518,#520,#521))
REPRESENTATION_CONTEXT('','3D')
);
#517=(
GEOMETRIC_REPRESENTATION_CONTEXT(3)
GLOBAL_UNCERTAINTY_ASSIGNED_CONTEXT((#515))
GLOBAL_UNIT_ASSIGNED_CONTEXT((#518,#520,#521))
REPRESENTATION_CONTEXT('','3D')
);
#518=(
LENGTH_UNIT()
NAMED_UNIT(*)
SI_UNIT(.MILLI.,.METRE.)
);
#519=(
LENGTH_UNIT()
NAMED_UNIT(*)
SI_UNIT(.CENTI.,.METRE.)
);
#520=(
NAMED_UNIT(*)
PLANE_ANGLE_UNIT()
SI_UNIT($,.RADIAN.)
);
#521=(
NAMED_UNIT(*)
SI_UNIT($,.STERADIAN.)
SOLID_ANGLE_UNIT()
);
#522=SHAPE_DEFINITION_REPRESENTATION(#523,#524);
#523=PRODUCT_DEFINITION_SHAPE('',$,#526);
#524=SHAPE_REPRESENTATION('',(#336),#516);
#525=PRODUCT_DEFINITION_CONTEXT('part definition',#530,'design');
#526=PRODUCT_DEFINITION('\X2\5742\X0\','\X2\5742\X0\',#527,#525);
#527=PRODUCT_DEFINITION_FORMATION('',$,#532);
#528=PRODUCT_RELATED_PRODUCT_CATEGORY('\X2\5742\X0\','\X2\5742\X0\',(#532));
#529=APPLICATION_PROTOCOL_DEFINITION('international standard',
'automotive_design',2009,#530);
#530=APPLICATION_CONTEXT(
'Core Data for Automotive Mechanical Design Process');
#531=PRODUCT_CONTEXT('part definition',#530,'mechanical');
#532=PRODUCT('\X2\5742\X0\','\X2\5742\X0\',$,(#531));
#533=PRESENTATION_STYLE_ASSIGNMENT((#535));
#534=PRESENTATION_STYLE_ASSIGNMENT((#536));
#535=SURFACE_STYLE_USAGE(.BOTH.,#539);
#536=SURFACE_STYLE_USAGE(.BOTH.,#540);
#537=SURFACE_STYLE_RENDERING_WITH_PROPERTIES($,#547,(#538));
#538=SURFACE_STYLE_TRANSPARENT(0.);
#539=SURFACE_SIDE_STYLE('',(#541,#537));
#540=SURFACE_SIDE_STYLE('',(#542));
#541=SURFACE_STYLE_FILL_AREA(#543);
#542=SURFACE_STYLE_FILL_AREA(#544);
#543=FILL_AREA_STYLE('',(#545));
#544=FILL_AREA_STYLE('',(#546));
#545=FILL_AREA_STYLE_COLOUR('',#547);
#546=FILL_AREA_STYLE_COLOUR('',#548);
#547=COLOUR_RGB('',0.749019607843137,0.749019607843137,0.749019607843137);
#548=COLOUR_RGB('',1.,1.,0.);
ENDSEC;
END-ISO-10303-21;
