ISO-10303-21;
HEADER;
/* Generated by software containing ST-Developer
 * from STEP Tools, Inc. (www.steptools.com) 
 */

FILE_DESCRIPTION(
/* description */ (''),
/* implementation_level */ '2;1');

FILE_NAME(
/* name */ '',
/* time_stamp */ '2026-06-09T12:54:43+09:00',
/* author */ ('Yagis'),
/* organization */ (''),
/* preprocessor_version */ 'ST-DEVELOPER v20.1',
/* originating_system */ 'Autodesk Inventor 2026',
/* authorisation */ '');

FILE_SCHEMA (('AUTOMOTIVE_DESIGN { 1 0 10303 214 3 1 1 }'));
ENDSEC;

DATA;
#10=MECHANICAL_DESIGN_GEOMETRIC_PRESENTATION_REPRESENTATION('',(#18),#1642);
#11=GEOMETRICALLY_BOUNDED_WIREFRAME_SHAPE_REPRESENTATION('',(#12,#13,#14),
#1641);
#12=GEOMETRIC_CURVE_SET('\X2\30B930B130C330C1\X0\9',(#1636));
#13=GEOMETRIC_CURVE_SET('\X2\30B930B130C330C1\X0\11',(#1637));
#14=GEOMETRIC_CURVE_SET('\X2\30B930B130C330C1\X0\15',(#1638));
#15=SHAPE_REPRESENTATION_RELATIONSHIP('SRR','None',#1649,#17);
#16=SHAPE_REPRESENTATION_RELATIONSHIP('SRR','None',#1649,#11);
#17=ADVANCED_BREP_SHAPE_REPRESENTATION('',(#19),#1641);
#18=STYLED_ITEM('',(#1658),#19);
#19=MANIFOLD_SOLID_BREP('\X2\30BD30EA30C330C9\X0\1',#1004);
#20=CONICAL_SURFACE('',#1086,0.61475,1.02974425867665);
#21=CONICAL_SURFACE('',#1089,0.61475,1.02974425867665);
#22=CONICAL_SURFACE('',#1092,0.61475,1.02974425867665);
#23=FACE_BOUND('',#141,.T.);
#24=FACE_BOUND('',#142,.T.);
#25=FACE_BOUND('',#143,.T.);
#26=FACE_BOUND('',#144,.T.);
#27=FACE_BOUND('',#153,.T.);
#28=FACE_BOUND('',#154,.T.);
#29=FACE_BOUND('',#158,.T.);
#30=FACE_BOUND('',#159,.T.);
#31=FACE_BOUND('',#160,.T.);
#32=FACE_BOUND('',#164,.T.);
#33=FACE_BOUND('',#165,.T.);
#34=FACE_BOUND('',#166,.T.);
#35=FACE_BOUND('',#178,.T.);
#36=FACE_BOUND('',#179,.T.);
#37=FACE_BOUND('',#180,.T.);
#38=FACE_BOUND('',#183,.T.);
#39=FACE_BOUND('',#184,.T.);
#40=FACE_BOUND('',#185,.T.);
#41=FACE_BOUND('',#186,.T.);
#42=FACE_BOUND('',#187,.T.);
#43=FACE_BOUND('',#195,.T.);
#44=FACE_BOUND('',#196,.T.);
#45=FACE_BOUND('',#197,.T.);
#46=FACE_BOUND('',#198,.T.);
#47=FACE_BOUND('',#200,.T.);
#48=FACE_BOUND('',#201,.T.);
#49=FACE_BOUND('',#202,.T.);
#50=PLANE('',#1033);
#51=PLANE('',#1034);
#52=PLANE('',#1035);
#53=PLANE('',#1036);
#54=PLANE('',#1037);
#55=PLANE('',#1038);
#56=PLANE('',#1039);
#57=PLANE('',#1050);
#58=PLANE('',#1051);
#59=PLANE('',#1052);
#60=PLANE('',#1053);
#61=PLANE('',#1054);
#62=PLANE('',#1055);
#63=PLANE('',#1058);
#64=PLANE('',#1059);
#65=PLANE('',#1060);
#66=PLANE('',#1061);
#67=PLANE('',#1062);
#68=PLANE('',#1063);
#69=PLANE('',#1064);
#70=PLANE('',#1077);
#71=PLANE('',#1078);
#72=PLANE('',#1079);
#73=PLANE('',#1080);
#74=PLANE('',#1084);
#75=PLANE('',#1085);
#76=PLANE('',#1095);
#77=PLANE('',#1096);
#78=PLANE('',#1097);
#79=PLANE('',#1098);
#80=PLANE('',#1099);
#81=PLANE('',#1100);
#82=PLANE('',#1101);
#83=FACE_OUTER_BOUND('',#132,.T.);
#84=FACE_OUTER_BOUND('',#133,.T.);
#85=FACE_OUTER_BOUND('',#134,.T.);
#86=FACE_OUTER_BOUND('',#135,.T.);
#87=FACE_OUTER_BOUND('',#136,.T.);
#88=FACE_OUTER_BOUND('',#137,.T.);
#89=FACE_OUTER_BOUND('',#138,.T.);
#90=FACE_OUTER_BOUND('',#139,.T.);
#91=FACE_OUTER_BOUND('',#140,.T.);
#92=FACE_OUTER_BOUND('',#145,.T.);
#93=FACE_OUTER_BOUND('',#146,.T.);
#94=FACE_OUTER_BOUND('',#147,.T.);
#95=FACE_OUTER_BOUND('',#148,.T.);
#96=FACE_OUTER_BOUND('',#149,.T.);
#97=FACE_OUTER_BOUND('',#150,.T.);
#98=FACE_OUTER_BOUND('',#151,.T.);
#99=FACE_OUTER_BOUND('',#152,.T.);
#100=FACE_OUTER_BOUND('',#155,.T.);
#101=FACE_OUTER_BOUND('',#156,.T.);
#102=FACE_OUTER_BOUND('',#157,.T.);
#103=FACE_OUTER_BOUND('',#161,.T.);
#104=FACE_OUTER_BOUND('',#162,.T.);
#105=FACE_OUTER_BOUND('',#163,.T.);
#106=FACE_OUTER_BOUND('',#167,.T.);
#107=FACE_OUTER_BOUND('',#168,.T.);
#108=FACE_OUTER_BOUND('',#169,.T.);
#109=FACE_OUTER_BOUND('',#170,.T.);
#110=FACE_OUTER_BOUND('',#171,.T.);
#111=FACE_OUTER_BOUND('',#172,.T.);
#112=FACE_OUTER_BOUND('',#173,.T.);
#113=FACE_OUTER_BOUND('',#174,.T.);
#114=FACE_OUTER_BOUND('',#175,.T.);
#115=FACE_OUTER_BOUND('',#176,.T.);
#116=FACE_OUTER_BOUND('',#177,.T.);
#117=FACE_OUTER_BOUND('',#181,.T.);
#118=FACE_OUTER_BOUND('',#182,.T.);
#119=FACE_OUTER_BOUND('',#188,.T.);
#120=FACE_OUTER_BOUND('',#189,.T.);
#121=FACE_OUTER_BOUND('',#190,.T.);
#122=FACE_OUTER_BOUND('',#191,.T.);
#123=FACE_OUTER_BOUND('',#192,.T.);
#124=FACE_OUTER_BOUND('',#193,.T.);
#125=FACE_OUTER_BOUND('',#194,.T.);
#126=FACE_OUTER_BOUND('',#199,.T.);
#127=FACE_OUTER_BOUND('',#203,.T.);
#128=FACE_OUTER_BOUND('',#204,.T.);
#129=FACE_OUTER_BOUND('',#205,.T.);
#130=FACE_OUTER_BOUND('',#206,.T.);
#131=FACE_OUTER_BOUND('',#207,.T.);
#132=EDGE_LOOP('',(#674,#675,#676,#677));
#133=EDGE_LOOP('',(#678,#679,#680,#681));
#134=EDGE_LOOP('',(#682,#683,#684,#685));
#135=EDGE_LOOP('',(#686,#687,#688,#689));
#136=EDGE_LOOP('',(#690,#691,#692,#693));
#137=EDGE_LOOP('',(#694,#695,#696,#697));
#138=EDGE_LOOP('',(#698,#699,#700,#701));
#139=EDGE_LOOP('',(#702,#703,#704,#705));
#140=EDGE_LOOP('',(#706,#707,#708,#709,#710,#711,#712,#713,#714));
#141=EDGE_LOOP('',(#715));
#142=EDGE_LOOP('',(#716));
#143=EDGE_LOOP('',(#717));
#144=EDGE_LOOP('',(#718));
#145=EDGE_LOOP('',(#719,#720,#721,#722));
#146=EDGE_LOOP('',(#723,#724,#725,#726));
#147=EDGE_LOOP('',(#727,#728,#729,#730));
#148=EDGE_LOOP('',(#731,#732,#733,#734));
#149=EDGE_LOOP('',(#735,#736,#737,#738));
#150=EDGE_LOOP('',(#739,#740,#741,#742));
#151=EDGE_LOOP('',(#743,#744,#745,#746));
#152=EDGE_LOOP('',(#747,#748,#749,#750));
#153=EDGE_LOOP('',(#751));
#154=EDGE_LOOP('',(#752));
#155=EDGE_LOOP('',(#753,#754,#755,#756));
#156=EDGE_LOOP('',(#757,#758,#759,#760,#761,#762,#763,#764));
#157=EDGE_LOOP('',(#765,#766,#767,#768));
#158=EDGE_LOOP('',(#769));
#159=EDGE_LOOP('',(#770));
#160=EDGE_LOOP('',(#771,#772,#773,#774));
#161=EDGE_LOOP('',(#775,#776,#777,#778,#779,#780));
#162=EDGE_LOOP('',(#781,#782,#783,#784));
#163=EDGE_LOOP('',(#785,#786,#787,#788,#789));
#164=EDGE_LOOP('',(#790));
#165=EDGE_LOOP('',(#791));
#166=EDGE_LOOP('',(#792,#793,#794,#795));
#167=EDGE_LOOP('',(#796,#797,#798,#799,#800,#801,#802,#803,#804,#805,#806,
#807));
#168=EDGE_LOOP('',(#808,#809,#810,#811));
#169=EDGE_LOOP('',(#812,#813,#814,#815));
#170=EDGE_LOOP('',(#816,#817,#818,#819));
#171=EDGE_LOOP('',(#820,#821,#822,#823));
#172=EDGE_LOOP('',(#824,#825,#826,#827));
#173=EDGE_LOOP('',(#828,#829,#830,#831));
#174=EDGE_LOOP('',(#832,#833,#834,#835));
#175=EDGE_LOOP('',(#836,#837,#838,#839));
#176=EDGE_LOOP('',(#840,#841,#842,#843,#844,#845,#846,#847));
#177=EDGE_LOOP('',(#848,#849,#850,#851,#852,#853,#854,#855,#856,#857));
#178=EDGE_LOOP('',(#858));
#179=EDGE_LOOP('',(#859));
#180=EDGE_LOOP('',(#860));
#181=EDGE_LOOP('',(#861,#862,#863,#864));
#182=EDGE_LOOP('',(#865,#866,#867,#868,#869,#870,#871,#872));
#183=EDGE_LOOP('',(#873));
#184=EDGE_LOOP('',(#874));
#185=EDGE_LOOP('',(#875,#876,#877,#878));
#186=EDGE_LOOP('',(#879));
#187=EDGE_LOOP('',(#880));
#188=EDGE_LOOP('',(#881,#882,#883));
#189=EDGE_LOOP('',(#884,#885,#886,#887));
#190=EDGE_LOOP('',(#888,#889,#890));
#191=EDGE_LOOP('',(#891,#892,#893,#894));
#192=EDGE_LOOP('',(#895,#896,#897));
#193=EDGE_LOOP('',(#898,#899,#900,#901));
#194=EDGE_LOOP('',(#902,#903,#904,#905));
#195=EDGE_LOOP('',(#906));
#196=EDGE_LOOP('',(#907));
#197=EDGE_LOOP('',(#908));
#198=EDGE_LOOP('',(#909));
#199=EDGE_LOOP('',(#910,#911,#912,#913,#914,#915));
#200=EDGE_LOOP('',(#916));
#201=EDGE_LOOP('',(#917));
#202=EDGE_LOOP('',(#918,#919,#920,#921));
#203=EDGE_LOOP('',(#922,#923,#924,#925));
#204=EDGE_LOOP('',(#926,#927,#928,#929));
#205=EDGE_LOOP('',(#930,#931,#932,#933));
#206=EDGE_LOOP('',(#934,#935,#936,#937));
#207=EDGE_LOOP('',(#938,#939,#940,#941));
#208=LINE('',#1367,#316);
#209=LINE('',#1373,#317);
#210=LINE('',#1378,#318);
#211=LINE('',#1380,#319);
#212=LINE('',#1382,#320);
#213=LINE('',#1383,#321);
#214=LINE('',#1386,#322);
#215=LINE('',#1388,#323);
#216=LINE('',#1389,#324);
#217=LINE('',#1392,#325);
#218=LINE('',#1394,#326);
#219=LINE('',#1395,#327);
#220=LINE('',#1397,#328);
#221=LINE('',#1398,#329);
#222=LINE('',#1402,#330);
#223=LINE('',#1404,#331);
#224=LINE('',#1406,#332);
#225=LINE('',#1407,#333);
#226=LINE('',#1410,#334);
#227=LINE('',#1412,#335);
#228=LINE('',#1413,#336);
#229=LINE('',#1416,#337);
#230=LINE('',#1418,#338);
#231=LINE('',#1420,#339);
#232=LINE('',#1422,#340);
#233=LINE('',#1424,#341);
#234=LINE('',#1426,#342);
#235=LINE('',#1428,#343);
#236=LINE('',#1429,#344);
#237=LINE('',#1442,#345);
#238=LINE('',#1448,#346);
#239=LINE('',#1453,#347);
#240=LINE('',#1455,#348);
#241=LINE('',#1457,#349);
#242=LINE('',#1458,#350);
#243=LINE('',#1461,#351);
#244=LINE('',#1463,#352);
#245=LINE('',#1464,#353);
#246=LINE('',#1467,#354);
#247=LINE('',#1469,#355);
#248=LINE('',#1470,#356);
#249=LINE('',#1472,#357);
#250=LINE('',#1473,#358);
#251=LINE('',#1477,#359);
#252=LINE('',#1479,#360);
#253=LINE('',#1481,#361);
#254=LINE('',#1482,#362);
#255=LINE('',#1486,#363);
#256=LINE('',#1488,#364);
#257=LINE('',#1490,#365);
#258=LINE('',#1491,#366);
#259=LINE('',#1499,#367);
#260=LINE('',#1500,#368);
#261=LINE('',#1501,#369);
#262=LINE('',#1504,#370);
#263=LINE('',#1506,#371);
#264=LINE('',#1507,#372);
#265=LINE('',#1509,#373);
#266=LINE('',#1510,#374);
#267=LINE('',#1514,#375);
#268=LINE('',#1516,#376);
#269=LINE('',#1518,#377);
#270=LINE('',#1519,#378);
#271=LINE('',#1521,#379);
#272=LINE('',#1523,#380);
#273=LINE('',#1525,#381);
#274=LINE('',#1526,#382);
#275=LINE('',#1528,#383);
#276=LINE('',#1530,#384);
#277=LINE('',#1532,#385);
#278=LINE('',#1534,#386);
#279=LINE('',#1536,#387);
#280=LINE('',#1538,#388);
#281=LINE('',#1540,#389);
#282=LINE('',#1542,#390);
#283=LINE('',#1543,#391);
#284=LINE('',#1546,#392);
#285=LINE('',#1550,#393);
#286=LINE('',#1554,#394);
#287=LINE('',#1558,#395);
#288=LINE('',#1563,#396);
#289=LINE('',#1567,#397);
#290=LINE('',#1570,#398);
#291=LINE('',#1571,#399);
#292=LINE('',#1574,#400);
#293=LINE('',#1575,#401);
#294=LINE('',#1578,#402);
#295=LINE('',#1579,#403);
#296=LINE('',#1580,#404);
#297=LINE('',#1582,#405);
#298=LINE('',#1584,#406);
#299=LINE('',#1586,#407);
#300=LINE('',#1588,#408);
#301=LINE('',#1590,#409);
#302=LINE('',#1592,#410);
#303=LINE('',#1593,#411);
#304=LINE('',#1601,#412);
#305=LINE('',#1603,#413);
#306=LINE('',#1608,#414);
#307=LINE('',#1610,#415);
#308=LINE('',#1615,#416);
#309=LINE('',#1617,#417);
#310=LINE('',#1622,#418);
#311=LINE('',#1624,#419);
#312=LINE('',#1628,#420);
#313=LINE('',#1630,#421);
#314=LINE('',#1632,#422);
#315=LINE('',#1634,#423);
#316=VECTOR('',#1108,1.6);
#317=VECTOR('',#1115,1.6);
#318=VECTOR('',#1120,10.);
#319=VECTOR('',#1121,10.);
#320=VECTOR('',#1122,10.);
#321=VECTOR('',#1123,10.);
#322=VECTOR('',#1126,10.);
#323=VECTOR('',#1127,10.);
#324=VECTOR('',#1128,10.);
#325=VECTOR('',#1131,10.);
#326=VECTOR('',#1132,10.);
#327=VECTOR('',#1133,10.);
#328=VECTOR('',#1136,10.);
#329=VECTOR('',#1137,10.);
#330=VECTOR('',#1140,10.);
#331=VECTOR('',#1141,10.);
#332=VECTOR('',#1142,10.);
#333=VECTOR('',#1143,10.);
#334=VECTOR('',#1146,10.);
#335=VECTOR('',#1147,10.);
#336=VECTOR('',#1148,10.);
#337=VECTOR('',#1151,10.);
#338=VECTOR('',#1152,10.);
#339=VECTOR('',#1153,10.);
#340=VECTOR('',#1154,10.);
#341=VECTOR('',#1155,10.);
#342=VECTOR('',#1156,10.);
#343=VECTOR('',#1157,10.);
#344=VECTOR('',#1158,10.);
#345=VECTOR('',#1171,1.6);
#346=VECTOR('',#1178,1.6);
#347=VECTOR('',#1183,10.);
#348=VECTOR('',#1184,10.);
#349=VECTOR('',#1185,10.);
#350=VECTOR('',#1186,10.);
#351=VECTOR('',#1189,10.);
#352=VECTOR('',#1190,10.);
#353=VECTOR('',#1191,10.);
#354=VECTOR('',#1194,10.);
#355=VECTOR('',#1195,10.);
#356=VECTOR('',#1196,10.);
#357=VECTOR('',#1199,10.);
#358=VECTOR('',#1200,10.);
#359=VECTOR('',#1203,10.);
#360=VECTOR('',#1204,10.);
#361=VECTOR('',#1205,10.);
#362=VECTOR('',#1206,10.);
#363=VECTOR('',#1209,10.);
#364=VECTOR('',#1210,10.);
#365=VECTOR('',#1211,10.);
#366=VECTOR('',#1212,10.);
#367=VECTOR('',#1219,10.);
#368=VECTOR('',#1220,10.);
#369=VECTOR('',#1221,10.);
#370=VECTOR('',#1224,10.);
#371=VECTOR('',#1225,10.);
#372=VECTOR('',#1226,10.);
#373=VECTOR('',#1227,10.);
#374=VECTOR('',#1228,10.);
#375=VECTOR('',#1231,10.);
#376=VECTOR('',#1232,10.);
#377=VECTOR('',#1233,10.);
#378=VECTOR('',#1234,10.);
#379=VECTOR('',#1237,10.);
#380=VECTOR('',#1238,10.);
#381=VECTOR('',#1239,10.);
#382=VECTOR('',#1240,10.);
#383=VECTOR('',#1243,10.);
#384=VECTOR('',#1246,10.);
#385=VECTOR('',#1249,10.);
#386=VECTOR('',#1250,10.);
#387=VECTOR('',#1251,10.);
#388=VECTOR('',#1252,10.);
#389=VECTOR('',#1253,10.);
#390=VECTOR('',#1254,10.);
#391=VECTOR('',#1255,10.);
#392=VECTOR('',#1258,1.1);
#393=VECTOR('',#1263,1.1);
#394=VECTOR('',#1268,1.1);
#395=VECTOR('',#1273,1.1);
#396=VECTOR('',#1280,1.1);
#397=VECTOR('',#1285,1.1);
#398=VECTOR('',#1288,10.);
#399=VECTOR('',#1289,10.);
#400=VECTOR('',#1292,10.);
#401=VECTOR('',#1293,10.);
#402=VECTOR('',#1296,10.);
#403=VECTOR('',#1297,10.);
#404=VECTOR('',#1298,10.);
#405=VECTOR('',#1301,10.);
#406=VECTOR('',#1302,10.);
#407=VECTOR('',#1303,10.);
#408=VECTOR('',#1304,10.);
#409=VECTOR('',#1305,10.);
#410=VECTOR('',#1306,10.);
#411=VECTOR('',#1307,10.);
#412=VECTOR('',#1316,10.);
#413=VECTOR('',#1319,10.);
#414=VECTOR('',#1324,0.61475);
#415=VECTOR('',#1327,1.2295);
#416=VECTOR('',#1332,0.61475);
#417=VECTOR('',#1335,1.2295);
#418=VECTOR('',#1340,0.61475);
#419=VECTOR('',#1343,1.2295);
#420=VECTOR('',#1350,10.);
#421=VECTOR('',#1353,10.);
#422=VECTOR('',#1356,10.);
#423=VECTOR('',#1359,10.);
#424=CIRCLE('',#1028,1.6);
#425=CIRCLE('',#1029,1.6);
#426=CIRCLE('',#1031,1.6);
#427=CIRCLE('',#1032,1.6);
#428=CIRCLE('',#1040,1.1);
#429=CIRCLE('',#1041,1.1);
#430=CIRCLE('',#1042,1.1);
#431=CIRCLE('',#1043,1.1);
#432=CIRCLE('',#1045,1.6);
#433=CIRCLE('',#1046,1.6);
#434=CIRCLE('',#1048,1.6);
#435=CIRCLE('',#1049,1.6);
#436=CIRCLE('',#1056,1.1);
#437=CIRCLE('',#1057,1.1);
#438=CIRCLE('',#1066,1.09999999999999);
#439=CIRCLE('',#1068,1.09999999999999);
#440=CIRCLE('',#1070,1.09999999999999);
#441=CIRCLE('',#1072,1.09999999999999);
#442=CIRCLE('',#1074,1.1);
#443=CIRCLE('',#1076,1.1);
#444=CIRCLE('',#1081,1.2295);
#445=CIRCLE('',#1082,1.2295);
#446=CIRCLE('',#1083,1.2295);
#447=CIRCLE('',#1087,1.2295);
#448=CIRCLE('',#1090,1.2295);
#449=CIRCLE('',#1093,1.2295);
#450=VERTEX_POINT('',#1364);
#451=VERTEX_POINT('',#1366);
#452=VERTEX_POINT('',#1370);
#453=VERTEX_POINT('',#1372);
#454=VERTEX_POINT('',#1376);
#455=VERTEX_POINT('',#1377);
#456=VERTEX_POINT('',#1379);
#457=VERTEX_POINT('',#1381);
#458=VERTEX_POINT('',#1385);
#459=VERTEX_POINT('',#1387);
#460=VERTEX_POINT('',#1391);
#461=VERTEX_POINT('',#1393);
#462=VERTEX_POINT('',#1400);
#463=VERTEX_POINT('',#1401);
#464=VERTEX_POINT('',#1403);
#465=VERTEX_POINT('',#1405);
#466=VERTEX_POINT('',#1409);
#467=VERTEX_POINT('',#1411);
#468=VERTEX_POINT('',#1415);
#469=VERTEX_POINT('',#1417);
#470=VERTEX_POINT('',#1419);
#471=VERTEX_POINT('',#1421);
#472=VERTEX_POINT('',#1423);
#473=VERTEX_POINT('',#1425);
#474=VERTEX_POINT('',#1427);
#475=VERTEX_POINT('',#1430);
#476=VERTEX_POINT('',#1432);
#477=VERTEX_POINT('',#1434);
#478=VERTEX_POINT('',#1436);
#479=VERTEX_POINT('',#1439);
#480=VERTEX_POINT('',#1441);
#481=VERTEX_POINT('',#1445);
#482=VERTEX_POINT('',#1447);
#483=VERTEX_POINT('',#1451);
#484=VERTEX_POINT('',#1452);
#485=VERTEX_POINT('',#1454);
#486=VERTEX_POINT('',#1456);
#487=VERTEX_POINT('',#1460);
#488=VERTEX_POINT('',#1462);
#489=VERTEX_POINT('',#1466);
#490=VERTEX_POINT('',#1468);
#491=VERTEX_POINT('',#1475);
#492=VERTEX_POINT('',#1476);
#493=VERTEX_POINT('',#1478);
#494=VERTEX_POINT('',#1480);
#495=VERTEX_POINT('',#1484);
#496=VERTEX_POINT('',#1485);
#497=VERTEX_POINT('',#1487);
#498=VERTEX_POINT('',#1489);
#499=VERTEX_POINT('',#1492);
#500=VERTEX_POINT('',#1494);
#501=VERTEX_POINT('',#1497);
#502=VERTEX_POINT('',#1498);
#503=VERTEX_POINT('',#1503);
#504=VERTEX_POINT('',#1505);
#505=VERTEX_POINT('',#1508);
#506=VERTEX_POINT('',#1512);
#507=VERTEX_POINT('',#1513);
#508=VERTEX_POINT('',#1515);
#509=VERTEX_POINT('',#1517);
#510=VERTEX_POINT('',#1522);
#511=VERTEX_POINT('',#1524);
#512=VERTEX_POINT('',#1533);
#513=VERTEX_POINT('',#1535);
#514=VERTEX_POINT('',#1537);
#515=VERTEX_POINT('',#1539);
#516=VERTEX_POINT('',#1541);
#517=VERTEX_POINT('',#1545);
#518=VERTEX_POINT('',#1549);
#519=VERTEX_POINT('',#1553);
#520=VERTEX_POINT('',#1557);
#521=VERTEX_POINT('',#1561);
#522=VERTEX_POINT('',#1565);
#523=VERTEX_POINT('',#1569);
#524=VERTEX_POINT('',#1573);
#525=VERTEX_POINT('',#1577);
#526=VERTEX_POINT('',#1583);
#527=VERTEX_POINT('',#1585);
#528=VERTEX_POINT('',#1587);
#529=VERTEX_POINT('',#1589);
#530=VERTEX_POINT('',#1591);
#531=VERTEX_POINT('',#1594);
#532=VERTEX_POINT('',#1596);
#533=VERTEX_POINT('',#1598);
#534=VERTEX_POINT('',#1605);
#535=VERTEX_POINT('',#1607);
#536=VERTEX_POINT('',#1612);
#537=VERTEX_POINT('',#1614);
#538=VERTEX_POINT('',#1619);
#539=VERTEX_POINT('',#1621);
#540=EDGE_CURVE('',#450,#450,#424,.T.);
#541=EDGE_CURVE('',#450,#451,#208,.T.);
#542=EDGE_CURVE('',#451,#451,#425,.T.);
#543=EDGE_CURVE('',#452,#452,#426,.T.);
#544=EDGE_CURVE('',#452,#453,#209,.T.);
#545=EDGE_CURVE('',#453,#453,#427,.T.);
#546=EDGE_CURVE('',#454,#455,#210,.T.);
#547=EDGE_CURVE('',#456,#454,#211,.T.);
#548=EDGE_CURVE('',#457,#456,#212,.T.);
#549=EDGE_CURVE('',#457,#455,#213,.T.);
#550=EDGE_CURVE('',#455,#458,#214,.T.);
#551=EDGE_CURVE('',#459,#457,#215,.T.);
#552=EDGE_CURVE('',#459,#458,#216,.T.);
#553=EDGE_CURVE('',#458,#460,#217,.T.);
#554=EDGE_CURVE('',#461,#459,#218,.T.);
#555=EDGE_CURVE('',#461,#460,#219,.T.);
#556=EDGE_CURVE('',#460,#454,#220,.T.);
#557=EDGE_CURVE('',#456,#461,#221,.T.);
#558=EDGE_CURVE('',#462,#463,#222,.T.);
#559=EDGE_CURVE('',#462,#464,#223,.T.);
#560=EDGE_CURVE('',#465,#464,#224,.T.);
#561=EDGE_CURVE('',#463,#465,#225,.T.);
#562=EDGE_CURVE('',#464,#466,#226,.T.);
#563=EDGE_CURVE('',#466,#467,#227,.T.);
#564=EDGE_CURVE('',#467,#465,#228,.T.);
#565=EDGE_CURVE('',#463,#468,#229,.T.);
#566=EDGE_CURVE('',#469,#468,#230,.T.);
#567=EDGE_CURVE('',#469,#470,#231,.T.);
#568=EDGE_CURVE('',#470,#471,#232,.T.);
#569=EDGE_CURVE('',#471,#472,#233,.T.);
#570=EDGE_CURVE('',#473,#472,#234,.T.);
#571=EDGE_CURVE('',#474,#473,#235,.T.);
#572=EDGE_CURVE('',#474,#462,#236,.T.);
#573=EDGE_CURVE('',#475,#475,#428,.T.);
#574=EDGE_CURVE('',#476,#476,#429,.T.);
#575=EDGE_CURVE('',#477,#477,#430,.T.);
#576=EDGE_CURVE('',#478,#478,#431,.T.);
#577=EDGE_CURVE('',#479,#479,#432,.T.);
#578=EDGE_CURVE('',#479,#480,#237,.T.);
#579=EDGE_CURVE('',#480,#480,#433,.T.);
#580=EDGE_CURVE('',#481,#481,#434,.T.);
#581=EDGE_CURVE('',#481,#482,#238,.T.);
#582=EDGE_CURVE('',#482,#482,#435,.T.);
#583=EDGE_CURVE('',#483,#484,#239,.T.);
#584=EDGE_CURVE('',#485,#483,#240,.T.);
#585=EDGE_CURVE('',#486,#485,#241,.T.);
#586=EDGE_CURVE('',#486,#484,#242,.T.);
#587=EDGE_CURVE('',#484,#487,#243,.T.);
#588=EDGE_CURVE('',#488,#486,#244,.T.);
#589=EDGE_CURVE('',#488,#487,#245,.T.);
#590=EDGE_CURVE('',#487,#489,#246,.T.);
#591=EDGE_CURVE('',#490,#488,#247,.T.);
#592=EDGE_CURVE('',#490,#489,#248,.T.);
#593=EDGE_CURVE('',#489,#483,#249,.T.);
#594=EDGE_CURVE('',#485,#490,#250,.T.);
#595=EDGE_CURVE('',#491,#492,#251,.T.);
#596=EDGE_CURVE('',#492,#493,#252,.T.);
#597=EDGE_CURVE('',#494,#493,#253,.T.);
#598=EDGE_CURVE('',#491,#494,#254,.T.);
#599=EDGE_CURVE('',#495,#496,#255,.T.);
#600=EDGE_CURVE('',#496,#497,#256,.T.);
#601=EDGE_CURVE('',#498,#497,#257,.T.);
#602=EDGE_CURVE('',#498,#495,#258,.T.);
#603=EDGE_CURVE('',#499,#499,#436,.T.);
#604=EDGE_CURVE('',#500,#500,#437,.T.);
#605=EDGE_CURVE('',#501,#502,#259,.T.);
#606=EDGE_CURVE('',#495,#501,#260,.T.);
#607=EDGE_CURVE('',#502,#498,#261,.T.);
#608=EDGE_CURVE('',#503,#497,#262,.T.);
#609=EDGE_CURVE('',#504,#503,#263,.T.);
#610=EDGE_CURVE('',#472,#504,#264,.T.);
#611=EDGE_CURVE('',#505,#471,#265,.T.);
#612=EDGE_CURVE('',#502,#505,#266,.T.);
#613=EDGE_CURVE('',#506,#507,#267,.T.);
#614=EDGE_CURVE('',#508,#507,#268,.T.);
#615=EDGE_CURVE('',#508,#509,#269,.T.);
#616=EDGE_CURVE('',#506,#509,#270,.T.);
#617=EDGE_CURVE('',#493,#474,#271,.T.);
#618=EDGE_CURVE('',#510,#473,#272,.T.);
#619=EDGE_CURVE('',#511,#510,#273,.T.);
#620=EDGE_CURVE('',#511,#494,#274,.T.);
#621=EDGE_CURVE('',#462,#492,#275,.T.);
#622=EDGE_CURVE('',#466,#491,#276,.T.);
#623=EDGE_CURVE('',#507,#467,#277,.T.);
#624=EDGE_CURVE('',#512,#511,#278,.T.);
#625=EDGE_CURVE('',#513,#512,#279,.T.);
#626=EDGE_CURVE('',#514,#513,#280,.T.);
#627=EDGE_CURVE('',#515,#514,#281,.T.);
#628=EDGE_CURVE('',#516,#515,#282,.T.);
#629=EDGE_CURVE('',#508,#516,#283,.T.);
#630=EDGE_CURVE('',#475,#517,#284,.T.);
#631=EDGE_CURVE('',#517,#517,#438,.T.);
#632=EDGE_CURVE('',#476,#518,#285,.T.);
#633=EDGE_CURVE('',#518,#518,#439,.T.);
#634=EDGE_CURVE('',#477,#519,#286,.T.);
#635=EDGE_CURVE('',#519,#519,#440,.T.);
#636=EDGE_CURVE('',#478,#520,#287,.T.);
#637=EDGE_CURVE('',#520,#520,#441,.T.);
#638=EDGE_CURVE('',#521,#521,#442,.T.);
#639=EDGE_CURVE('',#521,#500,#288,.T.);
#640=EDGE_CURVE('',#522,#522,#443,.T.);
#641=EDGE_CURVE('',#522,#499,#289,.T.);
#642=EDGE_CURVE('',#523,#496,#290,.T.);
#643=EDGE_CURVE('',#503,#523,#291,.T.);
#644=EDGE_CURVE('',#524,#470,#292,.T.);
#645=EDGE_CURVE('',#505,#524,#293,.T.);
#646=EDGE_CURVE('',#525,#469,#294,.T.);
#647=EDGE_CURVE('',#523,#525,#295,.T.);
#648=EDGE_CURVE('',#524,#501,#296,.T.);
#649=EDGE_CURVE('',#468,#506,#297,.T.);
#650=EDGE_CURVE('',#509,#526,#298,.T.);
#651=EDGE_CURVE('',#526,#527,#299,.T.);
#652=EDGE_CURVE('',#527,#528,#300,.T.);
#653=EDGE_CURVE('',#528,#529,#301,.T.);
#654=EDGE_CURVE('',#529,#530,#302,.T.);
#655=EDGE_CURVE('',#530,#525,#303,.T.);
#656=EDGE_CURVE('',#531,#531,#444,.T.);
#657=EDGE_CURVE('',#532,#532,#445,.T.);
#658=EDGE_CURVE('',#533,#533,#446,.T.);
#659=EDGE_CURVE('',#504,#510,#304,.T.);
#660=EDGE_CURVE('',#512,#530,#305,.T.);
#661=EDGE_CURVE('',#534,#534,#447,.T.);
#662=EDGE_CURVE('',#534,#535,#306,.T.);
#663=EDGE_CURVE('',#531,#534,#307,.T.);
#664=EDGE_CURVE('',#536,#536,#448,.T.);
#665=EDGE_CURVE('',#536,#537,#308,.T.);
#666=EDGE_CURVE('',#532,#536,#309,.T.);
#667=EDGE_CURVE('',#538,#538,#449,.T.);
#668=EDGE_CURVE('',#538,#539,#310,.T.);
#669=EDGE_CURVE('',#533,#538,#311,.T.);
#670=EDGE_CURVE('',#513,#529,#312,.T.);
#671=EDGE_CURVE('',#514,#528,#313,.T.);
#672=EDGE_CURVE('',#515,#527,#314,.T.);
#673=EDGE_CURVE('',#516,#526,#315,.T.);
#674=ORIENTED_EDGE('',*,*,#540,.F.);
#675=ORIENTED_EDGE('',*,*,#541,.T.);
#676=ORIENTED_EDGE('',*,*,#542,.F.);
#677=ORIENTED_EDGE('',*,*,#541,.F.);
#678=ORIENTED_EDGE('',*,*,#543,.F.);
#679=ORIENTED_EDGE('',*,*,#544,.T.);
#680=ORIENTED_EDGE('',*,*,#545,.F.);
#681=ORIENTED_EDGE('',*,*,#544,.F.);
#682=ORIENTED_EDGE('',*,*,#546,.F.);
#683=ORIENTED_EDGE('',*,*,#547,.F.);
#684=ORIENTED_EDGE('',*,*,#548,.F.);
#685=ORIENTED_EDGE('',*,*,#549,.T.);
#686=ORIENTED_EDGE('',*,*,#550,.F.);
#687=ORIENTED_EDGE('',*,*,#549,.F.);
#688=ORIENTED_EDGE('',*,*,#551,.F.);
#689=ORIENTED_EDGE('',*,*,#552,.T.);
#690=ORIENTED_EDGE('',*,*,#553,.F.);
#691=ORIENTED_EDGE('',*,*,#552,.F.);
#692=ORIENTED_EDGE('',*,*,#554,.F.);
#693=ORIENTED_EDGE('',*,*,#555,.T.);
#694=ORIENTED_EDGE('',*,*,#556,.F.);
#695=ORIENTED_EDGE('',*,*,#555,.F.);
#696=ORIENTED_EDGE('',*,*,#557,.F.);
#697=ORIENTED_EDGE('',*,*,#547,.T.);
#698=ORIENTED_EDGE('',*,*,#558,.F.);
#699=ORIENTED_EDGE('',*,*,#559,.T.);
#700=ORIENTED_EDGE('',*,*,#560,.F.);
#701=ORIENTED_EDGE('',*,*,#561,.F.);
#702=ORIENTED_EDGE('',*,*,#560,.T.);
#703=ORIENTED_EDGE('',*,*,#562,.T.);
#704=ORIENTED_EDGE('',*,*,#563,.T.);
#705=ORIENTED_EDGE('',*,*,#564,.T.);
#706=ORIENTED_EDGE('',*,*,#558,.T.);
#707=ORIENTED_EDGE('',*,*,#565,.T.);
#708=ORIENTED_EDGE('',*,*,#566,.F.);
#709=ORIENTED_EDGE('',*,*,#567,.T.);
#710=ORIENTED_EDGE('',*,*,#568,.T.);
#711=ORIENTED_EDGE('',*,*,#569,.T.);
#712=ORIENTED_EDGE('',*,*,#570,.F.);
#713=ORIENTED_EDGE('',*,*,#571,.F.);
#714=ORIENTED_EDGE('',*,*,#572,.T.);
#715=ORIENTED_EDGE('',*,*,#573,.T.);
#716=ORIENTED_EDGE('',*,*,#574,.T.);
#717=ORIENTED_EDGE('',*,*,#575,.T.);
#718=ORIENTED_EDGE('',*,*,#576,.T.);
#719=ORIENTED_EDGE('',*,*,#577,.F.);
#720=ORIENTED_EDGE('',*,*,#578,.T.);
#721=ORIENTED_EDGE('',*,*,#579,.F.);
#722=ORIENTED_EDGE('',*,*,#578,.F.);
#723=ORIENTED_EDGE('',*,*,#580,.F.);
#724=ORIENTED_EDGE('',*,*,#581,.T.);
#725=ORIENTED_EDGE('',*,*,#582,.F.);
#726=ORIENTED_EDGE('',*,*,#581,.F.);
#727=ORIENTED_EDGE('',*,*,#583,.F.);
#728=ORIENTED_EDGE('',*,*,#584,.F.);
#729=ORIENTED_EDGE('',*,*,#585,.F.);
#730=ORIENTED_EDGE('',*,*,#586,.T.);
#731=ORIENTED_EDGE('',*,*,#587,.F.);
#732=ORIENTED_EDGE('',*,*,#586,.F.);
#733=ORIENTED_EDGE('',*,*,#588,.F.);
#734=ORIENTED_EDGE('',*,*,#589,.T.);
#735=ORIENTED_EDGE('',*,*,#590,.F.);
#736=ORIENTED_EDGE('',*,*,#589,.F.);
#737=ORIENTED_EDGE('',*,*,#591,.F.);
#738=ORIENTED_EDGE('',*,*,#592,.T.);
#739=ORIENTED_EDGE('',*,*,#593,.F.);
#740=ORIENTED_EDGE('',*,*,#592,.F.);
#741=ORIENTED_EDGE('',*,*,#594,.F.);
#742=ORIENTED_EDGE('',*,*,#584,.T.);
#743=ORIENTED_EDGE('',*,*,#595,.T.);
#744=ORIENTED_EDGE('',*,*,#596,.T.);
#745=ORIENTED_EDGE('',*,*,#597,.F.);
#746=ORIENTED_EDGE('',*,*,#598,.F.);
#747=ORIENTED_EDGE('',*,*,#599,.T.);
#748=ORIENTED_EDGE('',*,*,#600,.T.);
#749=ORIENTED_EDGE('',*,*,#601,.F.);
#750=ORIENTED_EDGE('',*,*,#602,.T.);
#751=ORIENTED_EDGE('',*,*,#603,.T.);
#752=ORIENTED_EDGE('',*,*,#604,.T.);
#753=ORIENTED_EDGE('',*,*,#605,.F.);
#754=ORIENTED_EDGE('',*,*,#606,.F.);
#755=ORIENTED_EDGE('',*,*,#602,.F.);
#756=ORIENTED_EDGE('',*,*,#607,.F.);
#757=ORIENTED_EDGE('',*,*,#607,.T.);
#758=ORIENTED_EDGE('',*,*,#601,.T.);
#759=ORIENTED_EDGE('',*,*,#608,.F.);
#760=ORIENTED_EDGE('',*,*,#609,.F.);
#761=ORIENTED_EDGE('',*,*,#610,.F.);
#762=ORIENTED_EDGE('',*,*,#569,.F.);
#763=ORIENTED_EDGE('',*,*,#611,.F.);
#764=ORIENTED_EDGE('',*,*,#612,.F.);
#765=ORIENTED_EDGE('',*,*,#613,.T.);
#766=ORIENTED_EDGE('',*,*,#614,.F.);
#767=ORIENTED_EDGE('',*,*,#615,.T.);
#768=ORIENTED_EDGE('',*,*,#616,.F.);
#769=ORIENTED_EDGE('',*,*,#577,.T.);
#770=ORIENTED_EDGE('',*,*,#580,.T.);
#771=ORIENTED_EDGE('',*,*,#591,.T.);
#772=ORIENTED_EDGE('',*,*,#588,.T.);
#773=ORIENTED_EDGE('',*,*,#585,.T.);
#774=ORIENTED_EDGE('',*,*,#594,.T.);
#775=ORIENTED_EDGE('',*,*,#597,.T.);
#776=ORIENTED_EDGE('',*,*,#617,.T.);
#777=ORIENTED_EDGE('',*,*,#571,.T.);
#778=ORIENTED_EDGE('',*,*,#618,.F.);
#779=ORIENTED_EDGE('',*,*,#619,.F.);
#780=ORIENTED_EDGE('',*,*,#620,.T.);
#781=ORIENTED_EDGE('',*,*,#572,.F.);
#782=ORIENTED_EDGE('',*,*,#617,.F.);
#783=ORIENTED_EDGE('',*,*,#596,.F.);
#784=ORIENTED_EDGE('',*,*,#621,.F.);
#785=ORIENTED_EDGE('',*,*,#622,.F.);
#786=ORIENTED_EDGE('',*,*,#562,.F.);
#787=ORIENTED_EDGE('',*,*,#559,.F.);
#788=ORIENTED_EDGE('',*,*,#621,.T.);
#789=ORIENTED_EDGE('',*,*,#595,.F.);
#790=ORIENTED_EDGE('',*,*,#540,.T.);
#791=ORIENTED_EDGE('',*,*,#543,.T.);
#792=ORIENTED_EDGE('',*,*,#554,.T.);
#793=ORIENTED_EDGE('',*,*,#551,.T.);
#794=ORIENTED_EDGE('',*,*,#548,.T.);
#795=ORIENTED_EDGE('',*,*,#557,.T.);
#796=ORIENTED_EDGE('',*,*,#614,.T.);
#797=ORIENTED_EDGE('',*,*,#623,.T.);
#798=ORIENTED_EDGE('',*,*,#563,.F.);
#799=ORIENTED_EDGE('',*,*,#622,.T.);
#800=ORIENTED_EDGE('',*,*,#598,.T.);
#801=ORIENTED_EDGE('',*,*,#620,.F.);
#802=ORIENTED_EDGE('',*,*,#624,.F.);
#803=ORIENTED_EDGE('',*,*,#625,.F.);
#804=ORIENTED_EDGE('',*,*,#626,.F.);
#805=ORIENTED_EDGE('',*,*,#627,.F.);
#806=ORIENTED_EDGE('',*,*,#628,.F.);
#807=ORIENTED_EDGE('',*,*,#629,.F.);
#808=ORIENTED_EDGE('',*,*,#573,.F.);
#809=ORIENTED_EDGE('',*,*,#630,.T.);
#810=ORIENTED_EDGE('',*,*,#631,.F.);
#811=ORIENTED_EDGE('',*,*,#630,.F.);
#812=ORIENTED_EDGE('',*,*,#574,.F.);
#813=ORIENTED_EDGE('',*,*,#632,.T.);
#814=ORIENTED_EDGE('',*,*,#633,.F.);
#815=ORIENTED_EDGE('',*,*,#632,.F.);
#816=ORIENTED_EDGE('',*,*,#575,.F.);
#817=ORIENTED_EDGE('',*,*,#634,.T.);
#818=ORIENTED_EDGE('',*,*,#635,.F.);
#819=ORIENTED_EDGE('',*,*,#634,.F.);
#820=ORIENTED_EDGE('',*,*,#576,.F.);
#821=ORIENTED_EDGE('',*,*,#636,.T.);
#822=ORIENTED_EDGE('',*,*,#637,.F.);
#823=ORIENTED_EDGE('',*,*,#636,.F.);
#824=ORIENTED_EDGE('',*,*,#638,.F.);
#825=ORIENTED_EDGE('',*,*,#639,.T.);
#826=ORIENTED_EDGE('',*,*,#604,.F.);
#827=ORIENTED_EDGE('',*,*,#639,.F.);
#828=ORIENTED_EDGE('',*,*,#640,.F.);
#829=ORIENTED_EDGE('',*,*,#641,.T.);
#830=ORIENTED_EDGE('',*,*,#603,.F.);
#831=ORIENTED_EDGE('',*,*,#641,.F.);
#832=ORIENTED_EDGE('',*,*,#600,.F.);
#833=ORIENTED_EDGE('',*,*,#642,.F.);
#834=ORIENTED_EDGE('',*,*,#643,.F.);
#835=ORIENTED_EDGE('',*,*,#608,.T.);
#836=ORIENTED_EDGE('',*,*,#568,.F.);
#837=ORIENTED_EDGE('',*,*,#644,.F.);
#838=ORIENTED_EDGE('',*,*,#645,.F.);
#839=ORIENTED_EDGE('',*,*,#611,.T.);
#840=ORIENTED_EDGE('',*,*,#646,.F.);
#841=ORIENTED_EDGE('',*,*,#647,.F.);
#842=ORIENTED_EDGE('',*,*,#642,.T.);
#843=ORIENTED_EDGE('',*,*,#599,.F.);
#844=ORIENTED_EDGE('',*,*,#606,.T.);
#845=ORIENTED_EDGE('',*,*,#648,.F.);
#846=ORIENTED_EDGE('',*,*,#644,.T.);
#847=ORIENTED_EDGE('',*,*,#567,.F.);
#848=ORIENTED_EDGE('',*,*,#646,.T.);
#849=ORIENTED_EDGE('',*,*,#566,.T.);
#850=ORIENTED_EDGE('',*,*,#649,.T.);
#851=ORIENTED_EDGE('',*,*,#616,.T.);
#852=ORIENTED_EDGE('',*,*,#650,.T.);
#853=ORIENTED_EDGE('',*,*,#651,.T.);
#854=ORIENTED_EDGE('',*,*,#652,.T.);
#855=ORIENTED_EDGE('',*,*,#653,.T.);
#856=ORIENTED_EDGE('',*,*,#654,.T.);
#857=ORIENTED_EDGE('',*,*,#655,.T.);
#858=ORIENTED_EDGE('',*,*,#656,.T.);
#859=ORIENTED_EDGE('',*,*,#657,.T.);
#860=ORIENTED_EDGE('',*,*,#658,.T.);
#861=ORIENTED_EDGE('',*,*,#610,.T.);
#862=ORIENTED_EDGE('',*,*,#659,.T.);
#863=ORIENTED_EDGE('',*,*,#618,.T.);
#864=ORIENTED_EDGE('',*,*,#570,.T.);
#865=ORIENTED_EDGE('',*,*,#609,.T.);
#866=ORIENTED_EDGE('',*,*,#643,.T.);
#867=ORIENTED_EDGE('',*,*,#647,.T.);
#868=ORIENTED_EDGE('',*,*,#655,.F.);
#869=ORIENTED_EDGE('',*,*,#660,.F.);
#870=ORIENTED_EDGE('',*,*,#624,.T.);
#871=ORIENTED_EDGE('',*,*,#619,.T.);
#872=ORIENTED_EDGE('',*,*,#659,.F.);
#873=ORIENTED_EDGE('',*,*,#579,.T.);
#874=ORIENTED_EDGE('',*,*,#582,.T.);
#875=ORIENTED_EDGE('',*,*,#590,.T.);
#876=ORIENTED_EDGE('',*,*,#593,.T.);
#877=ORIENTED_EDGE('',*,*,#583,.T.);
#878=ORIENTED_EDGE('',*,*,#587,.T.);
#879=ORIENTED_EDGE('',*,*,#638,.T.);
#880=ORIENTED_EDGE('',*,*,#640,.T.);
#881=ORIENTED_EDGE('',*,*,#661,.T.);
#882=ORIENTED_EDGE('',*,*,#662,.T.);
#883=ORIENTED_EDGE('',*,*,#662,.F.);
#884=ORIENTED_EDGE('',*,*,#656,.F.);
#885=ORIENTED_EDGE('',*,*,#663,.T.);
#886=ORIENTED_EDGE('',*,*,#661,.F.);
#887=ORIENTED_EDGE('',*,*,#663,.F.);
#888=ORIENTED_EDGE('',*,*,#664,.T.);
#889=ORIENTED_EDGE('',*,*,#665,.T.);
#890=ORIENTED_EDGE('',*,*,#665,.F.);
#891=ORIENTED_EDGE('',*,*,#657,.F.);
#892=ORIENTED_EDGE('',*,*,#666,.T.);
#893=ORIENTED_EDGE('',*,*,#664,.F.);
#894=ORIENTED_EDGE('',*,*,#666,.F.);
#895=ORIENTED_EDGE('',*,*,#667,.T.);
#896=ORIENTED_EDGE('',*,*,#668,.T.);
#897=ORIENTED_EDGE('',*,*,#668,.F.);
#898=ORIENTED_EDGE('',*,*,#658,.F.);
#899=ORIENTED_EDGE('',*,*,#669,.T.);
#900=ORIENTED_EDGE('',*,*,#667,.F.);
#901=ORIENTED_EDGE('',*,*,#669,.F.);
#902=ORIENTED_EDGE('',*,*,#648,.T.);
#903=ORIENTED_EDGE('',*,*,#605,.T.);
#904=ORIENTED_EDGE('',*,*,#612,.T.);
#905=ORIENTED_EDGE('',*,*,#645,.T.);
#906=ORIENTED_EDGE('',*,*,#631,.T.);
#907=ORIENTED_EDGE('',*,*,#633,.T.);
#908=ORIENTED_EDGE('',*,*,#635,.T.);
#909=ORIENTED_EDGE('',*,*,#637,.T.);
#910=ORIENTED_EDGE('',*,*,#623,.F.);
#911=ORIENTED_EDGE('',*,*,#613,.F.);
#912=ORIENTED_EDGE('',*,*,#649,.F.);
#913=ORIENTED_EDGE('',*,*,#565,.F.);
#914=ORIENTED_EDGE('',*,*,#561,.T.);
#915=ORIENTED_EDGE('',*,*,#564,.F.);
#916=ORIENTED_EDGE('',*,*,#542,.T.);
#917=ORIENTED_EDGE('',*,*,#545,.T.);
#918=ORIENTED_EDGE('',*,*,#553,.T.);
#919=ORIENTED_EDGE('',*,*,#556,.T.);
#920=ORIENTED_EDGE('',*,*,#546,.T.);
#921=ORIENTED_EDGE('',*,*,#550,.T.);
#922=ORIENTED_EDGE('',*,*,#625,.T.);
#923=ORIENTED_EDGE('',*,*,#660,.T.);
#924=ORIENTED_EDGE('',*,*,#654,.F.);
#925=ORIENTED_EDGE('',*,*,#670,.F.);
#926=ORIENTED_EDGE('',*,*,#626,.T.);
#927=ORIENTED_EDGE('',*,*,#670,.T.);
#928=ORIENTED_EDGE('',*,*,#653,.F.);
#929=ORIENTED_EDGE('',*,*,#671,.F.);
#930=ORIENTED_EDGE('',*,*,#627,.T.);
#931=ORIENTED_EDGE('',*,*,#671,.T.);
#932=ORIENTED_EDGE('',*,*,#652,.F.);
#933=ORIENTED_EDGE('',*,*,#672,.F.);
#934=ORIENTED_EDGE('',*,*,#628,.T.);
#935=ORIENTED_EDGE('',*,*,#672,.T.);
#936=ORIENTED_EDGE('',*,*,#651,.F.);
#937=ORIENTED_EDGE('',*,*,#673,.F.);
#938=ORIENTED_EDGE('',*,*,#629,.T.);
#939=ORIENTED_EDGE('',*,*,#673,.T.);
#940=ORIENTED_EDGE('',*,*,#650,.F.);
#941=ORIENTED_EDGE('',*,*,#615,.F.);
#942=CYLINDRICAL_SURFACE('',#1027,1.6);
#943=CYLINDRICAL_SURFACE('',#1030,1.6);
#944=CYLINDRICAL_SURFACE('',#1044,1.6);
#945=CYLINDRICAL_SURFACE('',#1047,1.6);
#946=CYLINDRICAL_SURFACE('',#1065,1.1);
#947=CYLINDRICAL_SURFACE('',#1067,1.1);
#948=CYLINDRICAL_SURFACE('',#1069,1.1);
#949=CYLINDRICAL_SURFACE('',#1071,1.1);
#950=CYLINDRICAL_SURFACE('',#1073,1.1);
#951=CYLINDRICAL_SURFACE('',#1075,1.1);
#952=CYLINDRICAL_SURFACE('',#1088,1.2295);
#953=CYLINDRICAL_SURFACE('',#1091,1.2295);
#954=CYLINDRICAL_SURFACE('',#1094,1.2295);
#955=ADVANCED_FACE('',(#83),#942,.F.);
#956=ADVANCED_FACE('',(#84),#943,.F.);
#957=ADVANCED_FACE('',(#85),#50,.F.);
#958=ADVANCED_FACE('',(#86),#51,.F.);
#959=ADVANCED_FACE('',(#87),#52,.F.);
#960=ADVANCED_FACE('',(#88),#53,.F.);
#961=ADVANCED_FACE('',(#89),#54,.T.);
#962=ADVANCED_FACE('',(#90),#55,.T.);
#963=ADVANCED_FACE('',(#91,#23,#24,#25,#26),#56,.T.);
#964=ADVANCED_FACE('',(#92),#944,.F.);
#965=ADVANCED_FACE('',(#93),#945,.F.);
#966=ADVANCED_FACE('',(#94),#57,.F.);
#967=ADVANCED_FACE('',(#95),#58,.F.);
#968=ADVANCED_FACE('',(#96),#59,.F.);
#969=ADVANCED_FACE('',(#97),#60,.F.);
#970=ADVANCED_FACE('',(#98),#61,.T.);
#971=ADVANCED_FACE('',(#99,#27,#28),#62,.T.);
#972=ADVANCED_FACE('',(#100),#63,.T.);
#973=ADVANCED_FACE('',(#101),#64,.T.);
#974=ADVANCED_FACE('',(#102,#29,#30,#31),#65,.T.);
#975=ADVANCED_FACE('',(#103),#66,.T.);
#976=ADVANCED_FACE('',(#104),#67,.F.);
#977=ADVANCED_FACE('',(#105,#32,#33,#34),#68,.F.);
#978=ADVANCED_FACE('',(#106),#69,.F.);
#979=ADVANCED_FACE('',(#107),#946,.F.);
#980=ADVANCED_FACE('',(#108),#947,.F.);
#981=ADVANCED_FACE('',(#109),#948,.F.);
#982=ADVANCED_FACE('',(#110),#949,.F.);
#983=ADVANCED_FACE('',(#111),#950,.F.);
#984=ADVANCED_FACE('',(#112),#951,.F.);
#985=ADVANCED_FACE('',(#113),#70,.F.);
#986=ADVANCED_FACE('',(#114),#71,.F.);
#987=ADVANCED_FACE('',(#115),#72,.F.);
#988=ADVANCED_FACE('',(#116,#35,#36,#37),#73,.T.);
#989=ADVANCED_FACE('',(#117),#74,.T.);
#990=ADVANCED_FACE('',(#118,#38,#39,#40,#41,#42),#75,.T.);
#991=ADVANCED_FACE('',(#119),#20,.F.);
#992=ADVANCED_FACE('',(#120),#952,.F.);
#993=ADVANCED_FACE('',(#121),#21,.F.);
#994=ADVANCED_FACE('',(#122),#953,.F.);
#995=ADVANCED_FACE('',(#123),#22,.F.);
#996=ADVANCED_FACE('',(#124),#954,.F.);
#997=ADVANCED_FACE('',(#125,#43,#44,#45,#46),#76,.T.);
#998=ADVANCED_FACE('',(#126,#47,#48,#49),#77,.T.);
#999=ADVANCED_FACE('',(#127),#78,.T.);
#1000=ADVANCED_FACE('',(#128),#79,.T.);
#1001=ADVANCED_FACE('',(#129),#80,.T.);
#1002=ADVANCED_FACE('',(#130),#81,.T.);
#1003=ADVANCED_FACE('',(#131),#82,.T.);
#1004=CLOSED_SHELL('',(#955,#956,#957,#958,#959,#960,#961,#962,#963,#964,
#965,#966,#967,#968,#969,#970,#971,#972,#973,#974,#975,#976,#977,#978,#979,
#980,#981,#982,#983,#984,#985,#986,#987,#988,#989,#990,#991,#992,#993,#994,
#995,#996,#997,#998,#999,#1000,#1001,#1002,#1003));
#1005=DERIVED_UNIT_ELEMENT(#1008,1.);
#1006=DERIVED_UNIT_ELEMENT(#1644,-3.);
#1007=DIMENSIONAL_EXPONENTS(0.,1.,0.,0.,0.,0.,0.);
#1008=(
CONVERSION_BASED_UNIT('gram',#1010)
MASS_UNIT()
NAMED_UNIT(#1007)
);
#1009=(
MASS_UNIT()
NAMED_UNIT(*)
SI_UNIT(.KILO.,.GRAM.)
);
#1010=MASS_MEASURE_WITH_UNIT(MASS_MEASURE(0.001),#1009);
#1011=DERIVED_UNIT((#1005,#1006));
#1012=MEASURE_REPRESENTATION_ITEM('density measure',
POSITIVE_RATIO_MEASURE(1.),#1011);
#1013=PROPERTY_DEFINITION_REPRESENTATION(#1018,#1015);
#1014=PROPERTY_DEFINITION_REPRESENTATION(#1019,#1016);
#1015=REPRESENTATION('material name',(#1017),#1641);
#1016=REPRESENTATION('density',(#1012),#1641);
#1017=DESCRIPTIVE_REPRESENTATION_ITEM('\X2\4E00822C\X0\','\X2\4E00822C\X0\');
#1018=PROPERTY_DEFINITION('material property','material name',#1651);
#1019=PROPERTY_DEFINITION('material property','density of part',#1651);
#1020=DATE_TIME_ROLE('creation_date');
#1021=APPLIED_DATE_AND_TIME_ASSIGNMENT(#1022,#1020,(#1651));
#1022=DATE_AND_TIME(#1023,#1024);
#1023=CALENDAR_DATE(2026,20,5);
#1024=LOCAL_TIME(0,0,0.,#1025);
#1025=COORDINATED_UNIVERSAL_TIME_OFFSET(0,0,.BEHIND.);
#1026=AXIS2_PLACEMENT_3D('',#1362,#1102,#1103);
#1027=AXIS2_PLACEMENT_3D('',#1363,#1104,#1105);
#1028=AXIS2_PLACEMENT_3D('',#1365,#1106,#1107);
#1029=AXIS2_PLACEMENT_3D('',#1368,#1109,#1110);
#1030=AXIS2_PLACEMENT_3D('',#1369,#1111,#1112);
#1031=AXIS2_PLACEMENT_3D('',#1371,#1113,#1114);
#1032=AXIS2_PLACEMENT_3D('',#1374,#1116,#1117);
#1033=AXIS2_PLACEMENT_3D('',#1375,#1118,#1119);
#1034=AXIS2_PLACEMENT_3D('',#1384,#1124,#1125);
#1035=AXIS2_PLACEMENT_3D('',#1390,#1129,#1130);
#1036=AXIS2_PLACEMENT_3D('',#1396,#1134,#1135);
#1037=AXIS2_PLACEMENT_3D('',#1399,#1138,#1139);
#1038=AXIS2_PLACEMENT_3D('',#1408,#1144,#1145);
#1039=AXIS2_PLACEMENT_3D('',#1414,#1149,#1150);
#1040=AXIS2_PLACEMENT_3D('',#1431,#1159,#1160);
#1041=AXIS2_PLACEMENT_3D('',#1433,#1161,#1162);
#1042=AXIS2_PLACEMENT_3D('',#1435,#1163,#1164);
#1043=AXIS2_PLACEMENT_3D('',#1437,#1165,#1166);
#1044=AXIS2_PLACEMENT_3D('',#1438,#1167,#1168);
#1045=AXIS2_PLACEMENT_3D('',#1440,#1169,#1170);
#1046=AXIS2_PLACEMENT_3D('',#1443,#1172,#1173);
#1047=AXIS2_PLACEMENT_3D('',#1444,#1174,#1175);
#1048=AXIS2_PLACEMENT_3D('',#1446,#1176,#1177);
#1049=AXIS2_PLACEMENT_3D('',#1449,#1179,#1180);
#1050=AXIS2_PLACEMENT_3D('',#1450,#1181,#1182);
#1051=AXIS2_PLACEMENT_3D('',#1459,#1187,#1188);
#1052=AXIS2_PLACEMENT_3D('',#1465,#1192,#1193);
#1053=AXIS2_PLACEMENT_3D('',#1471,#1197,#1198);
#1054=AXIS2_PLACEMENT_3D('',#1474,#1201,#1202);
#1055=AXIS2_PLACEMENT_3D('',#1483,#1207,#1208);
#1056=AXIS2_PLACEMENT_3D('',#1493,#1213,#1214);
#1057=AXIS2_PLACEMENT_3D('',#1495,#1215,#1216);
#1058=AXIS2_PLACEMENT_3D('',#1496,#1217,#1218);
#1059=AXIS2_PLACEMENT_3D('',#1502,#1222,#1223);
#1060=AXIS2_PLACEMENT_3D('',#1511,#1229,#1230);
#1061=AXIS2_PLACEMENT_3D('',#1520,#1235,#1236);
#1062=AXIS2_PLACEMENT_3D('',#1527,#1241,#1242);
#1063=AXIS2_PLACEMENT_3D('',#1529,#1244,#1245);
#1064=AXIS2_PLACEMENT_3D('',#1531,#1247,#1248);
#1065=AXIS2_PLACEMENT_3D('',#1544,#1256,#1257);
#1066=AXIS2_PLACEMENT_3D('',#1547,#1259,#1260);
#1067=AXIS2_PLACEMENT_3D('',#1548,#1261,#1262);
#1068=AXIS2_PLACEMENT_3D('',#1551,#1264,#1265);
#1069=AXIS2_PLACEMENT_3D('',#1552,#1266,#1267);
#1070=AXIS2_PLACEMENT_3D('',#1555,#1269,#1270);
#1071=AXIS2_PLACEMENT_3D('',#1556,#1271,#1272);
#1072=AXIS2_PLACEMENT_3D('',#1559,#1274,#1275);
#1073=AXIS2_PLACEMENT_3D('',#1560,#1276,#1277);
#1074=AXIS2_PLACEMENT_3D('',#1562,#1278,#1279);
#1075=AXIS2_PLACEMENT_3D('',#1564,#1281,#1282);
#1076=AXIS2_PLACEMENT_3D('',#1566,#1283,#1284);
#1077=AXIS2_PLACEMENT_3D('',#1568,#1286,#1287);
#1078=AXIS2_PLACEMENT_3D('',#1572,#1290,#1291);
#1079=AXIS2_PLACEMENT_3D('',#1576,#1294,#1295);
#1080=AXIS2_PLACEMENT_3D('',#1581,#1299,#1300);
#1081=AXIS2_PLACEMENT_3D('',#1595,#1308,#1309);
#1082=AXIS2_PLACEMENT_3D('',#1597,#1310,#1311);
#1083=AXIS2_PLACEMENT_3D('',#1599,#1312,#1313);
#1084=AXIS2_PLACEMENT_3D('',#1600,#1314,#1315);
#1085=AXIS2_PLACEMENT_3D('',#1602,#1317,#1318);
#1086=AXIS2_PLACEMENT_3D('',#1604,#1320,#1321);
#1087=AXIS2_PLACEMENT_3D('',#1606,#1322,#1323);
#1088=AXIS2_PLACEMENT_3D('',#1609,#1325,#1326);
#1089=AXIS2_PLACEMENT_3D('',#1611,#1328,#1329);
#1090=AXIS2_PLACEMENT_3D('',#1613,#1330,#1331);
#1091=AXIS2_PLACEMENT_3D('',#1616,#1333,#1334);
#1092=AXIS2_PLACEMENT_3D('',#1618,#1336,#1337);
#1093=AXIS2_PLACEMENT_3D('',#1620,#1338,#1339);
#1094=AXIS2_PLACEMENT_3D('',#1623,#1341,#1342);
#1095=AXIS2_PLACEMENT_3D('',#1625,#1344,#1345);
#1096=AXIS2_PLACEMENT_3D('',#1626,#1346,#1347);
#1097=AXIS2_PLACEMENT_3D('',#1627,#1348,#1349);
#1098=AXIS2_PLACEMENT_3D('',#1629,#1351,#1352);
#1099=AXIS2_PLACEMENT_3D('',#1631,#1354,#1355);
#1100=AXIS2_PLACEMENT_3D('',#1633,#1357,#1358);
#1101=AXIS2_PLACEMENT_3D('',#1635,#1360,#1361);
#1102=DIRECTION('axis',(0.,0.,1.));
#1103=DIRECTION('refdir',(1.,0.,0.));
#1104=DIRECTION('center_axis',(0.,0.,1.));
#1105=DIRECTION('ref_axis',(1.,0.,0.));
#1106=DIRECTION('center_axis',(0.,0.,-1.));
#1107=DIRECTION('ref_axis',(1.,0.,0.));
#1108=DIRECTION('',(0.,0.,-1.));
#1109=DIRECTION('center_axis',(0.,-1.11022302462516E-15,1.));
#1110=DIRECTION('ref_axis',(1.,0.,0.));
#1111=DIRECTION('center_axis',(0.,0.,1.));
#1112=DIRECTION('ref_axis',(1.,0.,0.));
#1113=DIRECTION('center_axis',(0.,0.,-1.));
#1114=DIRECTION('ref_axis',(1.,0.,0.));
#1115=DIRECTION('',(0.,0.,-1.));
#1116=DIRECTION('center_axis',(0.,-1.11022302462516E-15,1.));
#1117=DIRECTION('ref_axis',(1.,0.,0.));
#1118=DIRECTION('center_axis',(0.,-1.,0.));
#1119=DIRECTION('ref_axis',(-1.,0.,0.));
#1120=DIRECTION('',(1.,0.,0.));
#1121=DIRECTION('',(0.,0.,-1.));
#1122=DIRECTION('',(-1.,0.,0.));
#1123=DIRECTION('',(0.,0.,-1.));
#1124=DIRECTION('center_axis',(1.,2.96059473233375E-16,0.));
#1125=DIRECTION('ref_axis',(2.96059473233375E-16,-1.,0.));
#1126=DIRECTION('',(-2.96059473233375E-16,1.,1.11022302462516E-15));
#1127=DIRECTION('',(2.96059473233375E-16,-1.,0.));
#1128=DIRECTION('',(0.,0.,-1.));
#1129=DIRECTION('center_axis',(-5.2245789394125E-16,1.,0.));
#1130=DIRECTION('ref_axis',(1.,5.2245789394125E-16,0.));
#1131=DIRECTION('',(-1.,-5.2245789394125E-16,-5.80044783250744E-31));
#1132=DIRECTION('',(1.,5.2245789394125E-16,0.));
#1133=DIRECTION('',(0.,0.,-1.));
#1134=DIRECTION('center_axis',(-1.,-3.70074341541719E-16,0.));
#1135=DIRECTION('ref_axis',(-3.70074341541719E-16,1.,0.));
#1136=DIRECTION('',(3.70074341541719E-16,-1.,-1.11022302462516E-15));
#1137=DIRECTION('',(-3.70074341541719E-16,1.,0.));
#1138=DIRECTION('center_axis',(1.,0.,0.));
#1139=DIRECTION('ref_axis',(0.,0.,1.));
#1140=DIRECTION('',(0.,0.,-1.));
#1141=DIRECTION('',(0.,-1.,0.));
#1142=DIRECTION('',(0.,0.,1.));
#1143=DIRECTION('',(0.,-1.,0.));
#1144=DIRECTION('center_axis',(0.,-1.,0.));
#1145=DIRECTION('ref_axis',(0.,0.,-1.));
#1146=DIRECTION('',(-1.,0.,-5.38943215837455E-17));
#1147=DIRECTION('',(0.,0.,-1.));
#1148=DIRECTION('',(1.,0.,0.));
#1149=DIRECTION('center_axis',(0.,-1.,0.));
#1150=DIRECTION('ref_axis',(0.,0.,-1.));
#1151=DIRECTION('',(1.,0.,0.));
#1152=DIRECTION('',(0.,0.,-1.));
#1153=DIRECTION('',(-1.,0.,0.));
#1154=DIRECTION('',(0.,0.,1.));
#1155=DIRECTION('',(1.,0.,0.));
#1156=DIRECTION('',(0.,0.,-1.));
#1157=DIRECTION('',(1.,0.,0.));
#1158=DIRECTION('',(0.,0.,-1.));
#1159=DIRECTION('center_axis',(0.,1.,0.));
#1160=DIRECTION('ref_axis',(1.,0.,0.));
#1161=DIRECTION('center_axis',(0.,1.,0.));
#1162=DIRECTION('ref_axis',(1.,0.,0.));
#1163=DIRECTION('center_axis',(0.,1.,0.));
#1164=DIRECTION('ref_axis',(1.,0.,0.));
#1165=DIRECTION('center_axis',(0.,1.,0.));
#1166=DIRECTION('ref_axis',(1.,0.,0.));
#1167=DIRECTION('center_axis',(0.,-1.,-2.37904933848248E-16));
#1168=DIRECTION('ref_axis',(1.,0.,0.));
#1169=DIRECTION('center_axis',(0.,1.,2.37904933848248E-16));
#1170=DIRECTION('ref_axis',(1.,0.,0.));
#1171=DIRECTION('',(0.,1.,2.37904933848248E-16));
#1172=DIRECTION('center_axis',(0.,-1.,-4.1236855200363E-16));
#1173=DIRECTION('ref_axis',(1.,0.,0.));
#1174=DIRECTION('center_axis',(0.,-1.,-2.37904933848248E-16));
#1175=DIRECTION('ref_axis',(1.,0.,0.));
#1176=DIRECTION('center_axis',(0.,1.,2.37904933848248E-16));
#1177=DIRECTION('ref_axis',(1.,0.,0.));
#1178=DIRECTION('',(0.,1.,2.37904933848248E-16));
#1179=DIRECTION('center_axis',(0.,-1.,-4.1236855200363E-16));
#1180=DIRECTION('ref_axis',(1.,0.,0.));
#1181=DIRECTION('center_axis',(-1.1686558153949E-16,0.,1.));
#1182=DIRECTION('ref_axis',(1.,-2.78028984452894E-32,1.1686558153949E-16));
#1183=DIRECTION('',(-1.,4.81916906385017E-32,-1.1686558153949E-16));
#1184=DIRECTION('',(0.,1.,0.));
#1185=DIRECTION('',(1.,-2.78028984452894E-32,1.1686558153949E-16));
#1186=DIRECTION('',(0.,1.,0.));
#1187=DIRECTION('center_axis',(-1.,0.,-3.70074341541719E-16));
#1188=DIRECTION('ref_axis',(-3.70074341541719E-16,-2.37904933848248E-16,
1.));
#1189=DIRECTION('',(3.70074341541719E-16,4.1236855200363E-16,-1.));
#1190=DIRECTION('',(-3.70074341541719E-16,-2.37904933848248E-16,1.));
#1191=DIRECTION('',(0.,1.,0.));
#1192=DIRECTION('center_axis',(2.3373116307898E-16,0.,-1.));
#1193=DIRECTION('ref_axis',(-1.,5.56057968905788E-32,-2.3373116307898E-16));
#1194=DIRECTION('',(1.,-9.63833812770033E-32,2.3373116307898E-16));
#1195=DIRECTION('',(-1.,5.56057968905788E-32,-2.3373116307898E-16));
#1196=DIRECTION('',(0.,1.,0.));
#1197=DIRECTION('center_axis',(1.,0.,3.70074341541719E-16));
#1198=DIRECTION('ref_axis',(3.70074341541719E-16,2.37904933848248E-16,-1.));
#1199=DIRECTION('',(-3.70074341541719E-16,-4.1236855200363E-16,1.));
#1200=DIRECTION('',(3.70074341541719E-16,2.37904933848248E-16,-1.));
#1201=DIRECTION('center_axis',(0.,-1.,-2.37904933848248E-16));
#1202=DIRECTION('ref_axis',(0.,2.37904933848248E-16,-1.));
#1203=DIRECTION('',(1.,0.,0.));
#1204=DIRECTION('',(-2.9128981543675E-16,-2.37904933848248E-16,1.));
#1205=DIRECTION('',(1.,0.,0.));
#1206=DIRECTION('',(0.,0.,1.));
#1207=DIRECTION('center_axis',(0.,-1.,-2.37904933848248E-16));
#1208=DIRECTION('ref_axis',(0.,2.37904933848248E-16,-1.));
#1209=DIRECTION('',(1.,0.,0.));
#1210=DIRECTION('',(0.,-2.37904933848248E-16,1.));
#1211=DIRECTION('',(1.,0.,0.));
#1212=DIRECTION('',(-5.16145111563364E-16,2.37904933848248E-16,-1.));
#1213=DIRECTION('center_axis',(0.,1.,2.37904933848248E-16));
#1214=DIRECTION('ref_axis',(1.,0.,0.));
#1215=DIRECTION('center_axis',(0.,1.,2.37904933848248E-16));
#1216=DIRECTION('ref_axis',(1.,0.,0.));
#1217=DIRECTION('center_axis',(1.,9.35569284743456E-32,-5.16145111563364E-16));
#1218=DIRECTION('ref_axis',(5.16145111563364E-16,-2.37904933848248E-16,
1.));
#1219=DIRECTION('',(5.16145111563364E-16,4.44089209850063E-16,1.));
#1220=DIRECTION('',(0.,-1.,-1.81260901979617E-16));
#1221=DIRECTION('',(9.35569284743455E-32,1.,3.62521803959235E-16));
#1222=DIRECTION('center_axis',(0.,3.62521803959235E-16,-1.));
#1223=DIRECTION('ref_axis',(0.,1.,3.62521803959235E-16));
#1224=DIRECTION('',(0.,-1.,-4.44089209850063E-16));
#1225=DIRECTION('',(-1.,0.,0.));
#1226=DIRECTION('',(0.,1.,4.44089209850063E-16));
#1227=DIRECTION('',(0.,-1.,-4.44089209850063E-16));
#1228=DIRECTION('',(1.,0.,0.));
#1229=DIRECTION('center_axis',(0.,-1.,-2.37904933848248E-16));
#1230=DIRECTION('ref_axis',(0.,2.37904933848248E-16,-1.));
#1231=DIRECTION('',(-1.,0.,0.));
#1232=DIRECTION('',(0.,0.,1.));
#1233=DIRECTION('',(1.,0.,0.));
#1234=DIRECTION('',(0.,2.37904933848248E-16,-1.));
#1235=DIRECTION('center_axis',(0.,-3.11641550771974E-16,1.));
#1236=DIRECTION('ref_axis',(0.,-1.,-3.11641550771974E-16));
#1237=DIRECTION('',(0.,-1.,-3.11641550771974E-16));
#1238=DIRECTION('',(0.,-1.,-3.11641550771974E-16));
#1239=DIRECTION('',(1.,0.,0.));
#1240=DIRECTION('',(0.,-1.,-3.11641550771974E-16));
#1241=DIRECTION('center_axis',(1.,0.,0.));
#1242=DIRECTION('ref_axis',(0.,0.,-1.));
#1243=DIRECTION('',(0.,1.,0.));
#1244=DIRECTION('center_axis',(0.,0.,-1.));
#1245=DIRECTION('ref_axis',(-1.,0.,0.));
#1246=DIRECTION('',(0.,1.,0.));
#1247=DIRECTION('center_axis',(1.,0.,0.));
#1248=DIRECTION('ref_axis',(0.,0.,-1.));
#1249=DIRECTION('',(0.,-1.,0.));
#1250=DIRECTION('',(0.,-4.1236855200363E-16,1.));
#1251=DIRECTION('',(0.,0.707106781186548,0.707106781186547));
#1252=DIRECTION('',(0.,1.,4.97287396446685E-16));
#1253=DIRECTION('',(0.,2.22044604925031E-15,-1.));
#1254=DIRECTION('',(0.,-1.,-3.57740971295165E-16));
#1255=DIRECTION('',(0.,-0.707106781186548,-0.707106781186548));
#1256=DIRECTION('center_axis',(0.,-1.,0.));
#1257=DIRECTION('ref_axis',(1.,0.,0.));
#1258=DIRECTION('',(0.,1.,0.));
#1259=DIRECTION('center_axis',(0.,-1.,4.44089209850063E-16));
#1260=DIRECTION('ref_axis',(1.,0.,0.));
#1261=DIRECTION('center_axis',(0.,-1.,0.));
#1262=DIRECTION('ref_axis',(1.,0.,0.));
#1263=DIRECTION('',(0.,1.,0.));
#1264=DIRECTION('center_axis',(0.,-1.,4.44089209850063E-16));
#1265=DIRECTION('ref_axis',(1.,0.,0.));
#1266=DIRECTION('center_axis',(0.,-1.,0.));
#1267=DIRECTION('ref_axis',(1.,0.,0.));
#1268=DIRECTION('',(0.,1.,0.));
#1269=DIRECTION('center_axis',(0.,-1.,4.44089209850063E-16));
#1270=DIRECTION('ref_axis',(1.,0.,0.));
#1271=DIRECTION('center_axis',(0.,-1.,0.));
#1272=DIRECTION('ref_axis',(1.,0.,0.));
#1273=DIRECTION('',(0.,1.,0.));
#1274=DIRECTION('center_axis',(0.,-1.,4.44089209850063E-16));
#1275=DIRECTION('ref_axis',(1.,0.,0.));
#1276=DIRECTION('center_axis',(0.,1.,4.1236855200363E-16));
#1277=DIRECTION('ref_axis',(1.,0.,0.));
#1278=DIRECTION('center_axis',(0.,-1.,-4.1236855200363E-16));
#1279=DIRECTION('ref_axis',(1.,0.,0.));
#1280=DIRECTION('',(0.,-1.,-4.12368552003629E-16));
#1281=DIRECTION('center_axis',(0.,1.,4.1236855200363E-16));
#1282=DIRECTION('ref_axis',(1.,0.,0.));
#1283=DIRECTION('center_axis',(0.,-1.,-4.1236855200363E-16));
#1284=DIRECTION('ref_axis',(1.,0.,0.));
#1285=DIRECTION('',(0.,-1.,-4.12368552003629E-16));
#1286=DIRECTION('center_axis',(-1.,0.,0.));
#1287=DIRECTION('ref_axis',(0.,4.1236855200363E-16,-1.));
#1288=DIRECTION('',(0.,-1.,-4.44089209850063E-16));
#1289=DIRECTION('',(0.,4.1236855200363E-16,-1.));
#1290=DIRECTION('center_axis',(-1.,0.,0.));
#1291=DIRECTION('ref_axis',(0.,4.1236855200363E-16,-1.));
#1292=DIRECTION('',(0.,-1.,-4.44089209850063E-16));
#1293=DIRECTION('',(0.,-4.44089209850063E-16,-1.));
#1294=DIRECTION('center_axis',(0.,4.44089209850063E-16,-1.));
#1295=DIRECTION('ref_axis',(1.,0.,0.));
#1296=DIRECTION('',(0.,-1.,-4.44089209850063E-16));
#1297=DIRECTION('',(1.,0.,0.));
#1298=DIRECTION('',(-1.,0.,0.));
#1299=DIRECTION('center_axis',(1.,0.,0.));
#1300=DIRECTION('ref_axis',(0.,0.,-1.));
#1301=DIRECTION('',(0.,1.,1.11022302462516E-15));
#1302=DIRECTION('',(0.,-0.707106781186548,-0.707106781186548));
#1303=DIRECTION('',(0.,-1.,-3.57740971295165E-16));
#1304=DIRECTION('',(0.,2.22044604925031E-15,-1.));
#1305=DIRECTION('',(0.,1.,4.97287396446685E-16));
#1306=DIRECTION('',(0.,0.707106781186548,0.707106781186547));
#1307=DIRECTION('',(0.,-4.1236855200363E-16,1.));
#1308=DIRECTION('center_axis',(-1.,0.,0.));
#1309=DIRECTION('ref_axis',(0.,0.,-1.));
#1310=DIRECTION('center_axis',(-1.,0.,0.));
#1311=DIRECTION('ref_axis',(0.,0.,-1.));
#1312=DIRECTION('center_axis',(-1.,0.,0.));
#1313=DIRECTION('ref_axis',(0.,0.,-1.));
#1314=DIRECTION('center_axis',(1.,0.,0.));
#1315=DIRECTION('ref_axis',(0.,0.,-1.));
#1316=DIRECTION('',(0.,-4.1236855200363E-16,1.));
#1317=DIRECTION('center_axis',(0.,1.,4.1236855200363E-16));
#1318=DIRECTION('ref_axis',(0.,-4.1236855200363E-16,1.));
#1319=DIRECTION('',(1.,0.,0.));
#1320=DIRECTION('center_axis',(1.,0.,0.));
#1321=DIRECTION('ref_axis',(0.,0.,-1.));
#1322=DIRECTION('center_axis',(1.,0.,0.));
#1323=DIRECTION('ref_axis',(0.,0.,-1.));
#1324=DIRECTION('',(-0.515038074910054,1.04972719113862E-16,-0.857167300702112));
#1325=DIRECTION('center_axis',(1.,0.,0.));
#1326=DIRECTION('ref_axis',(0.,0.,-1.));
#1327=DIRECTION('',(-1.,0.,0.));
#1328=DIRECTION('center_axis',(1.,0.,0.));
#1329=DIRECTION('ref_axis',(0.,0.,-1.));
#1330=DIRECTION('center_axis',(1.,0.,0.));
#1331=DIRECTION('ref_axis',(0.,0.,-1.));
#1332=DIRECTION('',(-0.515038074910054,1.04972719113862E-16,-0.857167300702112));
#1333=DIRECTION('center_axis',(1.,0.,0.));
#1334=DIRECTION('ref_axis',(0.,0.,-1.));
#1335=DIRECTION('',(-1.,0.,0.));
#1336=DIRECTION('center_axis',(1.,0.,0.));
#1337=DIRECTION('ref_axis',(0.,0.,-1.));
#1338=DIRECTION('center_axis',(1.,0.,0.));
#1339=DIRECTION('ref_axis',(0.,0.,-1.));
#1340=DIRECTION('',(-0.515038074910054,1.04972719113862E-16,-0.857167300702112));
#1341=DIRECTION('center_axis',(1.,0.,0.));
#1342=DIRECTION('ref_axis',(0.,0.,-1.));
#1343=DIRECTION('',(-1.,0.,0.));
#1344=DIRECTION('center_axis',(0.,1.,-4.44089209850063E-16));
#1345=DIRECTION('ref_axis',(0.,4.44089209850063E-16,1.));
#1346=DIRECTION('center_axis',(0.,1.11022302462516E-15,-1.));
#1347=DIRECTION('ref_axis',(0.,1.,1.11022302462516E-15));
#1348=DIRECTION('center_axis',(0.,0.707106781186547,-0.707106781186548));
#1349=DIRECTION('ref_axis',(0.,0.707106781186548,0.707106781186547));
#1350=DIRECTION('',(1.,0.,0.));
#1351=DIRECTION('center_axis',(0.,4.97287396446685E-16,-1.));
#1352=DIRECTION('ref_axis',(0.,1.,4.97287396446685E-16));
#1353=DIRECTION('',(1.,0.,0.));
#1354=DIRECTION('center_axis',(0.,-1.,-2.22044604925031E-15));
#1355=DIRECTION('ref_axis',(0.,2.22044604925031E-15,-1.));
#1356=DIRECTION('',(1.,0.,0.));
#1357=DIRECTION('center_axis',(0.,-3.57740971295165E-16,1.));
#1358=DIRECTION('ref_axis',(0.,-1.,-3.57740971295165E-16));
#1359=DIRECTION('',(1.,0.,0.));
#1360=DIRECTION('center_axis',(0.,-0.707106781186548,0.707106781186548));
#1361=DIRECTION('ref_axis',(0.,-0.707106781186548,-0.707106781186548));
#1362=CARTESIAN_POINT('',(0.,0.,0.));
#1363=CARTESIAN_POINT('Origin',(19.25,-20.5,49.6));
#1364=CARTESIAN_POINT('',(17.65,-20.5,54.));
#1365=CARTESIAN_POINT('Origin',(19.25,-20.5,54.));
#1366=CARTESIAN_POINT('',(17.65,-20.5,46.));
#1367=CARTESIAN_POINT('',(17.65,-20.5,49.6));
#1368=CARTESIAN_POINT('Origin',(19.25,-20.5,46.));
#1369=CARTESIAN_POINT('Origin',(19.25,-57.5,49.6));
#1370=CARTESIAN_POINT('',(17.65,-57.5,54.));
#1371=CARTESIAN_POINT('Origin',(19.25,-57.5,54.));
#1372=CARTESIAN_POINT('',(17.65,-57.5,46.));
#1373=CARTESIAN_POINT('',(17.65,-57.5,49.6));
#1374=CARTESIAN_POINT('Origin',(19.25,-57.5,46.));
#1375=CARTESIAN_POINT('Origin',(23.5,-54.,54.));
#1376=CARTESIAN_POINT('',(15.,-54.,46.));
#1377=CARTESIAN_POINT('',(23.5,-54.,46.));
#1378=CARTESIAN_POINT('',(11.75,-54.,46.));
#1379=CARTESIAN_POINT('',(15.,-54.,54.));
#1380=CARTESIAN_POINT('',(15.,-54.,54.));
#1381=CARTESIAN_POINT('',(23.5,-54.,54.));
#1382=CARTESIAN_POINT('',(32.35,-54.,54.));
#1383=CARTESIAN_POINT('',(23.5,-54.,54.));
#1384=CARTESIAN_POINT('Origin',(23.5,-24.,54.));
#1385=CARTESIAN_POINT('',(23.5,-24.,46.));
#1386=CARTESIAN_POINT('',(23.5,-34.,46.));
#1387=CARTESIAN_POINT('',(23.5,-24.,54.));
#1388=CARTESIAN_POINT('',(23.5,-34.,54.));
#1389=CARTESIAN_POINT('',(23.5,-24.,54.));
#1390=CARTESIAN_POINT('Origin',(15.,-24.,54.));
#1391=CARTESIAN_POINT('',(15.,-24.,46.));
#1392=CARTESIAN_POINT('',(7.49999999999999,-24.,46.));
#1393=CARTESIAN_POINT('',(15.,-24.,54.));
#1394=CARTESIAN_POINT('',(28.1,-24.,54.));
#1395=CARTESIAN_POINT('',(15.,-24.,54.));
#1396=CARTESIAN_POINT('Origin',(15.,-54.,54.));
#1397=CARTESIAN_POINT('',(15.,-49.,46.));
#1398=CARTESIAN_POINT('',(15.,-49.,54.));
#1399=CARTESIAN_POINT('Origin',(41.2,-44.,46.));
#1400=CARTESIAN_POINT('',(41.2,-44.,54.));
#1401=CARTESIAN_POINT('',(41.2,-44.,46.));
#1402=CARTESIAN_POINT('',(41.2,-44.,65.));
#1403=CARTESIAN_POINT('',(41.2,-64.,54.));
#1404=CARTESIAN_POINT('',(41.2,-44.,54.));
#1405=CARTESIAN_POINT('',(41.2,-64.,46.));
#1406=CARTESIAN_POINT('',(41.2,-64.,46.));
#1407=CARTESIAN_POINT('',(41.2,-44.,46.));
#1408=CARTESIAN_POINT('Origin',(20.6,-64.,50.));
#1409=CARTESIAN_POINT('',(0.,-64.,54.));
#1410=CARTESIAN_POINT('',(41.2,-64.,54.));
#1411=CARTESIAN_POINT('',(0.,-64.,46.));
#1412=CARTESIAN_POINT('',(0.,-64.,54.));
#1413=CARTESIAN_POINT('',(0.,-64.,46.));
#1414=CARTESIAN_POINT('Origin',(0.,-44.,84.));
#1415=CARTESIAN_POINT('',(80.,-44.,46.));
#1416=CARTESIAN_POINT('',(0.,-44.,46.));
#1417=CARTESIAN_POINT('',(80.,-44.,54.));
#1418=CARTESIAN_POINT('',(80.,-44.,84.));
#1419=CARTESIAN_POINT('',(70.,-44.,54.));
#1420=CARTESIAN_POINT('',(35.,-44.,54.));
#1421=CARTESIAN_POINT('',(70.,-44.,76.));
#1422=CARTESIAN_POINT('',(70.,-44.,80.));
#1423=CARTESIAN_POINT('',(80.,-44.,76.));
#1424=CARTESIAN_POINT('',(40.,-44.,76.));
#1425=CARTESIAN_POINT('',(80.,-44.,84.));
#1426=CARTESIAN_POINT('',(80.,-44.,84.));
#1427=CARTESIAN_POINT('',(41.2,-44.,84.));
#1428=CARTESIAN_POINT('',(0.,-44.,84.));
#1429=CARTESIAN_POINT('',(41.2,-44.,84.));
#1430=CARTESIAN_POINT('',(51.6,-44.,57.5));
#1431=CARTESIAN_POINT('Origin',(52.7,-44.,57.5));
#1432=CARTESIAN_POINT('',(51.6,-44.,72.5));
#1433=CARTESIAN_POINT('Origin',(52.7,-44.,72.5));
#1434=CARTESIAN_POINT('',(66.6,-44.,57.5));
#1435=CARTESIAN_POINT('Origin',(67.7,-44.,57.5));
#1436=CARTESIAN_POINT('',(66.6,-44.,72.5));
#1437=CARTESIAN_POINT('Origin',(67.7,-44.,72.5));
#1438=CARTESIAN_POINT('Origin',(23.,9.40000000000001,30.5));
#1439=CARTESIAN_POINT('',(21.4,5.00000000000001,30.5));
#1440=CARTESIAN_POINT('Origin',(23.,5.00000000000001,30.5));
#1441=CARTESIAN_POINT('',(21.4,13.,30.5));
#1442=CARTESIAN_POINT('',(21.4,9.40000000000001,30.5));
#1443=CARTESIAN_POINT('Origin',(23.,13.,30.5));
#1444=CARTESIAN_POINT('Origin',(67.,9.40000000000001,30.5));
#1445=CARTESIAN_POINT('',(65.4,5.00000000000001,30.5));
#1446=CARTESIAN_POINT('Origin',(67.,5.00000000000001,30.5));
#1447=CARTESIAN_POINT('',(65.4,13.,30.5));
#1448=CARTESIAN_POINT('',(65.4,9.40000000000001,30.5));
#1449=CARTESIAN_POINT('Origin',(67.,13.,30.5));
#1450=CARTESIAN_POINT('Origin',(26.,5.00000000000001,42.5));
#1451=CARTESIAN_POINT('',(64.,13.,42.5));
#1452=CARTESIAN_POINT('',(26.,13.,42.5));
#1453=CARTESIAN_POINT('',(13.,13.,42.5));
#1454=CARTESIAN_POINT('',(64.,5.00000000000001,42.5));
#1455=CARTESIAN_POINT('',(64.,5.00000000000001,42.5));
#1456=CARTESIAN_POINT('',(26.,5.00000000000001,42.5));
#1457=CARTESIAN_POINT('',(13.,5.00000000000001,42.5));
#1458=CARTESIAN_POINT('',(26.,5.00000000000001,42.5));
#1459=CARTESIAN_POINT('Origin',(26.,5.00000000000001,18.5));
#1460=CARTESIAN_POINT('',(26.,13.,18.5));
#1461=CARTESIAN_POINT('',(26.,13.,11.75));
#1462=CARTESIAN_POINT('',(26.,5.00000000000001,18.5));
#1463=CARTESIAN_POINT('',(26.,5.,47.25));
#1464=CARTESIAN_POINT('',(26.,5.00000000000001,18.5));
#1465=CARTESIAN_POINT('Origin',(64.,5.00000000000001,18.5));
#1466=CARTESIAN_POINT('',(64.,13.,18.5));
#1467=CARTESIAN_POINT('',(32.,13.,18.5));
#1468=CARTESIAN_POINT('',(64.,5.00000000000001,18.5));
#1469=CARTESIAN_POINT('',(32.,5.00000000000001,18.5));
#1470=CARTESIAN_POINT('',(64.,5.00000000000001,18.5));
#1471=CARTESIAN_POINT('Origin',(64.,5.00000000000001,42.5));
#1472=CARTESIAN_POINT('',(64.,13.,23.75));
#1473=CARTESIAN_POINT('',(64.,5.,59.25));
#1474=CARTESIAN_POINT('Origin',(0.,5.,76.));
#1475=CARTESIAN_POINT('',(0.,5.,54.));
#1476=CARTESIAN_POINT('',(41.2,5.,54.));
#1477=CARTESIAN_POINT('',(40.,5.,54.));
#1478=CARTESIAN_POINT('',(41.2,4.99999999999999,84.));
#1479=CARTESIAN_POINT('',(41.2,5.,76.));
#1480=CARTESIAN_POINT('',(8.88178419700125E-15,4.99999999999999,84.));
#1481=CARTESIAN_POINT('',(10.3,4.99999999999999,84.));
#1482=CARTESIAN_POINT('',(0.,4.99999999999999,56.75));
#1483=CARTESIAN_POINT('Origin',(0.,5.,76.));
#1484=CARTESIAN_POINT('',(49.2,5.,54.));
#1485=CARTESIAN_POINT('',(70.,5.,54.));
#1486=CARTESIAN_POINT('',(40.,5.,54.));
#1487=CARTESIAN_POINT('',(70.,5.,76.));
#1488=CARTESIAN_POINT('',(70.,5.,76.));
#1489=CARTESIAN_POINT('',(49.2,5.,76.));
#1490=CARTESIAN_POINT('',(0.,5.,76.));
#1491=CARTESIAN_POINT('',(49.2,5.,65.));
#1492=CARTESIAN_POINT('',(58.68,5.,72.));
#1493=CARTESIAN_POINT('Origin',(59.78,5.,72.));
#1494=CARTESIAN_POINT('',(58.68,5.,58.));
#1495=CARTESIAN_POINT('Origin',(59.78,5.,58.));
#1496=CARTESIAN_POINT('Origin',(49.2,5.,54.));
#1497=CARTESIAN_POINT('',(49.2,-36.,54.));
#1498=CARTESIAN_POINT('',(49.2,-36.,76.));
#1499=CARTESIAN_POINT('',(49.2,-36.,50.));
#1500=CARTESIAN_POINT('',(49.2,5.,54.));
#1501=CARTESIAN_POINT('',(49.2,-15.5,76.));
#1502=CARTESIAN_POINT('Origin',(0.,-36.,76.));
#1503=CARTESIAN_POINT('',(70.,13.,76.));
#1504=CARTESIAN_POINT('',(70.,13.,76.));
#1505=CARTESIAN_POINT('',(80.,13.,76.));
#1506=CARTESIAN_POINT('',(40.,13.,76.));
#1507=CARTESIAN_POINT('',(80.,-14.25,76.));
#1508=CARTESIAN_POINT('',(70.,-36.,76.));
#1509=CARTESIAN_POINT('',(70.,13.,76.));
#1510=CARTESIAN_POINT('',(0.,-36.,76.));
#1511=CARTESIAN_POINT('Origin',(0.,5.,76.));
#1512=CARTESIAN_POINT('',(80.,5.,46.));
#1513=CARTESIAN_POINT('',(0.,5.,46.));
#1514=CARTESIAN_POINT('',(40.,5.,46.));
#1515=CARTESIAN_POINT('',(0.,5.00000000000001,5.00000000000001));
#1516=CARTESIAN_POINT('',(0.,4.99999999999999,56.75));
#1517=CARTESIAN_POINT('',(80.,5.00000000000001,5.00000000000001));
#1518=CARTESIAN_POINT('',(0.,5.00000000000001,5.00000000000001));
#1519=CARTESIAN_POINT('',(80.,5.,75.));
#1520=CARTESIAN_POINT('Origin',(0.,13.,84.));
#1521=CARTESIAN_POINT('',(41.2,-15.5,84.));
#1522=CARTESIAN_POINT('',(80.,13.,84.));
#1523=CARTESIAN_POINT('',(80.,13.,84.));
#1524=CARTESIAN_POINT('',(0.,13.,84.));
#1525=CARTESIAN_POINT('',(0.,13.,84.));
#1526=CARTESIAN_POINT('',(0.,13.,84.));
#1527=CARTESIAN_POINT('Origin',(41.2,-44.,84.));
#1528=CARTESIAN_POINT('',(41.2,-44.,54.));
#1529=CARTESIAN_POINT('Origin',(41.2,-44.,54.));
#1530=CARTESIAN_POINT('',(0.,-42.75,54.));
#1531=CARTESIAN_POINT('Origin',(0.,-41.5,33.5));
#1532=CARTESIAN_POINT('',(0.,-44.,46.));
#1533=CARTESIAN_POINT('',(0.,13.,5.00000000000002));
#1534=CARTESIAN_POINT('',(0.,13.,5.00000000000002));
#1535=CARTESIAN_POINT('',(0.,6.45970237518398E-15,-7.99999999999999));
#1536=CARTESIAN_POINT('',(0.,6.66133814775094E-15,-7.99999999999999));
#1537=CARTESIAN_POINT('',(0.,-96.,-8.00000000000004));
#1538=CARTESIAN_POINT('',(0.,-96.,-8.00000000000004));
#1539=CARTESIAN_POINT('',(0.,-96.,-3.43431332443359E-14));
#1540=CARTESIAN_POINT('',(0.,-96.,-3.43431332443359E-14));
#1541=CARTESIAN_POINT('',(0.,0.,0.));
#1542=CARTESIAN_POINT('',(0.,0.,0.));
#1543=CARTESIAN_POINT('',(0.,5.00000000000001,5.00000000000001));
#1544=CARTESIAN_POINT('Origin',(52.7,-40.,57.5));
#1545=CARTESIAN_POINT('',(51.6,-36.,57.5));
#1546=CARTESIAN_POINT('',(51.6,-40.,57.5));
#1547=CARTESIAN_POINT('Origin',(52.7,-36.,57.5));
#1548=CARTESIAN_POINT('Origin',(52.7,-40.,72.5));
#1549=CARTESIAN_POINT('',(51.6,-36.,72.5));
#1550=CARTESIAN_POINT('',(51.6,-40.,72.5));
#1551=CARTESIAN_POINT('Origin',(52.7,-36.,72.5));
#1552=CARTESIAN_POINT('Origin',(67.7,-40.,57.5));
#1553=CARTESIAN_POINT('',(66.6,-36.,57.5));
#1554=CARTESIAN_POINT('',(66.6,-40.,57.5));
#1555=CARTESIAN_POINT('Origin',(67.7,-36.,57.5));
#1556=CARTESIAN_POINT('Origin',(67.7,-40.,72.5));
#1557=CARTESIAN_POINT('',(66.6,-36.,72.5));
#1558=CARTESIAN_POINT('',(66.6,-40.,72.5));
#1559=CARTESIAN_POINT('Origin',(67.7,-36.,72.5));
#1560=CARTESIAN_POINT('Origin',(59.78,8.6,58.));
#1561=CARTESIAN_POINT('',(58.68,13.,58.));
#1562=CARTESIAN_POINT('Origin',(59.78,13.,58.));
#1563=CARTESIAN_POINT('',(58.68,8.6,58.));
#1564=CARTESIAN_POINT('Origin',(59.78,8.59999999999999,72.));
#1565=CARTESIAN_POINT('',(58.68,13.,72.));
#1566=CARTESIAN_POINT('Origin',(59.78,13.,72.));
#1567=CARTESIAN_POINT('',(58.68,8.59999999999999,72.));
#1568=CARTESIAN_POINT('Origin',(70.,13.,76.));
#1569=CARTESIAN_POINT('',(70.,13.,54.));
#1570=CARTESIAN_POINT('',(70.,13.,54.));
#1571=CARTESIAN_POINT('',(70.,13.,40.5));
#1572=CARTESIAN_POINT('Origin',(70.,13.,76.));
#1573=CARTESIAN_POINT('',(70.,-36.,54.));
#1574=CARTESIAN_POINT('',(70.,13.,54.));
#1575=CARTESIAN_POINT('',(70.,-36.,61.));
#1576=CARTESIAN_POINT('Origin',(70.,13.,54.));
#1577=CARTESIAN_POINT('',(80.,13.,54.));
#1578=CARTESIAN_POINT('',(80.,-14.25,54.));
#1579=CARTESIAN_POINT('',(35.,13.,54.));
#1580=CARTESIAN_POINT('',(40.,-36.,54.));
#1581=CARTESIAN_POINT('Origin',(80.,-41.5,33.5));
#1582=CARTESIAN_POINT('',(80.,-44.,46.));
#1583=CARTESIAN_POINT('',(80.,0.,0.));
#1584=CARTESIAN_POINT('',(80.,5.00000000000001,5.00000000000001));
#1585=CARTESIAN_POINT('',(80.,-96.,-3.44169137633799E-14));
#1586=CARTESIAN_POINT('',(80.,0.,0.));
#1587=CARTESIAN_POINT('',(80.,-96.,-8.00000000000004));
#1588=CARTESIAN_POINT('',(80.,-96.,-3.43431332443359E-14));
#1589=CARTESIAN_POINT('',(80.,6.66133814775094E-15,-7.99999999999999));
#1590=CARTESIAN_POINT('',(80.,-96.,-8.00000000000004));
#1591=CARTESIAN_POINT('',(80.,13.,5.00000000000002));
#1592=CARTESIAN_POINT('',(80.,6.66133814775094E-15,-7.99999999999999));
#1593=CARTESIAN_POINT('',(80.,13.,5.00000000000002));
#1594=CARTESIAN_POINT('',(80.,-40.,51.2295));
#1595=CARTESIAN_POINT('Origin',(80.,-40.,50.));
#1596=CARTESIAN_POINT('',(80.,9.00000000000001,51.2295));
#1597=CARTESIAN_POINT('Origin',(80.,9.00000000000001,50.));
#1598=CARTESIAN_POINT('',(80.,-71.,-2.77050000000002));
#1599=CARTESIAN_POINT('Origin',(80.,-71.,-4.00000000000002));
#1600=CARTESIAN_POINT('Origin',(80.,-41.5,33.5));
#1601=CARTESIAN_POINT('',(80.,13.,5.00000000000002));
#1602=CARTESIAN_POINT('Origin',(0.,13.,5.00000000000002));
#1603=CARTESIAN_POINT('',(0.,13.,5.00000000000002));
#1604=CARTESIAN_POINT('Origin',(70.8306209344528,-40.,50.));
#1605=CARTESIAN_POINT('',(71.2,-40.,51.2295));
#1606=CARTESIAN_POINT('Origin',(71.2,-40.,50.));
#1607=CARTESIAN_POINT('',(70.4612418689056,-40.,50.));
#1608=CARTESIAN_POINT('',(70.8306209344528,-40.,50.61475));
#1609=CARTESIAN_POINT('Origin',(75.6,-40.,50.));
#1610=CARTESIAN_POINT('',(75.6,-40.,51.2295));
#1611=CARTESIAN_POINT('Origin',(70.8306209344528,9.00000000000001,50.));
#1612=CARTESIAN_POINT('',(71.2,9.00000000000001,51.2295));
#1613=CARTESIAN_POINT('Origin',(71.2,9.00000000000001,50.));
#1614=CARTESIAN_POINT('',(70.4612418689056,9.00000000000001,50.));
#1615=CARTESIAN_POINT('',(70.8306209344528,9.00000000000001,50.61475));
#1616=CARTESIAN_POINT('Origin',(75.6,9.00000000000001,50.));
#1617=CARTESIAN_POINT('',(75.6,9.00000000000001,51.2295));
#1618=CARTESIAN_POINT('Origin',(70.8306209344528,-71.,-4.00000000000002));
#1619=CARTESIAN_POINT('',(71.2,-71.,-2.77050000000002));
#1620=CARTESIAN_POINT('Origin',(71.2,-71.,-4.00000000000002));
#1621=CARTESIAN_POINT('',(70.4612418689056,-71.,-4.00000000000002));
#1622=CARTESIAN_POINT('',(70.8306209344528,-71.,-3.38525000000002));
#1623=CARTESIAN_POINT('Origin',(75.6,-71.,-4.00000000000002));
#1624=CARTESIAN_POINT('',(75.6,-71.,-2.77050000000002));
#1625=CARTESIAN_POINT('Origin',(0.,-36.,46.));
#1626=CARTESIAN_POINT('Origin',(0.,-44.,46.));
#1627=CARTESIAN_POINT('Origin',(0.,6.56052026146746E-15,-7.99999999999999));
#1628=CARTESIAN_POINT('',(0.,6.45970237518398E-15,-7.99999999999999));
#1629=CARTESIAN_POINT('Origin',(0.,-96.,-8.00000000000004));
#1630=CARTESIAN_POINT('',(0.,-96.,-8.00000000000004));
#1631=CARTESIAN_POINT('Origin',(0.,-96.,-3.43431332443359E-14));
#1632=CARTESIAN_POINT('',(0.,-96.,-3.43431332443359E-14));
#1633=CARTESIAN_POINT('Origin',(0.,0.,0.));
#1634=CARTESIAN_POINT('',(0.,0.,0.));
#1635=CARTESIAN_POINT('Origin',(0.,5.00000000000001,5.00000000000001));
#1636=CARTESIAN_POINT('',(0.,-34.,0.));
#1637=CARTESIAN_POINT('',(0.,5.00000000000002,1.11022302462516E-15));
#1638=CARTESIAN_POINT('',(0.,-44.,0.));
#1639=UNCERTAINTY_MEASURE_WITH_UNIT(LENGTH_MEASURE(0.01),#1643,
'DISTANCE_ACCURACY_VALUE',
'Maximum model space distance between geometric entities at asserted c
onnectivities');
#1640=UNCERTAINTY_MEASURE_WITH_UNIT(LENGTH_MEASURE(0.01),#1643,
'DISTANCE_ACCURACY_VALUE',
'Maximum model space distance between geometric entities at asserted c
onnectivities');
#1641=(
GEOMETRIC_REPRESENTATION_CONTEXT(3)
GLOBAL_UNCERTAINTY_ASSIGNED_CONTEXT((#1639))
GLOBAL_UNIT_ASSIGNED_CONTEXT((#1643,#1645,#1646))
REPRESENTATION_CONTEXT('','3D')
);
#1642=(
GEOMETRIC_REPRESENTATION_CONTEXT(3)
GLOBAL_UNCERTAINTY_ASSIGNED_CONTEXT((#1640))
GLOBAL_UNIT_ASSIGNED_CONTEXT((#1643,#1645,#1646))
REPRESENTATION_CONTEXT('','3D')
);
#1643=(
LENGTH_UNIT()
NAMED_UNIT(*)
SI_UNIT(.MILLI.,.METRE.)
);
#1644=(
LENGTH_UNIT()
NAMED_UNIT(*)
SI_UNIT(.CENTI.,.METRE.)
);
#1645=(
NAMED_UNIT(*)
PLANE_ANGLE_UNIT()
SI_UNIT($,.RADIAN.)
);
#1646=(
NAMED_UNIT(*)
SI_UNIT($,.STERADIAN.)
SOLID_ANGLE_UNIT()
);
#1647=SHAPE_DEFINITION_REPRESENTATION(#1648,#1649);
#1648=PRODUCT_DEFINITION_SHAPE('',$,#1651);
#1649=SHAPE_REPRESENTATION('',(#1026),#1641);
#1650=PRODUCT_DEFINITION_CONTEXT('part definition',#1655,'design');
#1651=PRODUCT_DEFINITION('\X2\5DE64ED55207308A\X0\','\X2\5DE64ED55207308A\X0\',
#1652,#1650);
#1652=PRODUCT_DEFINITION_FORMATION('',$,#1657);
#1653=PRODUCT_RELATED_PRODUCT_CATEGORY('\X2\5DE64ED55207308A\X0\',
'\X2\5DE64ED55207308A\X0\',(#1657));
#1654=APPLICATION_PROTOCOL_DEFINITION('international standard',
'automotive_design',2009,#1655);
#1655=APPLICATION_CONTEXT(
'Core Data for Automotive Mechanical Design Process');
#1656=PRODUCT_CONTEXT('part definition',#1655,'mechanical');
#1657=PRODUCT('\X2\5DE64ED55207308A\X0\','\X2\5DE64ED55207308A\X0\',$,(#1656));
#1658=PRESENTATION_STYLE_ASSIGNMENT((#1660));
#1659=PRESENTATION_STYLE_ASSIGNMENT((#1661));
#1660=SURFACE_STYLE_USAGE(.BOTH.,#1664);
#1661=SURFACE_STYLE_USAGE(.BOTH.,#1665);
#1662=SURFACE_STYLE_RENDERING_WITH_PROPERTIES($,#1672,(#1663));
#1663=SURFACE_STYLE_TRANSPARENT(0.);
#1664=SURFACE_SIDE_STYLE('',(#1666,#1662));
#1665=SURFACE_SIDE_STYLE('',(#1667));
#1666=SURFACE_STYLE_FILL_AREA(#1668);
#1667=SURFACE_STYLE_FILL_AREA(#1669);
#1668=FILL_AREA_STYLE('',(#1670));
#1669=FILL_AREA_STYLE('',(#1671));
#1670=FILL_AREA_STYLE_COLOUR('',#1672);
#1671=FILL_AREA_STYLE_COLOUR('',#1673);
#1672=COLOUR_RGB('',0.831372549019608,0.76078431372549,0.6);
#1673=COLOUR_RGB('',1.,1.,0.);
ENDSEC;
END-ISO-10303-21;
