ISO-10303-21;
HEADER;
/* Generated by software containing ST-Developer
 * from STEP Tools, Inc. (www.steptools.com) 
 */

FILE_DESCRIPTION(
/* description */ (''),
/* implementation_level */ '2;1');

FILE_NAME(
/* name */ '',
/* time_stamp */ '2026-06-08T16:09:15+09:00',
/* author */ ('Yagis'),
/* organization */ (''),
/* preprocessor_version */ 'ST-DEVELOPER v20.1',
/* originating_system */ 'Autodesk Inventor 2026',
/* authorisation */ '');

FILE_SCHEMA (('AUTOMOTIVE_DESIGN { 1 0 10303 214 3 1 1 }'));
ENDSEC;

DATA;
#10=MECHANICAL_DESIGN_GEOMETRIC_PRESENTATION_REPRESENTATION('',(#13),#471);
#11=SHAPE_REPRESENTATION_RELATIONSHIP('SRR','None',#478,#12);
#12=ADVANCED_BREP_SHAPE_REPRESENTATION('',(#14),#470);
#13=STYLED_ITEM('',(#487),#14);
#14=MANIFOLD_SOLID_BREP('\X2\30BD30EA30C330C9\X0\1',#270);
#15=FACE_BOUND('',#50,.T.);
#16=FACE_BOUND('',#51,.T.);
#17=FACE_BOUND('',#54,.T.);
#18=FACE_BOUND('',#55,.T.);
#19=PLANE('',#299);
#20=PLANE('',#301);
#21=PLANE('',#308);
#22=PLANE('',#309);
#23=PLANE('',#310);
#24=PLANE('',#311);
#25=PLANE('',#312);
#26=PLANE('',#313);
#27=PLANE('',#314);
#28=PLANE('',#315);
#29=PLANE('',#316);
#30=PLANE('',#317);
#31=FACE_OUTER_BOUND('',#46,.T.);
#32=FACE_OUTER_BOUND('',#47,.T.);
#33=FACE_OUTER_BOUND('',#48,.T.);
#34=FACE_OUTER_BOUND('',#49,.T.);
#35=FACE_OUTER_BOUND('',#52,.T.);
#36=FACE_OUTER_BOUND('',#53,.T.);
#37=FACE_OUTER_BOUND('',#56,.T.);
#38=FACE_OUTER_BOUND('',#57,.T.);
#39=FACE_OUTER_BOUND('',#58,.T.);
#40=FACE_OUTER_BOUND('',#59,.T.);
#41=FACE_OUTER_BOUND('',#60,.T.);
#42=FACE_OUTER_BOUND('',#61,.T.);
#43=FACE_OUTER_BOUND('',#62,.T.);
#44=FACE_OUTER_BOUND('',#63,.T.);
#45=FACE_OUTER_BOUND('',#64,.T.);
#46=EDGE_LOOP('',(#182,#183,#184,#185));
#47=EDGE_LOOP('',(#186,#187,#188,#189));
#48=EDGE_LOOP('',(#190,#191,#192));
#49=EDGE_LOOP('',(#193,#194,#195,#196));
#50=EDGE_LOOP('',(#197));
#51=EDGE_LOOP('',(#198));
#52=EDGE_LOOP('',(#199,#200,#201,#202,#203,#204,#205,#206));
#53=EDGE_LOOP('',(#207));
#54=EDGE_LOOP('',(#208));
#55=EDGE_LOOP('',(#209));
#56=EDGE_LOOP('',(#210,#211,#212,#213));
#57=EDGE_LOOP('',(#214,#215,#216,#217));
#58=EDGE_LOOP('',(#218,#219,#220,#221));
#59=EDGE_LOOP('',(#222,#223,#224,#225,#226));
#60=EDGE_LOOP('',(#227,#228,#229,#230,#231));
#61=EDGE_LOOP('',(#232,#233,#234,#235));
#62=EDGE_LOOP('',(#236,#237,#238,#239,#240));
#63=EDGE_LOOP('',(#241,#242,#243,#244,#245));
#64=EDGE_LOOP('',(#246,#247,#248,#249,#250,#251));
#65=LINE('',#400,#90);
#66=LINE('',#406,#91);
#67=LINE('',#411,#92);
#68=LINE('',#414,#93);
#69=LINE('',#418,#94);
#70=LINE('',#420,#95);
#71=LINE('',#427,#96);
#72=LINE('',#433,#97);
#73=LINE('',#435,#98);
#74=LINE('',#436,#99);
#75=LINE('',#439,#100);
#76=LINE('',#441,#101);
#77=LINE('',#442,#102);
#78=LINE('',#446,#103);
#79=LINE('',#447,#104);
#80=LINE('',#448,#105);
#81=LINE('',#451,#106);
#82=LINE('',#452,#107);
#83=LINE('',#455,#108);
#84=LINE('',#456,#109);
#85=LINE('',#459,#110);
#86=LINE('',#460,#111);
#87=LINE('',#463,#112);
#88=LINE('',#464,#113);
#89=LINE('',#466,#114);
#90=VECTOR('',#324,1.);
#91=VECTOR('',#331,1.);
#92=VECTOR('',#336,10.);
#93=VECTOR('',#339,10.);
#94=VECTOR('',#342,10.);
#95=VECTOR('',#343,10.);
#96=VECTOR('',#352,10.);
#97=VECTOR('',#361,10.);
#98=VECTOR('',#362,10.);
#99=VECTOR('',#363,10.);
#100=VECTOR('',#366,10.);
#101=VECTOR('',#367,10.);
#102=VECTOR('',#368,10.);
#103=VECTOR('',#371,10.);
#104=VECTOR('',#372,10.);
#105=VECTOR('',#373,10.);
#106=VECTOR('',#376,10.);
#107=VECTOR('',#377,10.);
#108=VECTOR('',#380,10.);
#109=VECTOR('',#381,10.);
#110=VECTOR('',#384,10.);
#111=VECTOR('',#385,10.);
#112=VECTOR('',#388,10.);
#113=VECTOR('',#389,10.);
#114=VECTOR('',#392,10.);
#115=CIRCLE('',#294,1.);
#116=CIRCLE('',#295,1.);
#117=CIRCLE('',#297,1.);
#118=CIRCLE('',#298,1.);
#119=CIRCLE('',#300,10.);
#120=CIRCLE('',#302,10.);
#121=CIRCLE('',#303,10.);
#122=CIRCLE('',#305,10.);
#123=CIRCLE('',#306,10.);
#124=CIRCLE('',#307,10.);
#125=VERTEX_POINT('',#397);
#126=VERTEX_POINT('',#399);
#127=VERTEX_POINT('',#403);
#128=VERTEX_POINT('',#405);
#129=VERTEX_POINT('',#409);
#130=VERTEX_POINT('',#410);
#131=VERTEX_POINT('',#412);
#132=VERTEX_POINT('',#416);
#133=VERTEX_POINT('',#417);
#134=VERTEX_POINT('',#419);
#135=VERTEX_POINT('',#421);
#136=VERTEX_POINT('',#425);
#137=VERTEX_POINT('',#432);
#138=VERTEX_POINT('',#434);
#139=VERTEX_POINT('',#438);
#140=VERTEX_POINT('',#440);
#141=VERTEX_POINT('',#444);
#142=VERTEX_POINT('',#445);
#143=VERTEX_POINT('',#450);
#144=VERTEX_POINT('',#454);
#145=VERTEX_POINT('',#458);
#146=VERTEX_POINT('',#462);
#147=EDGE_CURVE('',#125,#125,#115,.T.);
#148=EDGE_CURVE('',#125,#126,#65,.T.);
#149=EDGE_CURVE('',#126,#126,#116,.T.);
#150=EDGE_CURVE('',#127,#127,#117,.T.);
#151=EDGE_CURVE('',#127,#128,#66,.T.);
#152=EDGE_CURVE('',#128,#128,#118,.T.);
#153=EDGE_CURVE('',#129,#130,#67,.T.);
#154=EDGE_CURVE('',#131,#130,#119,.T.);
#155=EDGE_CURVE('',#131,#129,#68,.T.);
#156=EDGE_CURVE('',#132,#133,#69,.T.);
#157=EDGE_CURVE('',#133,#134,#70,.T.);
#158=EDGE_CURVE('',#135,#134,#120,.T.);
#159=EDGE_CURVE('',#132,#135,#121,.T.);
#160=EDGE_CURVE('',#136,#136,#122,.T.);
#161=EDGE_CURVE('',#136,#135,#71,.T.);
#162=EDGE_CURVE('',#131,#134,#123,.T.);
#163=EDGE_CURVE('',#132,#130,#124,.T.);
#164=EDGE_CURVE('',#134,#137,#72,.T.);
#165=EDGE_CURVE('',#137,#138,#73,.T.);
#166=EDGE_CURVE('',#138,#131,#74,.T.);
#167=EDGE_CURVE('',#130,#139,#75,.T.);
#168=EDGE_CURVE('',#139,#140,#76,.T.);
#169=EDGE_CURVE('',#140,#132,#77,.T.);
#170=EDGE_CURVE('',#141,#142,#78,.T.);
#171=EDGE_CURVE('',#142,#140,#79,.T.);
#172=EDGE_CURVE('',#141,#139,#80,.T.);
#173=EDGE_CURVE('',#143,#141,#81,.T.);
#174=EDGE_CURVE('',#143,#129,#82,.T.);
#175=EDGE_CURVE('',#144,#143,#83,.T.);
#176=EDGE_CURVE('',#144,#138,#84,.T.);
#177=EDGE_CURVE('',#145,#144,#85,.T.);
#178=EDGE_CURVE('',#145,#137,#86,.T.);
#179=EDGE_CURVE('',#146,#145,#87,.T.);
#180=EDGE_CURVE('',#146,#133,#88,.T.);
#181=EDGE_CURVE('',#142,#146,#89,.T.);
#182=ORIENTED_EDGE('',*,*,#147,.F.);
#183=ORIENTED_EDGE('',*,*,#148,.T.);
#184=ORIENTED_EDGE('',*,*,#149,.F.);
#185=ORIENTED_EDGE('',*,*,#148,.F.);
#186=ORIENTED_EDGE('',*,*,#150,.F.);
#187=ORIENTED_EDGE('',*,*,#151,.T.);
#188=ORIENTED_EDGE('',*,*,#152,.F.);
#189=ORIENTED_EDGE('',*,*,#151,.F.);
#190=ORIENTED_EDGE('',*,*,#153,.T.);
#191=ORIENTED_EDGE('',*,*,#154,.F.);
#192=ORIENTED_EDGE('',*,*,#155,.T.);
#193=ORIENTED_EDGE('',*,*,#156,.T.);
#194=ORIENTED_EDGE('',*,*,#157,.T.);
#195=ORIENTED_EDGE('',*,*,#158,.F.);
#196=ORIENTED_EDGE('',*,*,#159,.F.);
#197=ORIENTED_EDGE('',*,*,#149,.T.);
#198=ORIENTED_EDGE('',*,*,#152,.T.);
#199=ORIENTED_EDGE('',*,*,#160,.F.);
#200=ORIENTED_EDGE('',*,*,#161,.T.);
#201=ORIENTED_EDGE('',*,*,#158,.T.);
#202=ORIENTED_EDGE('',*,*,#162,.F.);
#203=ORIENTED_EDGE('',*,*,#154,.T.);
#204=ORIENTED_EDGE('',*,*,#163,.F.);
#205=ORIENTED_EDGE('',*,*,#159,.T.);
#206=ORIENTED_EDGE('',*,*,#161,.F.);
#207=ORIENTED_EDGE('',*,*,#160,.T.);
#208=ORIENTED_EDGE('',*,*,#147,.T.);
#209=ORIENTED_EDGE('',*,*,#150,.T.);
#210=ORIENTED_EDGE('',*,*,#162,.T.);
#211=ORIENTED_EDGE('',*,*,#164,.T.);
#212=ORIENTED_EDGE('',*,*,#165,.T.);
#213=ORIENTED_EDGE('',*,*,#166,.T.);
#214=ORIENTED_EDGE('',*,*,#163,.T.);
#215=ORIENTED_EDGE('',*,*,#167,.T.);
#216=ORIENTED_EDGE('',*,*,#168,.T.);
#217=ORIENTED_EDGE('',*,*,#169,.T.);
#218=ORIENTED_EDGE('',*,*,#170,.T.);
#219=ORIENTED_EDGE('',*,*,#171,.T.);
#220=ORIENTED_EDGE('',*,*,#168,.F.);
#221=ORIENTED_EDGE('',*,*,#172,.F.);
#222=ORIENTED_EDGE('',*,*,#173,.T.);
#223=ORIENTED_EDGE('',*,*,#172,.T.);
#224=ORIENTED_EDGE('',*,*,#167,.F.);
#225=ORIENTED_EDGE('',*,*,#153,.F.);
#226=ORIENTED_EDGE('',*,*,#174,.F.);
#227=ORIENTED_EDGE('',*,*,#175,.T.);
#228=ORIENTED_EDGE('',*,*,#174,.T.);
#229=ORIENTED_EDGE('',*,*,#155,.F.);
#230=ORIENTED_EDGE('',*,*,#166,.F.);
#231=ORIENTED_EDGE('',*,*,#176,.F.);
#232=ORIENTED_EDGE('',*,*,#177,.T.);
#233=ORIENTED_EDGE('',*,*,#176,.T.);
#234=ORIENTED_EDGE('',*,*,#165,.F.);
#235=ORIENTED_EDGE('',*,*,#178,.F.);
#236=ORIENTED_EDGE('',*,*,#179,.T.);
#237=ORIENTED_EDGE('',*,*,#178,.T.);
#238=ORIENTED_EDGE('',*,*,#164,.F.);
#239=ORIENTED_EDGE('',*,*,#157,.F.);
#240=ORIENTED_EDGE('',*,*,#180,.F.);
#241=ORIENTED_EDGE('',*,*,#181,.T.);
#242=ORIENTED_EDGE('',*,*,#180,.T.);
#243=ORIENTED_EDGE('',*,*,#156,.F.);
#244=ORIENTED_EDGE('',*,*,#169,.F.);
#245=ORIENTED_EDGE('',*,*,#171,.F.);
#246=ORIENTED_EDGE('',*,*,#181,.F.);
#247=ORIENTED_EDGE('',*,*,#170,.F.);
#248=ORIENTED_EDGE('',*,*,#173,.F.);
#249=ORIENTED_EDGE('',*,*,#175,.F.);
#250=ORIENTED_EDGE('',*,*,#177,.F.);
#251=ORIENTED_EDGE('',*,*,#179,.F.);
#252=CYLINDRICAL_SURFACE('',#293,1.);
#253=CYLINDRICAL_SURFACE('',#296,1.);
#254=CYLINDRICAL_SURFACE('',#304,10.);
#255=ADVANCED_FACE('',(#31),#252,.F.);
#256=ADVANCED_FACE('',(#32),#253,.F.);
#257=ADVANCED_FACE('',(#33),#19,.F.);
#258=ADVANCED_FACE('',(#34,#15,#16),#20,.F.);
#259=ADVANCED_FACE('',(#35),#254,.T.);
#260=ADVANCED_FACE('',(#36,#17,#18),#21,.T.);
#261=ADVANCED_FACE('',(#37),#22,.T.);
#262=ADVANCED_FACE('',(#38),#23,.T.);
#263=ADVANCED_FACE('',(#39),#24,.T.);
#264=ADVANCED_FACE('',(#40),#25,.T.);
#265=ADVANCED_FACE('',(#41),#26,.T.);
#266=ADVANCED_FACE('',(#42),#27,.T.);
#267=ADVANCED_FACE('',(#43),#28,.T.);
#268=ADVANCED_FACE('',(#44),#29,.T.);
#269=ADVANCED_FACE('',(#45),#30,.F.);
#270=CLOSED_SHELL('',(#255,#256,#257,#258,#259,#260,#261,#262,#263,#264,
#265,#266,#267,#268,#269));
#271=DERIVED_UNIT_ELEMENT(#274,1.);
#272=DERIVED_UNIT_ELEMENT(#473,-3.);
#273=DIMENSIONAL_EXPONENTS(0.,1.,0.,0.,0.,0.,0.);
#274=(
CONVERSION_BASED_UNIT('gram',#276)
MASS_UNIT()
NAMED_UNIT(#273)
);
#275=(
MASS_UNIT()
NAMED_UNIT(*)
SI_UNIT(.KILO.,.GRAM.)
);
#276=MASS_MEASURE_WITH_UNIT(MASS_MEASURE(0.001),#275);
#277=DERIVED_UNIT((#271,#272));
#278=MEASURE_REPRESENTATION_ITEM('density measure',
POSITIVE_RATIO_MEASURE(1.),#277);
#279=PROPERTY_DEFINITION_REPRESENTATION(#284,#281);
#280=PROPERTY_DEFINITION_REPRESENTATION(#285,#282);
#281=REPRESENTATION('material name',(#283),#470);
#282=REPRESENTATION('density',(#278),#470);
#283=DESCRIPTIVE_REPRESENTATION_ITEM('\X2\4E00822C\X0\','\X2\4E00822C\X0\');
#284=PROPERTY_DEFINITION('material property','material name',#480);
#285=PROPERTY_DEFINITION('material property','density of part',#480);
#286=DATE_TIME_ROLE('creation_date');
#287=APPLIED_DATE_AND_TIME_ASSIGNMENT(#288,#286,(#480));
#288=DATE_AND_TIME(#289,#290);
#289=CALENDAR_DATE(2026,18,5);
#290=LOCAL_TIME(0,0,0.,#291);
#291=COORDINATED_UNIVERSAL_TIME_OFFSET(0,0,.BEHIND.);
#292=AXIS2_PLACEMENT_3D('',#395,#318,#319);
#293=AXIS2_PLACEMENT_3D('',#396,#320,#321);
#294=AXIS2_PLACEMENT_3D('',#398,#322,#323);
#295=AXIS2_PLACEMENT_3D('',#401,#325,#326);
#296=AXIS2_PLACEMENT_3D('',#402,#327,#328);
#297=AXIS2_PLACEMENT_3D('',#404,#329,#330);
#298=AXIS2_PLACEMENT_3D('',#407,#332,#333);
#299=AXIS2_PLACEMENT_3D('',#408,#334,#335);
#300=AXIS2_PLACEMENT_3D('',#413,#337,#338);
#301=AXIS2_PLACEMENT_3D('',#415,#340,#341);
#302=AXIS2_PLACEMENT_3D('',#422,#344,#345);
#303=AXIS2_PLACEMENT_3D('',#423,#346,#347);
#304=AXIS2_PLACEMENT_3D('',#424,#348,#349);
#305=AXIS2_PLACEMENT_3D('',#426,#350,#351);
#306=AXIS2_PLACEMENT_3D('',#428,#353,#354);
#307=AXIS2_PLACEMENT_3D('',#429,#355,#356);
#308=AXIS2_PLACEMENT_3D('',#430,#357,#358);
#309=AXIS2_PLACEMENT_3D('',#431,#359,#360);
#310=AXIS2_PLACEMENT_3D('',#437,#364,#365);
#311=AXIS2_PLACEMENT_3D('',#443,#369,#370);
#312=AXIS2_PLACEMENT_3D('',#449,#374,#375);
#313=AXIS2_PLACEMENT_3D('',#453,#378,#379);
#314=AXIS2_PLACEMENT_3D('',#457,#382,#383);
#315=AXIS2_PLACEMENT_3D('',#461,#386,#387);
#316=AXIS2_PLACEMENT_3D('',#465,#390,#391);
#317=AXIS2_PLACEMENT_3D('',#467,#393,#394);
#318=DIRECTION('axis',(0.,0.,1.));
#319=DIRECTION('refdir',(1.,0.,0.));
#320=DIRECTION('center_axis',(1.,0.,0.));
#321=DIRECTION('ref_axis',(0.,0.,-1.));
#322=DIRECTION('center_axis',(-1.,0.,0.));
#323=DIRECTION('ref_axis',(0.,0.,-1.));
#324=DIRECTION('',(-1.,0.,0.));
#325=DIRECTION('center_axis',(1.,0.,0.));
#326=DIRECTION('ref_axis',(0.,0.,-1.));
#327=DIRECTION('center_axis',(1.,0.,0.));
#328=DIRECTION('ref_axis',(0.,0.,-1.));
#329=DIRECTION('center_axis',(-1.,0.,0.));
#330=DIRECTION('ref_axis',(0.,0.,-1.));
#331=DIRECTION('',(-1.,0.,0.));
#332=DIRECTION('center_axis',(1.,0.,0.));
#333=DIRECTION('ref_axis',(0.,0.,-1.));
#334=DIRECTION('center_axis',(1.,0.,0.));
#335=DIRECTION('ref_axis',(0.,0.,-1.));
#336=DIRECTION('',(0.,3.84877315203387E-16,-1.));
#337=DIRECTION('center_axis',(1.,0.,0.));
#338=DIRECTION('ref_axis',(0.,0.,-1.));
#339=DIRECTION('',(0.,1.,0.));
#340=DIRECTION('center_axis',(1.,0.,0.));
#341=DIRECTION('ref_axis',(0.,0.,-1.));
#342=DIRECTION('',(0.,-2.96059473233375E-16,1.));
#343=DIRECTION('',(0.,-1.,9.58150807073313E-16));
#344=DIRECTION('center_axis',(1.,0.,0.));
#345=DIRECTION('ref_axis',(0.,0.,-1.));
#346=DIRECTION('center_axis',(1.,0.,0.));
#347=DIRECTION('ref_axis',(0.,0.,-1.));
#348=DIRECTION('center_axis',(1.,0.,0.));
#349=DIRECTION('ref_axis',(0.,0.,-1.));
#350=DIRECTION('center_axis',(1.,0.,0.));
#351=DIRECTION('ref_axis',(0.,0.,-1.));
#352=DIRECTION('',(-1.,0.,0.));
#353=DIRECTION('center_axis',(-1.,0.,0.));
#354=DIRECTION('ref_axis',(0.,0.,-1.));
#355=DIRECTION('center_axis',(-1.,0.,0.));
#356=DIRECTION('ref_axis',(0.,0.,-1.));
#357=DIRECTION('center_axis',(1.,0.,0.));
#358=DIRECTION('ref_axis',(0.,0.,-1.));
#359=DIRECTION('center_axis',(1.,0.,0.));
#360=DIRECTION('ref_axis',(0.,0.,-1.));
#361=DIRECTION('',(0.,-1.,9.58150807073313E-16));
#362=DIRECTION('',(0.,0.,-1.));
#363=DIRECTION('',(0.,1.,0.));
#364=DIRECTION('center_axis',(1.,0.,0.));
#365=DIRECTION('ref_axis',(0.,0.,-1.));
#366=DIRECTION('',(0.,3.84877315203387E-16,-1.));
#367=DIRECTION('',(0.,1.,0.));
#368=DIRECTION('',(0.,-2.96059473233375E-16,1.));
#369=DIRECTION('center_axis',(0.,0.,-1.));
#370=DIRECTION('ref_axis',(0.,1.,0.));
#371=DIRECTION('',(0.,1.,0.));
#372=DIRECTION('',(1.,0.,0.));
#373=DIRECTION('',(1.,0.,0.));
#374=DIRECTION('center_axis',(0.,-1.,-3.84877315203387E-16));
#375=DIRECTION('ref_axis',(0.,3.84877315203387E-16,-1.));
#376=DIRECTION('',(0.,3.84877315203387E-16,-1.));
#377=DIRECTION('',(1.,0.,0.));
#378=DIRECTION('center_axis',(0.,0.,-1.));
#379=DIRECTION('ref_axis',(0.,1.,0.));
#380=DIRECTION('',(0.,1.,0.));
#381=DIRECTION('',(1.,0.,0.));
#382=DIRECTION('center_axis',(0.,-1.,0.));
#383=DIRECTION('ref_axis',(0.,0.,-1.));
#384=DIRECTION('',(0.,0.,-1.));
#385=DIRECTION('',(1.,0.,0.));
#386=DIRECTION('center_axis',(0.,9.58150807073313E-16,1.));
#387=DIRECTION('ref_axis',(0.,-1.,9.58150807073313E-16));
#388=DIRECTION('',(0.,-1.,9.58150807073313E-16));
#389=DIRECTION('',(1.,0.,0.));
#390=DIRECTION('center_axis',(0.,1.,2.96059473233375E-16));
#391=DIRECTION('ref_axis',(0.,-2.96059473233375E-16,1.));
#392=DIRECTION('',(0.,-2.96059473233375E-16,1.));
#393=DIRECTION('center_axis',(1.,0.,0.));
#394=DIRECTION('ref_axis',(0.,0.,-1.));
#395=CARTESIAN_POINT('',(0.,0.,0.));
#396=CARTESIAN_POINT('Origin',(75.95,2.5,4.5));
#397=CARTESIAN_POINT('',(80.,2.5,5.5));
#398=CARTESIAN_POINT('Origin',(80.,2.5,4.5));
#399=CARTESIAN_POINT('',(75.,2.5,5.5));
#400=CARTESIAN_POINT('',(75.95,2.5,5.5));
#401=CARTESIAN_POINT('Origin',(75.,2.5,4.5));
#402=CARTESIAN_POINT('Origin',(75.95,9.5,-2.5));
#403=CARTESIAN_POINT('',(80.,9.5,-1.5));
#404=CARTESIAN_POINT('Origin',(80.,9.5,-2.5));
#405=CARTESIAN_POINT('',(75.,9.5,-1.5));
#406=CARTESIAN_POINT('',(75.95,9.5,-1.5));
#407=CARTESIAN_POINT('Origin',(75.,9.5,-2.5));
#408=CARTESIAN_POINT('Origin',(75.,2.5,-2.5));
#409=CARTESIAN_POINT('',(75.,0.,-5.00000000000006));
#410=CARTESIAN_POINT('',(75.,4.83678160491451E-15,-12.1824583655185));
#411=CARTESIAN_POINT('',(75.,0.,0.));
#412=CARTESIAN_POINT('',(75.,-7.18245836551853,-5.00000000000006));
#413=CARTESIAN_POINT('Origin',(75.,2.5,-2.5));
#414=CARTESIAN_POINT('',(75.,-70.,-5.00000000000006));
#415=CARTESIAN_POINT('Origin',(75.,2.5,-2.5));
#416=CARTESIAN_POINT('',(75.,5.00000000000001,-12.1824583655185));
#417=CARTESIAN_POINT('',(75.,5.00000000000001,-8.88178419700125E-15));
#418=CARTESIAN_POINT('',(75.,5.00000000000003,-75.));
#419=CARTESIAN_POINT('',(75.,-7.18245836551854,6.77925349196874E-15));
#420=CARTESIAN_POINT('',(75.,5.00000000000001,-4.79075403536657E-15));
#421=CARTESIAN_POINT('',(75.,2.5,7.5));
#422=CARTESIAN_POINT('Origin',(75.,2.5,-2.5));
#423=CARTESIAN_POINT('Origin',(75.,2.5,-2.5));
#424=CARTESIAN_POINT('Origin',(75.,2.5,-2.5));
#425=CARTESIAN_POINT('',(80.,2.5,7.5));
#426=CARTESIAN_POINT('Origin',(80.,2.5,-2.5));
#427=CARTESIAN_POINT('',(75.,2.5,7.5));
#428=CARTESIAN_POINT('Origin',(75.,2.5,-2.5));
#429=CARTESIAN_POINT('Origin',(75.,2.5,-2.5));
#430=CARTESIAN_POINT('Origin',(80.,2.5,-2.5));
#431=CARTESIAN_POINT('Origin',(75.,-32.5,-37.5));
#432=CARTESIAN_POINT('',(75.,-70.,-6.21724893790088E-14));
#433=CARTESIAN_POINT('',(75.,5.00000000000001,-4.79075403536657E-15));
#434=CARTESIAN_POINT('',(75.,-70.,-5.00000000000006));
#435=CARTESIAN_POINT('',(75.,-70.,-5.88418203051333E-14));
#436=CARTESIAN_POINT('',(75.,-70.,-5.00000000000006));
#437=CARTESIAN_POINT('Origin',(75.,-32.5,-37.5));
#438=CARTESIAN_POINT('',(75.,2.88657986402541E-14,-75.));
#439=CARTESIAN_POINT('',(75.,0.,0.));
#440=CARTESIAN_POINT('',(75.,5.00000000000003,-75.));
#441=CARTESIAN_POINT('',(75.,2.88657986402541E-14,-75.));
#442=CARTESIAN_POINT('',(75.,5.00000000000003,-75.));
#443=CARTESIAN_POINT('Origin',(0.,2.88657986402541E-14,-75.));
#444=CARTESIAN_POINT('',(0.,2.88657986402541E-14,-75.));
#445=CARTESIAN_POINT('',(0.,5.00000000000003,-75.));
#446=CARTESIAN_POINT('',(0.,2.88657986402541E-14,-75.));
#447=CARTESIAN_POINT('',(0.,5.00000000000003,-75.));
#448=CARTESIAN_POINT('',(0.,2.88657986402541E-14,-75.));
#449=CARTESIAN_POINT('Origin',(0.,1.92438657601696E-15,-5.00000000000006));
#450=CARTESIAN_POINT('',(0.,0.,-5.00000000000006));
#451=CARTESIAN_POINT('',(0.,0.,0.));
#452=CARTESIAN_POINT('',(0.,0.,-5.00000000000006));
#453=CARTESIAN_POINT('Origin',(0.,-70.,-5.00000000000006));
#454=CARTESIAN_POINT('',(0.,-70.,-5.00000000000006));
#455=CARTESIAN_POINT('',(0.,-70.,-5.00000000000006));
#456=CARTESIAN_POINT('',(0.,-70.,-5.00000000000006));
#457=CARTESIAN_POINT('Origin',(0.,-70.,-5.88418203051333E-14));
#458=CARTESIAN_POINT('',(0.,-70.,-5.88418203051333E-14));
#459=CARTESIAN_POINT('',(0.,-70.,-5.88418203051333E-14));
#460=CARTESIAN_POINT('',(0.,-70.,-5.88418203051333E-14));
#461=CARTESIAN_POINT('Origin',(0.,5.00000000000001,-4.79075403536657E-15));
#462=CARTESIAN_POINT('',(0.,5.00000000000001,-4.79075403536657E-15));
#463=CARTESIAN_POINT('',(0.,5.00000000000001,-4.79075403536657E-15));
#464=CARTESIAN_POINT('',(0.,5.00000000000001,-4.79075403536657E-15));
#465=CARTESIAN_POINT('Origin',(0.,5.00000000000003,-75.));
#466=CARTESIAN_POINT('',(0.,5.00000000000003,-75.));
#467=CARTESIAN_POINT('Origin',(0.,-32.5,-37.5));
#468=UNCERTAINTY_MEASURE_WITH_UNIT(LENGTH_MEASURE(0.01),#472,
'DISTANCE_ACCURACY_VALUE',
'Maximum model space distance between geometric entities at asserted c
onnectivities');
#469=UNCERTAINTY_MEASURE_WITH_UNIT(LENGTH_MEASURE(0.01),#472,
'DISTANCE_ACCURACY_VALUE',
'Maximum model space distance between geometric entities at asserted c
onnectivities');
#470=(
GEOMETRIC_REPRESENTATION_CONTEXT(3)
GLOBAL_UNCERTAINTY_ASSIGNED_CONTEXT((#468))
GLOBAL_UNIT_ASSIGNED_CONTEXT((#472,#474,#475))
REPRESENTATION_CONTEXT('','3D')
);
#471=(
GEOMETRIC_REPRESENTATION_CONTEXT(3)
GLOBAL_UNCERTAINTY_ASSIGNED_CONTEXT((#469))
GLOBAL_UNIT_ASSIGNED_CONTEXT((#472,#474,#475))
REPRESENTATION_CONTEXT('','3D')
);
#472=(
LENGTH_UNIT()
NAMED_UNIT(*)
SI_UNIT(.MILLI.,.METRE.)
);
#473=(
LENGTH_UNIT()
NAMED_UNIT(*)
SI_UNIT(.CENTI.,.METRE.)
);
#474=(
NAMED_UNIT(*)
PLANE_ANGLE_UNIT()
SI_UNIT($,.RADIAN.)
);
#475=(
NAMED_UNIT(*)
SI_UNIT($,.STERADIAN.)
SOLID_ANGLE_UNIT()
);
#476=SHAPE_DEFINITION_REPRESENTATION(#477,#478);
#477=PRODUCT_DEFINITION_SHAPE('',$,#480);
#478=SHAPE_REPRESENTATION('',(#292),#470);
#479=PRODUCT_DEFINITION_CONTEXT('part definition',#484,'design');
#480=PRODUCT_DEFINITION('\X2\639251FA6A5F69CB\X0\','\X2\639251FA6A5F69CB\X0\',
#481,#479);
#481=PRODUCT_DEFINITION_FORMATION('',$,#486);
#482=PRODUCT_RELATED_PRODUCT_CATEGORY('\X2\639251FA6A5F69CB\X0\',
'\X2\639251FA6A5F69CB\X0\',(#486));
#483=APPLICATION_PROTOCOL_DEFINITION('international standard',
'automotive_design',2009,#484);
#484=APPLICATION_CONTEXT(
'Core Data for Automotive Mechanical Design Process');
#485=PRODUCT_CONTEXT('part definition',#484,'mechanical');
#486=PRODUCT('\X2\639251FA6A5F69CB\X0\','\X2\639251FA6A5F69CB\X0\',$,(#485));
#487=PRESENTATION_STYLE_ASSIGNMENT((#488));
#488=SURFACE_STYLE_USAGE(.BOTH.,#491);
#489=SURFACE_STYLE_RENDERING_WITH_PROPERTIES($,#495,(#490));
#490=SURFACE_STYLE_TRANSPARENT(0.);
#491=SURFACE_SIDE_STYLE('',(#492,#489));
#492=SURFACE_STYLE_FILL_AREA(#493);
#493=FILL_AREA_STYLE('',(#494));
#494=FILL_AREA_STYLE_COLOUR('',#495);
#495=COLOUR_RGB('',0.749019607843137,0.749019607843137,0.749019607843137);
ENDSEC;
END-ISO-10303-21;
